<svg width="98mm" height="98mm" viewBox="0 0 98 98" version="1.1" id="svg5" xml:space="preserve" xmlns="http://www.w3.org/2000/svg" xmlns:svg="http://www.w3.org/2000/svg">
  <g id="layer15" style="display:inline;fill:#f7e2d1;fill-opacity:1;stroke:#c8aea7;stroke-width:1;stroke-dasharray:none;stroke-opacity:1">
    <path style="opacity:.785563;fill:#f7e2d1;fill-opacity:1;stroke:#c8aea7;stroke-width:1;stroke-linecap:round;stroke-dasharray:none;stroke-opacity:1;paint-order:stroke fill markers" d="M 35.42095,-0.84335595 C 35.055486,7.7872395 34.690032,16.417582 36.404941,27.845228 c 1.714909,11.427646 5.509933,25.651964 7.013851,35.224055 1.503918,9.572091 0.716802,14.491571 -2.516106,19.987397 -3.232908,5.495825 -8.911393,11.567868 -22.136606,14.953803 -13.2252138,3.385937 -33.996061,4.085617 -40.138777,-14.285749 -6.142716,-18.371369 2.343909,-55.81254 10.830748,-93.2546565" id="path41144"/>
  </g>
  <g id="layer18" style="display:inline">
    <rect style="opacity:1;fill:#eee6de;fill-opacity:1;stroke:none;stroke-width:.3;stroke-linecap:round;stroke-dasharray:none;stroke-opacity:1;paint-order:stroke fill markers" id="rect49264" width="23.852823" height="11.315845" x="6.1870804" y="60.161217"/>
    <rect style="opacity:1;fill:#eee6de;fill-opacity:1;stroke:none;stroke-width:.3;stroke-linecap:round;stroke-dasharray:none;stroke-opacity:1;paint-order:stroke fill markers" id="rect49318" width="18.724058" height="4.9659462" x="11.071618" y="76.117371"/>
  </g>
  <g id="layer16" style="display:inline;opacity:1;fill:#f4e6d9;fill-opacity:1;stroke:#d3c0b1;stroke-opacity:1">
    <path style="opacity:1;fill:#f4e6d9;fill-opacity:1;stroke:#d3c0b1;stroke-width:.6;stroke-linecap:round;stroke-dasharray:none;stroke-opacity:1;paint-order:stroke fill markers" d="m 11.727152,81.438558 c 0.967397,-0.927912 1.934788,-1.855817 4.708799,-2.507337 2.774011,-0.65152 7.354221,-1.026623 10.295932,-0.947572 2.941711,0.07905 4.244703,0.612093 5.448986,1.46111 1.204283,0.849017 2.309852,2.013813 3.415185,3.17836" id="path43978"/>
    <path style="opacity:1;fill:#f4e6d9;fill-opacity:1;stroke:#d3c0b1;stroke-width:.6;stroke-linecap:round;stroke-dasharray:none;stroke-opacity:1;paint-order:stroke fill markers" d="m 6.2528071,68.894565 c 0.6634931,0.341225 1.32667,0.682287 2.0182493,0.852737 0.6915793,0.170449 1.4115851,0.170449 2.2735826,-0.416936 0.861998,-0.587386 1.866217,-1.762132 3.031572,-2.756938 1.165356,-0.994807 2.491683,-1.809551 4.983491,-1.45891 2.491808,0.35064 6.14868,1.866441 8.242312,3.571862 2.093633,1.705421 2.624164,3.600175 3.060015,4.841267 0.435852,1.241092 0.776906,1.828465 1.184358,2.254727 0.407451,0.426262 0.88114,0.691528 1.184175,1.222139 0.303036,0.530612 0.435668,1.326407 0.43579,1.71471 1.22e-4,0.388303 -0.132511,0.369357 -0.710433,-0.02847 -0.577922,-0.397822 -1.601087,-1.174671 -4.604397,-1.515847 -3.00331,-0.341176 -7.986509,-0.246438 -10.904612,0.160942 -2.918104,0.40738 -3.770741,1.127385 -4.168655,2.728653 -0.397914,1.601268 -0.341071,4.083393 -1.686264,5.24856 C 9.2467987,86.478232 6.499408,86.326652 5.6276509,84.412959 4.7558938,82.499267 5.7601125,78.823448 6.2622565,76.796062 6.7644004,74.768675 6.7644004,74.389723 6.9161331,74.219079 7.0678658,74.048435 7.3710267,74.08633 7.3614794,73.773822 7.3519321,73.461314 7.0298255,72.798151 6.6887602,72.097071 6.3476948,71.395991 5.9876915,70.657037 5.6275263,69.917751" id="path43974"/>
    <path style="opacity:1;fill:#f4e6d9;fill-opacity:1;stroke:#d3c0b1;stroke-width:.6;stroke-linecap:round;stroke-dasharray:none;stroke-opacity:1;paint-order:stroke fill markers" d="m 3.9090507,-1.362245 c 0.6120379,11.530003 1.224061,23.059729 2.7838248,31.509671 1.5597639,8.449941 4.0670345,13.819842 5.5575875,17.245211 1.490554,3.425369 1.964369,4.906041 1.460841,6.890087 -0.503528,1.984045 -1.984199,4.471573 -3.070051,6.258291 -1.0858528,1.786718 -1.7768333,2.872545 -1.9840711,4.017753 -0.2072378,1.145207 0.069154,2.349487 -0.3553814,3.81034 C 7.8772648,69.82996 6.7519543,71.547539 5.7155135,72.692565 4.6790727,73.83759 3.7314427,74.410117 2.7838261,73.7489 1.8362095,73.087684 0.88857969,71.192424 0.11855621,68.556734 -0.65146727,65.921045 -1.2437358,62.545115 -0.85879331,58.991318 -0.47385079,55.437521 0.88836692,51.706229 1.4017179,48.458603 1.9150689,45.210977 1.5794503,42.447058 0.54295487,36.701857 -0.49354052,30.956655 -2.2308621,22.230564 -2.990987,13.908921 -3.7511119,5.5872776 -3.5339468,-2.3293792 -3.3167703,-10.246451" id="path43982"/>
    <path style="opacity:1;fill:#f4e6d9;fill-opacity:1;stroke:#d3c0b1;stroke-width:.6;stroke-linecap:round;stroke-dasharray:none;stroke-opacity:1;paint-order:stroke fill markers" d="m 27.891951,-1.7561599 c 0.964183,16.2189329 1.928349,32.4375859 3.236971,41.7865929 1.308621,9.349007 2.961445,11.828243 4.235501,14.066513 1.274055,2.238271 2.169334,4.235431 2.131245,7.120441 -0.03809,2.885009 -1.009333,6.657812 -1.637505,8.805525 -0.628171,2.147713 -0.913238,2.670334 -0.972509,3.074297 -0.05927,0.403963 0.107016,0.689029 0.05542,1.203667 -0.05159,0.514639 -0.32082,1.258975 -0.954167,1.642952 -0.633346,0.383977 -1.631073,0.407733 -2.422993,-0.166218 -0.79192,-0.573951 -1.377889,-1.745889 -1.710543,-2.961432 -0.332654,-1.215542 -0.411839,-2.474583 -1.510717,-4.050356 -1.098877,-1.575774 -3.217624,-3.468153 -5.743783,-4.64545 -2.526159,-1.177297 -5.459593,-1.639255 -7.654003,-1.708592 -2.19441,-0.06934 -3.649578,0.254034 -4.596641,-0.06917 C 9.4011691,62.019403 8.9623081,61.04929 8.5003114,59.755764 8.0383148,58.462238 7.5532589,56.845385 8.1422125,54.581601 c 0.5889536,-2.263784 2.2520025,-5.174119 3.3607335,-7.033559 1.108731,-1.85944 1.663082,-2.667869 1.905636,-5.197075 0.242553,-2.529206 0.173259,-6.779221 -0.184767,-15.233343 C 12.865789,18.663501 12.219048,6.0058515 11.57228,-6.6523284" id="path43970"/>
  </g>
  <g id="layer17" style="display:inline">
    <path style="opacity:1;fill:none;fill-opacity:1;stroke:#d3c0b1;stroke-width:.3;stroke-linecap:round;stroke-dasharray:none;stroke-opacity:1;paint-order:stroke fill markers" d="m 19.898543,-1.7245404 c 0.775397,7.4948969 1.550765,14.9895044 3.091817,21.4912154 1.541052,6.501711 3.847593,12.010274 6.154047,17.518627" id="path43987"/>
    <path style="opacity:1;fill:none;fill-opacity:1;stroke:#d3c0b1;stroke-width:.3;stroke-linecap:round;stroke-dasharray:none;stroke-opacity:1;paint-order:stroke fill markers" d="M 9.8504837,49.578053 C 9.1452246,48.981296 8.4396791,48.384296 8.1003239,47.909408 7.7609688,47.43452 7.7881045,47.081756 7.8152596,46.728739" id="path44098"/>
    <path style="opacity:1;fill:none;fill-opacity:1;stroke:#d3c0b1;stroke-width:.3;stroke-linecap:round;stroke-dasharray:none;stroke-opacity:1;paint-order:stroke fill markers" d="M 7.3268061,45.344789 C 6.0243155,37.909738 4.7217725,30.474388 3.9890696,24.829982 3.2563666,19.185576 3.0935519,15.332296 1.5196501,7.6390523 -0.05425168,-0.05419111 -3.0391869,-11.586895 -6.0242627,-23.120143" id="path44102"/>
    <path style="opacity:1;fill:none;fill-opacity:1;stroke:#d3c0b1;stroke-width:.3;stroke-linecap:round;stroke-dasharray:none;stroke-opacity:1;paint-order:stroke fill markers" d="m 10.9088,70.82579 c 1.00413,-0.569911 2.008174,-1.139773 2.496578,-1.126048 0.488404,0.01372 0.461268,0.610713 0.420559,1.234848 -0.04071,0.624136 -0.09498,1.275394 1.166999,1.370228 1.26198,0.09483 3.839879,-0.366476 5.454378,-1.004152 1.614498,-0.637677 2.265758,-1.451751 3.595627,-1.288848 1.329869,0.162902 3.337918,1.302605 4.436842,2.130339 1.098925,0.827733 1.288874,1.343311 1.478711,1.858583" id="path44106"/>
    <path style="opacity:1;fill:none;fill-opacity:1;stroke:#d3c0b1;stroke-width:.3;stroke-linecap:round;stroke-dasharray:none;stroke-opacity:1;paint-order:stroke fill markers" d="m 9.8504837,72.616789 c 0.6514303,-0.217144 1.3027013,-0.434234 2.0897133,-0.05415 0.787011,0.38008 1.709628,1.356968 1.872289,2.320216 0.162662,0.963248 -0.434326,1.913001 -1.03128,2.862701" id="path44110"/>
    <path style="opacity:1;fill:none;fill-opacity:1;stroke:#d3c0b1;stroke-width:.3;stroke-linecap:round;stroke-dasharray:none;stroke-opacity:1;paint-order:stroke fill markers" d="m 6.9197613,73.349468 c 0.5971423,1.329998 1.1941415,2.659678 2.1846862,3.297217 0.9905445,0.637538 2.3744685,0.583267 3.0798945,0.800507 0.705426,0.21724 0.732562,0.705684 0.759683,1.193858" id="path44114"/>
    <path style="opacity:1;fill:none;fill-opacity:1;stroke:#d3c0b1;stroke-width:.3;stroke-linecap:round;stroke-dasharray:none;stroke-opacity:1;paint-order:stroke fill markers" d="m 32.889219,73.512287 c 0.759858,-0.569894 1.519676,-1.139759 2.089494,-1.858801 0.569817,-0.719042 0.949719,-1.587387 1.329682,-2.455873" id="path44118"/>
  </g>
  <g id="layer19" style="display:inline">
    <path style="opacity:1;fill:#f7e2d1;fill-opacity:1;stroke:#bfaa9f;stroke-width:1;stroke-linecap:round;stroke-dasharray:none;stroke-opacity:1;paint-order:stroke fill markers" d="m 51.186156,-5.7078088 c 2.577789,11.5386749 5.155509,23.0770408 5.799879,34.6768598 0.64437,11.59982 -0.644464,23.260701 -2.424337,30.410727 -1.779874,7.150026 -4.050677,9.789067 -10.433639,13.502221 -6.382963,3.713155 -16.877756,8.500254 -27.894521,12.305492 -11.0167657,3.805238 -22.5549008,6.628399 -26.0838451,10.464501 -3.5289439,3.836102 0.9512863,8.684568 12.6125876,10.525648 11.6613015,1.84107 30.5028305,0.67498 49.8359435,0.42951 19.333113,-0.24548 39.156611,0.42962 48.822926,-6.56706 9.66631,-6.996689 9.17533,-21.66485 8.28539,-41.12074 -0.88994,-19.455889 -2.17878,-43.698248 -3.46765,-67.9413704" id="path51928"/>
  </g>
  <g id="layer21" style="display:inline;fill:#eae6e2;fill-opacity:1">
    <path style="opacity:1;fill:#eae6e2;fill-opacity:1;stroke:none;stroke-width:1;stroke-linecap:round;stroke-dasharray:none;stroke-opacity:1;paint-order:stroke fill markers" d="m 89.864111,88.178107 c -2.304033,-4.1585 -4.608241,-8.317314 -9.24477,-10.734073 -4.636529,-2.416758 -11.605214,-3.091148 -15.96082,-3.091182 -4.355605,-3.4e-5 -6.097775,0.674354 -7.952456,1.798388 -1.854681,1.124034 -3.82165,2.697608 -6.463015,3.90591 -2.641365,1.208302 -5.957111,2.051288 -8.37371,2.557102 -2.4166,0.505814 -3.933975,0.674411 -6.631692,1.798423 -2.697717,1.124012 -6.575453,3.203378 -9.638388,4.861297 -3.062935,1.657918 -5.310898,2.894299 -5.844762,4.833417 -0.533864,1.939118 0.646316,4.580473 2.557191,5.732399 1.910875,1.151922 4.552232,0.814732 6.294306,-0.477807 1.742074,-1.292541 2.58506,-3.540504 10.256687,-4.833186 7.671627,-1.292683 22.17099,-1.629878 31.331672,-1.657962 9.160682,-0.02808 12.982217,0.252912 16.80355,0.533893" id="path58581"/>
  </g>
  <g id="layer20" style="display:inline">
    <path style="opacity:1;fill:#f3e6d6;fill-opacity:1;stroke:#d2bfb1;stroke-width:.6;stroke-linecap:round;stroke-dasharray:none;stroke-opacity:1;paint-order:stroke fill markers" d="m -3.1436934,95.014612 c 2.0177867,-0.469252 4.03538121,-0.93846 5.177123,-1.204346 1.1417418,-0.265885 1.4076205,-0.328445 1.6500567,-0.203147 0.2424362,0.125299 0.4613963,0.4381 0.8680278,1.14975 0.4066315,0.71165 1.0009491,1.822085 1.196347,2.940323 0.1953979,1.118237 -0.00792,2.244314 -1.6031025,2.752528 -1.5951811,0.5082 -4.58241203,0.39872 -7.5699766,0.28923" id="path55575"/>
    <path style="opacity:1;fill:#f3e6d6;fill-opacity:1;stroke:#d2bfb1;stroke-width:.6;stroke-linecap:round;stroke-dasharray:none;stroke-opacity:1;paint-order:stroke fill markers" d="m 63.06155,87.929571 c 0.203345,2.737331 0.406668,5.474376 -0.359594,6.803663 -0.766263,1.329287 -2.5023,1.251087 -5.012577,0.813183 -2.510278,-0.437904 -5.794668,-1.235541 -9.892525,-1.079187 -4.097856,0.156354 -9.008801,1.26679 -12.129127,2.345988 -3.120326,1.079197 -4.449722,2.127074 -5.880682,2.228828 -1.430959,0.101754 -2.963675,-0.742804 -3.010753,-2.095774 -0.04708,-1.35297 1.391797,-3.214124 4.426159,-4.778207 3.034361,-1.564082 7.663786,-2.830918 12.395052,-3.565993 4.731265,-0.735076 9.564012,-0.938395 14.396602,-1.141708" id="path55607"/>
    <path style="opacity:1;fill:#f3e6d6;fill-opacity:1;stroke:#d2bfb1;stroke-width:1;stroke-linecap:round;stroke-dasharray:none;stroke-opacity:1;paint-order:stroke fill markers" d="m 23.319636,92.809334 c 1.36088,2.408916 2.721583,4.817517 2.572952,6.420469 -0.148632,1.602947 -1.806468,2.400587 -4.308859,2.682147 -2.502391,0.28156 -5.84934,0.047 -7.562087,-1.22762 -1.712746,-1.274575 -1.790946,-3.58929 -1.869156,-5.904321" id="path55611"/>
    <path style="opacity:1;fill:#f3e6d6;fill-opacity:1;stroke:#d2bfb1;stroke-width:.6;stroke-linecap:round;stroke-dasharray:none;stroke-opacity:1;paint-order:stroke fill markers" d="M 8.2111394,100.78587 C 7.8827595,99.253431 7.5543143,97.720687 7.0851621,96.453817 6.6160099,95.186947 6.0060513,94.185989 5.646335,93.607293 5.2866187,93.028597 5.1771383,92.872197 6.1155359,92.387163 7.0539335,91.902129 9.040208,91.088852 11.613111,90.494531 c 2.572903,-0.59432 5.732173,-0.969679 9.931588,-2.244397 4.199414,-1.274717 9.4388,-3.44867 12.269693,-4.621692 2.830894,-1.173021 3.253171,-1.34506 3.479896,-1.149385 0.226725,0.195675 0.258005,0.758714 0.351861,1.595489 0.09386,0.836774 0.250256,1.947209 1.251359,3.464321 1.001104,1.517112 2.846618,3.440826 3.957111,4.47301 1.110493,1.032185 1.485852,1.172945 1.344977,1.407465 -0.140875,0.234521 -0.797753,0.562959 -2.213126,0.602101 -1.415373,0.03914 -3.589327,-0.211098 -6.373333,-0.469171 -2.784005,-0.258072 -6.177873,-0.523952 -10.533833,0.742901 -4.35596,1.266853 -9.673543,4.066406 -14.991333,6.866067" id="path55579"/>
    <path style="opacity:1;fill:#f3e6d6;fill-opacity:1;stroke:#d2bfb1;stroke-width:.6;stroke-linecap:round;stroke-dasharray:none;stroke-opacity:1;paint-order:stroke fill markers" d="m 66.111402,85.53661 c 0.93872,0.64146 1.877135,1.282711 2.416581,2.815517 0.539447,1.532805 0.680207,3.956998 0.359644,5.301897 -0.320563,1.3449 -1.10256,1.610779 -2.431932,1.610824 -1.329372,4.5e-5 -3.206166,-0.265834 -5.943236,-1.227674 -2.73707,-0.961841 -6.334261,-2.619676 -6.850483,-4.199456 -0.516222,-1.579779 2.048732,-3.081215 4.613653,-4.582632" id="path55603"/>
    <path style="opacity:1;fill:#f3e6d6;fill-opacity:1;stroke:#d2bfb1;stroke-width:.6;stroke-linecap:round;stroke-dasharray:none;stroke-opacity:1;paint-order:stroke fill markers" d="m 50.870035,91.245282 c -0.836682,0.312778 -2.51019,0.938388 -3.511186,1.329396 -1.000996,0.391008 -1.329436,0.547408 -1.728202,0.352068 -0.398767,-0.19534 -0.867964,-0.742738 -1.798562,-1.704638 -0.930598,-0.9619 -2.322554,-2.338216 -3.190682,-3.644166 -0.868128,-1.30595 -1.212207,-2.541506 -1.431199,-3.573783 -0.218993,-1.032277 -0.312832,-1.861195 -0.203278,-2.322755 0.109554,-0.46156 0.422354,-0.5554 1.837815,-1.040258 1.415461,-0.484858 3.933493,-1.360695 5.810392,-1.798596 1.8769,-0.4379 3.112457,-0.4379 3.910101,-0.453551 0.797645,-0.01565 1.157365,-0.04693 1.282343,0.179967 0.124978,0.226898 0.0155,0.711736 0.09376,1.57984 0.07826,0.868104 0.344138,2.1193 0.922905,3.425275 0.578767,1.305975 1.470243,2.666651 2.314885,3.511141 0.844641,0.84449 1.64228,1.172929 1.947094,1.446581 0.304814,0.273652 0.117134,0.492612 -0.461455,0.703725 -0.57859,0.211113 -1.548267,0.414432 -2.439809,0.695955 -0.891541,0.281522 -1.70482,0.641242 -2.111528,0.821132 -0.406708,0.179891 -0.406708,0.179889 -1.243391,0.492667 z" id="path55587"/>
    <path style="opacity:1;fill:#f3e6d6;fill-opacity:1;stroke:#d2bfb1;stroke-width:.6;stroke-linecap:round;stroke-dasharray:none;stroke-opacity:1;paint-order:stroke fill markers" d="m 64.555244,88.132869 c -0.383138,0.203298 -1.149512,0.609945 -1.845517,0.993137 -0.696005,0.383192 -1.3216,0.74291 -2.119166,0.492805 -0.797566,-0.250104 -1.767242,-1.110301 -3.041929,-2.087848 -1.274686,-0.977547 -2.854321,-2.072344 -3.652125,-3.808408 -0.797805,-1.736064 -0.813444,-4.113337 -0.868148,-5.489663 -0.0547,-1.376326 -0.148543,-1.751684 0.445825,-2.21326 0.594368,-0.461575 1.876844,-1.008974 2.846566,-1.384341 0.969723,-0.375367 1.626601,-0.578686 1.900207,-0.242271 0.273606,0.336414 0.164126,1.212251 0.320589,2.44007 0.156464,1.227819 0.578742,2.807453 2.009967,4.246299 1.431224,1.438846 3.871056,2.736961 5.349058,3.573744 1.478002,0.836783 1.994121,1.212142 1.923643,1.548274 -0.07048,0.336133 -0.727354,0.633292 -1.306061,0.914821 -0.578706,0.281529 -1.079185,0.547408 -1.329477,0.680375 -0.250292,0.132968 -0.250293,0.132968 -0.633432,0.336266 z" id="path55591"/>
    <path style="opacity:1;fill:#f3e6d6;fill-opacity:1;stroke:#d2bfb1;stroke-width:.6;stroke-linecap:round;stroke-dasharray:none;stroke-opacity:1;paint-order:stroke fill markers" d="m 88.070334,100.87971 c -2.09548,-1.141567 -4.191275,-2.283305 -7.116051,-3.135769 -2.924776,-0.852463 -6.678364,-1.415501 -8.625713,-2.39291 -1.947349,-0.977409 -2.088108,-2.369366 -2.181961,-3.855215 -0.09385,-1.485848 -0.140773,-3.065484 0.305033,-4.090088 0.445806,-1.024604 1.384204,-1.493802 2.830961,-2.135062 1.446758,-0.64126 3.401751,-1.454538 4.989339,-1.501332 1.587588,-0.0468 2.807505,0.672644 4.105489,0.109505 1.297984,-0.56314 2.6743,-2.408655 3.94905,-3.675568 1.274749,-1.266913 2.447748,-1.955072 3.581742,-1.509133 1.133994,0.445938 2.22879,2.025574 3.714686,3.057725 1.485895,1.032151 3.362688,1.51699 5.161338,2.252143 1.798653,0.735154 3.519043,1.72047 4.121013,4.629633 0.60198,2.909164 0.0859,7.741909 -0.43024,12.574521" id="path55599"/>
    <path style="opacity:1;fill:#f3e6d6;fill-opacity:1;stroke:#d2bfb1;stroke-width:.6;stroke-linecap:round;stroke-dasharray:none;stroke-opacity:1;paint-order:stroke fill markers" d="m 86.294874,73.203701 c -0.133573,-3.406103 -0.267157,-6.812479 -1.101914,-8.794051 -0.834757,-1.981573 -2.370937,-2.538159 -4.274632,-2.226536 -1.903695,0.311623 -4.174568,1.491586 -4.764549,3.762721 -0.58998,2.271136 0.500929,5.63292 1.591757,8.994451" id="path55615"/>
    <path style="opacity:1;fill:#f3e6d6;fill-opacity:1;stroke:#d2bfb1;stroke-width:.6;stroke-linecap:round;stroke-dasharray:none;stroke-opacity:1;paint-order:stroke fill markers" d="m 80.550789,-7.280295 c 0.489818,10.9763782 0.979623,21.95248 1.502832,32.394349 0.523209,10.441869 1.079796,20.349107 1.124421,25.336066 0.04462,4.986959 -0.422907,5.053749 -1.346832,4.619713 C 80.907285,54.635796 79.526952,53.700731 78.313443,50.951146 77.099934,48.20156 76.053551,43.63755 74.840132,33.629762 73.626713,23.621974 72.246379,8.1711371 70.865991,-7.280295" id="path55619"/>
    <path style="opacity:1;fill:#f3e6d6;fill-opacity:1;stroke:#d2bfb1;stroke-width:.6;stroke-linecap:round;stroke-dasharray:none;stroke-opacity:1;paint-order:stroke fill markers" d="m 59.761506,75.472384 c -0.01558,-1.118244 -0.140698,-1.46233 0.140857,-1.744042 0.281556,-0.281711 0.969715,-0.500671 2.541617,-0.774369 1.571901,-0.273697 4.027373,-0.602136 6.216962,-1.298148 2.18959,-0.696013 4.113304,-1.759529 5.669517,-2.64321 1.556213,-0.88368 2.74485,-1.587478 4.019658,-1.493503 1.274808,0.09397 2.635484,0.985452 4.707847,2.314889 2.072364,1.329437 4.856276,3.096753 6.795673,4.394917 1.939398,1.298164 3.034195,2.127081 3.034067,2.901149 -1.27e-4,0.774067 -1.094924,1.493505 -2.072446,2.126941 -0.977523,0.633435 -1.837721,1.180834 -2.244389,1.728412 -0.406667,0.547578 -0.359748,1.094978 -0.578755,1.829987 -0.219007,0.735008 -0.703845,1.657764 -1.720293,1.884542 -1.016449,0.226779 -2.564806,-0.24242 -3.808238,-0.922699 -1.243432,-0.68028 -2.18183,-1.571758 -3.72249,-1.556265 -1.54066,0.01549 -3.683332,0.938251 -5.192661,1.696817 -1.509328,0.758566 -2.385166,1.352885 -3.44859,1.266971 -1.063425,-0.08591 -2.314621,-0.852272 -4.097631,-1.76726 -1.78301,-0.914987 -4.097722,-1.978503 -5.208346,-3.456476 -1.110623,-1.477973 -1.016783,-3.370408 -1.032359,-4.488653 z" id="path55595"/>
    <path style="opacity:1;fill:#f3e6d6;fill-opacity:1;stroke:#d2bfb1;stroke-width:.6;stroke-linecap:round;stroke-dasharray:none;stroke-opacity:1;paint-order:stroke fill markers" d="m 79.482121,69.9977 c 3.050252,-1.603053 6.100405,-3.206053 7.636563,-4.78665 1.536158,-1.580597 1.558421,-3.139037 0.879446,-5.187314 C 87.319155,57.975459 85.938822,55.437424 84.15769,52.186855 82.376557,48.936286 80.194738,44.97339 78.257691,35.422015 76.320644,25.870639 74.628622,10.73149 73.626786,2.7387559 72.62495,-5.2539784 72.313263,-6.0999895 70.587855,-6.5565567 c -1.725407,-0.4565672 -4.864553,-0.5233575 -6.601284,-0.3675008 -1.73673,0.1558568 -2.070683,0.5343356 -0.79043,6.07830156 C 64.476394,4.69821 67.370644,15.406932 68.61737,25.414618 c 1.246727,10.007686 0.845984,19.313809 0.389558,25.592243 -0.456427,6.278434 -0.968486,9.528898 -1.324715,11.588306 -0.35623,2.059408 -0.556601,2.927683 0.178261,4.430566 0.734861,1.502883 2.404622,3.640176 4.51792,4.244096 2.113298,0.603919 4.670076,-0.32519 7.226759,-1.254264" id="path55623"/>
  </g>
  <ellipse style="fill:#000;fill-opacity:.185771;stroke:#000;stroke-width:.304164;stroke-linecap:round;stroke-linejoin:miter;stroke-dasharray:none;stroke-dashoffset:0;stroke-opacity:1;paint-order:stroke fill markers" id="path31762" cx="36.417728" cy="59.998444" rx="1.1625636" ry="2.8636332"/>
  <ellipse style="fill:#000;fill-opacity:.185771;stroke:#000;stroke-width:.462887;stroke-linecap:round;stroke-linejoin:miter;stroke-dasharray:none;stroke-dashoffset:0;stroke-opacity:1;paint-order:stroke fill markers" id="path31762-9" cx="74.207619" cy="64.719261" rx="2.7692082" ry="2.784272"/>
  <ellipse style="fill:#0420ff;fill-opacity:.184314;stroke:#0420ff;stroke-width:.310672;stroke-linecap:round;stroke-linejoin:miter;stroke-dasharray:none;stroke-dashoffset:0;stroke-opacity:1;paint-order:stroke fill markers" id="path31762-6" cx="-19.614134" cy="-52.207882" rx="1.2395929" ry="2.8004816" transform="matrix(-0.99343462,0.11440132,-0.2351434,-0.97196069,0,0)"/>
  <ellipse style="fill:#0420ff;fill-opacity:.184314;stroke:#0420ff;stroke-width:.446768;stroke-linecap:round;stroke-linejoin:miter;stroke-dasharray:none;stroke-dashoffset:0;stroke-opacity:1;paint-order:stroke fill markers" id="path31762-6-1" cx="-79.421417" cy="-41.283157" rx="2.606266" ry="2.7545636" transform="matrix(-0.98897576,-0.14807751,0.10951977,-0.99398462,0,0)"/>
  <g aria-label="Malleolus medialis" id="text59104" style="font-weight:700;font-size:4.23333px;font-family:Bahnschrift;-inkscape-font-specification:&quot;Bahnschrift Bold&quot;;text-align:end;text-anchor:end;opacity:1;stroke-linecap:round;paint-order:stroke fill markers">
    <path d="m 46.941379,81.350634 h 0.746207 v 3.005499 h -0.514697 v -2.333706 l 0.02067,0.132291 -0.574642,1.866552 h -0.500227 l -0.574641,-1.825211 0.02067,-0.173632 v 2.333706 h -0.514697 v -3.005499 h 0.746207 l 0.572575,2.025714 z" id="path61479"/>
    <path d="m 49.487992,82.99601 q 0,-0.148828 -0.09922,-0.229443 -0.09922,-0.08061 -0.28112,-0.08061 -0.119889,0 -0.237711,0.03927 -0.117822,0.03927 -0.208773,0.109554 L 48.30977,82.489581 q 0.128157,-0.146761 0.338997,-0.227376 0.21084,-0.08268 0.467155,-0.08268 0.281119,0 0.479557,0.09508 0.198437,0.09302 0.30179,0.272851 0.105419,0.177767 0.105419,0.429947 v 1.378727 h -0.514696 z m -0.597379,1.391128 q -0.345199,0 -0.516764,-0.163297 -0.169499,-0.165364 -0.169499,-0.500227 0,-0.318327 0.190169,-0.47749 0.192236,-0.159164 0.574642,-0.159164 h 0.537434 l 0.02894,0.432015 h -0.564306 q -0.128158,0 -0.192236,0.05168 -0.06408,0.04961 -0.06408,0.152963 0,0.105419 0.08061,0.157096 0.08062,0.04961 0.243913,0.04961 0.227376,0 0.33693,-0.05168 0.111621,-0.05168 0.111621,-0.161231 l 0.04341,0.312126 q -0.0124,0.115755 -0.107487,0.19637 -0.09302,0.08061 -0.235644,0.121956 -0.14056,0.03927 -0.297656,0.03927 z" id="path61481"/>
    <path d="m 51.127167,83.647132 q 0,0.07855 0.04341,0.121957 0.04548,0.04134 0.128158,0.04134 h 0.09508 v 0.545703 h -0.289388 q -0.258382,0 -0.401008,-0.148828 -0.142627,-0.148828 -0.142627,-0.419613 v -2.437058 h 0.566373 z" id="path61483"/>
    <path d="m 52.352931,83.647132 q 0,0.07855 0.04341,0.121957 0.04548,0.04134 0.128157,0.04134 h 0.09508 v 0.545703 h -0.289388 q -0.258382,0 -0.401009,-0.148828 -0.142626,-0.148828 -0.142626,-0.419613 v -2.437058 h 0.566373 z" id="path61485"/>
    <path d="m 53.932161,84.387138 q -0.310058,0 -0.531233,-0.111621 Q 53.18182,84.161829 53.066065,83.946856 52.95031,83.729815 52.95031,83.425958 v -0.241846 q 0,-0.318327 0.109554,-0.543636 0.111621,-0.225309 0.32246,-0.343131 0.212907,-0.117822 0.51263,-0.117822 0.28112,0 0.481624,0.14056 0.200504,0.14056 0.303857,0.409277 0.10542,0.26665 0.10542,0.644921 v 0.14056 h -1.467609 v -0.382405 h 0.950845 l -0.0062,-0.04961 q -0.02274,-0.186035 -0.117822,-0.28732 -0.09302,-0.101286 -0.250114,-0.101286 -0.204638,0 -0.318326,0.121956 -0.111621,0.121956 -0.111621,0.345198 v 0.272852 q 0,0.219108 0.121956,0.338997 0.124023,0.119889 0.345198,0.119889 0.113688,0 0.225309,-0.03927 0.111621,-0.04134 0.202572,-0.115755 v 0 l 0.370003,0.328662 v 0 q -0.167432,0.152962 -0.376205,0.237711 -0.208772,0.08268 -0.421679,0.08268 z" id="path61487"/>
    <path d="m 56.145977,84.387138 q -0.293522,0 -0.502294,-0.109554 -0.206706,-0.109554 -0.31626,-0.318326 -0.107487,-0.21084 -0.107487,-0.506429 v -0.349332 q 0,-0.291455 0.107487,-0.498161 0.109554,-0.208772 0.31626,-0.316259 0.208772,-0.109554 0.502294,-0.109554 0.293522,0 0.500228,0.109554 0.208772,0.107487 0.316259,0.316259 0.109554,0.206706 0.109554,0.498161 v 0.355533 q 0,0.293522 -0.109554,0.502295 -0.107487,0.206705 -0.316259,0.316259 -0.206706,0.109554 -0.500228,0.109554 z m -0.0021,-0.545702 q 0.171566,0 0.26665,-0.09922 0.09509,-0.101286 0.09509,-0.283187 v -0.355533 q 0,-0.179834 -0.09509,-0.279053 -0.09508,-0.09922 -0.26665,-0.09922 -0.169498,0 -0.264583,0.09922 -0.09302,0.09922 -0.09302,0.279053 v 0.355533 q 0,0.181901 0.09302,0.283187 0.09302,0.09922 0.264583,0.09922 z" id="path61489"/>
    <path d="m 58.155155,83.647132 q 0,0.07855 0.04341,0.121957 0.04548,0.04134 0.128157,0.04134 h 0.09508 v 0.545703 h -0.289388 q -0.258382,0 -0.401009,-0.148828 -0.142627,-0.148828 -0.142627,-0.419613 v -2.437058 h 0.566373 z" id="path61491"/>
    <path d="m 60.025841,82.210529 h 0.564306 v 2.145604 h -0.564306 z m -0.665592,1.304312 q 0,0.155029 0.08682,0.241845 0.08888,0.08475 0.248047,0.08475 0.159163,0 0.243912,-0.08682 0.08682,-0.08888 0.08682,-0.25218 l 0.02894,0.469221 q -0.05994,0.1757 -0.200504,0.295589 -0.138493,0.119889 -0.338997,0.119889 -0.345198,0 -0.5333,-0.221175 -0.188102,-0.223242 -0.188102,-0.630452 v -1.324982 h 0.566373 z" id="path61493"/>
    <path d="m 61.968873,84.387138 q -0.192236,0 -0.374137,-0.03307 -0.1819,-0.03514 -0.341064,-0.101285 -0.159163,-0.06615 -0.281119,-0.159164 v 0 l 0.349332,-0.436148 v 0 q 0.155029,0.09922 0.324528,0.152962 0.169498,0.05374 0.32246,0.05374 0.198438,0 0.307992,-0.04341 0.109554,-0.04547 0.109554,-0.124023 0,-0.07235 -0.04754,-0.109554 -0.04754,-0.03721 -0.121956,-0.05168 -0.07441,-0.01654 -0.208772,-0.02894 -0.03721,-0.0041 -0.07648,-0.0083 -0.03721,-0.0041 -0.07648,-0.0083 -0.0083,-0.0021 -0.0186,-0.0021 -0.0083,-0.0021 -0.01654,-0.0021 -0.239778,-0.03101 -0.384472,-0.07648 -0.144694,-0.04547 -0.245979,-0.173633 -0.09922,-0.130224 -0.09922,-0.376204 0,-0.214973 0.103353,-0.367936 0.103352,-0.152962 0.299723,-0.23151 0.19637,-0.08061 0.475422,-0.08061 0.163298,0 0.324528,0.03307 0.163298,0.03307 0.312126,0.09508 0.148828,0.06201 0.274918,0.148828 v 0 l -0.33693,0.411345 v 0 q -0.14056,-0.07855 -0.293522,-0.121957 -0.152962,-0.04341 -0.293522,-0.04341 -0.171565,0 -0.26665,0.03927 -0.09509,0.03927 -0.09509,0.109554 0,0.05374 0.04961,0.08475 0.05168,0.02894 0.12609,0.04341 0.07648,0.0124 0.221175,0.02894 0.0186,0.0021 0.03721,0.0041 0.0186,0.0021 0.03721,0.0041 0.0083,0.0021 0.0186,0.0021 0.01033,0 0.0186,0.0021 0.250114,0.02894 0.40721,0.07441 0.157096,0.04547 0.26665,0.181901 0.111621,0.136425 0.111621,0.401008 0,0.223242 -0.107487,0.382406 -0.107487,0.159163 -0.314192,0.243912 -0.206706,0.08268 -0.498161,0.08268 z" id="path61495"/>
    <path d="m 49.86833,88.409628 q 0,-0.188102 -0.09095,-0.289387 -0.08888,-0.103353 -0.254248,-0.103353 -0.163297,0 -0.25218,0.09922 -0.08682,0.09715 -0.08682,0.276985 L 49.078715,87.896999 Q 49.18,87.69236 49.341231,87.582806 q 0.163297,-0.111621 0.361734,-0.111621 0.231511,0 0.394808,0.109554 0.165364,0.109554 0.250114,0.320394 0.08682,0.210839 0.08682,0.506428 v 1.240234 H 49.86833 Z m -2.501137,-0.907437 h 0.566373 v 2.145604 h -0.566373 z m 1.250568,0.907437 q 0,-0.188102 -0.09302,-0.289387 -0.09302,-0.103353 -0.262516,-0.103353 -0.157097,0 -0.243913,0.08888 -0.08475,0.08682 -0.08475,0.24598 l -0.04341,-0.475423 q 0.09508,-0.198437 0.237711,-0.30179 0.142627,-0.103353 0.334863,-0.103353 0.227376,0 0.388606,0.109554 0.163298,0.109554 0.248047,0.320394 0.08475,0.210839 0.08475,0.506428 v 1.240234 h -0.566373 z" id="path61497"/>
    <path d="m 51.912648,89.678801 q -0.310059,0 -0.531234,-0.111621 -0.219108,-0.113688 -0.334863,-0.328662 -0.115755,-0.217041 -0.115755,-0.520898 v -0.241846 q 0,-0.318326 0.109554,-0.543635 0.111621,-0.225309 0.322461,-0.343132 0.212907,-0.117822 0.51263,-0.117822 0.281119,0 0.481624,0.14056 0.200504,0.14056 0.303857,0.409277 0.10542,0.26665 0.10542,0.644921 v 0.14056 h -1.46761 v -0.382405 h 0.950846 l -0.0062,-0.04961 q -0.02274,-0.186035 -0.117823,-0.287321 -0.09302,-0.101286 -0.250113,-0.101286 -0.204639,0 -0.318327,0.121956 -0.111621,0.121957 -0.111621,0.345199 v 0.272851 q 0,0.219108 0.121956,0.338997 0.124024,0.119889 0.345199,0.119889 0.113688,0 0.225309,-0.03927 0.111621,-0.04134 0.202571,-0.115755 v 0 l 0.370003,0.328662 v 0 q -0.167431,0.152962 -0.376204,0.237711 -0.208773,0.08268 -0.421679,0.08268 z" id="path61499"/>
    <path d="m 54.419986,86.642296 h 0.566374 v 3.005499 h -0.566374 z m -0.49816,3.036505 q -0.227376,0 -0.390674,-0.109554 -0.16123,-0.109554 -0.245979,-0.31626 -0.08475,-0.208772 -0.08475,-0.502294 v -0.343132 q 0,-0.295589 0.08475,-0.506428 0.08475,-0.21084 0.245979,-0.320394 0.163298,-0.109554 0.390674,-0.109554 0.171566,0 0.312125,0.103353 0.142627,0.101286 0.229444,0.289388 l -0.04341,0.475423 q 0,-0.109554 -0.03721,-0.186035 -0.03721,-0.07648 -0.109554,-0.115756 -0.07028,-0.04134 -0.171565,-0.04134 -0.159163,0 -0.248047,0.109554 -0.08682,0.107487 -0.08682,0.303857 v 0.341065 q 0,0.192236 0.08682,0.297656 0.08888,0.105419 0.248047,0.105419 0.101286,0 0.171565,-0.03927 0.07235,-0.03927 0.109554,-0.113688 0.03721,-0.07441 0.03721,-0.179833 l 0.02894,0.489892 q -0.06615,0.175699 -0.202571,0.272851 -0.136426,0.09509 -0.324528,0.09509 z" id="path61501"/>
    <path d="m 55.513459,86.642296 h 0.566373 v 0.566373 h -0.566373 z m 0,0.859895 h 0.566373 v 2.145604 h -0.566373 z" id="path61503"/>
    <path d="m 57.78722,88.287672 q 0,-0.148828 -0.09922,-0.229443 -0.09922,-0.08061 -0.281119,-0.08061 -0.11989,0 -0.237712,0.03927 -0.117822,0.03927 -0.208772,0.109554 l -0.3514,-0.345198 q 0.128158,-0.146761 0.338997,-0.227377 0.21084,-0.08268 0.467155,-0.08268 0.281119,0 0.479557,0.09508 0.198437,0.09302 0.30179,0.272851 0.10542,0.177767 0.10542,0.429948 v 1.378726 H 57.78722 Z m -0.597379,1.391129 q -0.345199,0 -0.516764,-0.163298 -0.169499,-0.165364 -0.169499,-0.500227 0,-0.318327 0.190169,-0.47749 0.192237,-0.159163 0.574642,-0.159163 h 0.537434 l 0.02894,0.432014 h -0.564306 q -0.128158,0 -0.192236,0.05168 -0.06408,0.04961 -0.06408,0.152962 0,0.10542 0.08061,0.157096 0.08062,0.04961 0.243913,0.04961 0.227376,0 0.33693,-0.05168 0.111621,-0.05168 0.111621,-0.16123 l 0.04341,0.312125 q -0.0124,0.115755 -0.107487,0.19637 -0.09302,0.08061 -0.235644,0.121957 -0.14056,0.03927 -0.297656,0.03927 z" id="path61505"/>
    <path d="m 59.426395,88.938795 q 0,0.07855 0.04341,0.121956 0.04548,0.04134 0.128158,0.04134 h 0.09508 v 0.545703 h -0.289388 q -0.258381,0 -0.401008,-0.148828 -0.142627,-0.148828 -0.142627,-0.419613 v -2.437058 h 0.566373 z" id="path61507"/>
    <path d="m 60.054779,86.642296 h 0.566374 v 0.566373 h -0.566374 z m 0,0.859895 h 0.566374 v 2.145604 h -0.566374 z" id="path61509"/>
    <path d="m 61.968873,89.678801 q -0.192236,0 -0.374137,-0.03307 -0.181901,-0.03514 -0.341064,-0.101286 -0.159164,-0.06615 -0.28112,-0.159163 v 0 l 0.349332,-0.436149 v 0 q 0.15503,0.09922 0.324528,0.152962 0.169499,0.05374 0.322461,0.05374 0.198437,0 0.307991,-0.04341 0.109554,-0.04547 0.109554,-0.124023 0,-0.07235 -0.04754,-0.109554 -0.04754,-0.03721 -0.121956,-0.05168 -0.07441,-0.01654 -0.208773,-0.02894 -0.03721,-0.0041 -0.07648,-0.0083 -0.03721,-0.0041 -0.07648,-0.0083 -0.0083,-0.0021 -0.0186,-0.0021 -0.0083,-0.0021 -0.01654,-0.0021 -0.239779,-0.031 -0.384472,-0.07648 -0.144694,-0.04547 -0.24598,-0.173632 -0.09922,-0.130225 -0.09922,-0.376204 0,-0.214974 0.103353,-0.367936 0.103353,-0.152962 0.299723,-0.231511 0.19637,-0.08061 0.475423,-0.08061 0.163297,0 0.324528,0.03307 0.163297,0.03307 0.312125,0.09509 0.148828,0.06201 0.274918,0.148828 v 0 l -0.33693,0.411344 v 0 q -0.140559,-0.07855 -0.293522,-0.121957 -0.152962,-0.04341 -0.293521,-0.04341 -0.171566,0 -0.266651,0.03927 -0.09508,0.03927 -0.09508,0.109554 0,0.05374 0.04961,0.08475 0.05168,0.02894 0.126091,0.04341 0.07648,0.0124 0.221174,0.02894 0.0186,0.0021 0.03721,0.0041 0.0186,0.0021 0.03721,0.0041 0.0083,0.0021 0.0186,0.0021 0.01033,0 0.0186,0.0021 0.250114,0.02894 0.40721,0.07441 0.157097,0.04547 0.266651,0.181901 0.111621,0.136425 0.111621,0.401009 0,0.223242 -0.107487,0.382405 -0.107487,0.159163 -0.314193,0.243912 -0.206705,0.08268 -0.49816,0.08268 z" id="path61511"/>
  </g>
  <path style="opacity:1;fill:none;fill-opacity:1;stroke:#000;stroke-width:.3;stroke-linecap:round;stroke-dasharray:none;stroke-opacity:1;paint-order:stroke fill markers" d="M 38.556718,64.545222 53.681174,79.243641 69.870737,68.592614" id="path59316"/>
</svg>
