<svg width="98mm" height="98mm" version="1.1" viewBox="0 0 98 98" xml:space="preserve" xmlns="http://www.w3.org/2000/svg">
  <path d="m11.436 99.619c0.42569-3.4056 0.85142-6.8113 1.3158-11.165 0.46443-4.354 0.96755-9.6561 1.3642-14.271s0.68696-8.5434 0.97723-12.752 0.58053-8.6982 0.6386-12.307c0.05807-3.609-0.11609-6.3374-0.387-9.2788-0.27091-2.9414-0.63857-6.0955-1.132-9.7239-0.49345-3.6284-1.1127-7.7307-1.5094-11.475-0.39671-3.7445-0.57087-7.1308-0.54185-11.059 0.02901-3.9283 0.26122-8.3983 0.43552-10.633 0.1743-2.2352 0.2904-2.2352 12.888-2.1578 12.598 0.077407 37.676 0.23221 50.196 1.0064s12.481 2.1674 12.501 3.8026c0.01936 1.6352 0.09676 3.5122 0.18384 5.9795 0.08708 2.4673 0.18383 5.5247 0.13544 8.4757-0.04839 2.951-0.2419 5.7956-0.33864 7.4308-0.09675 1.6352-0.09675 2.0609-0.4838 3.9766-0.38705 1.9158-1.1611 5.3215-2.0609 8.4467s-1.9254 5.9697-2.7672 8.6499c-0.84177 2.6802-1.4997 5.1957-1.8964 7.2276-0.39668 2.0319-0.53214 3.58-0.4547 5.5054 0.07744 1.9255 0.3677 4.2282 0.86117 6.9084 0.49348 2.6802 1.1901 5.7376 1.7609 8.6499 0.57085 2.9124 1.0159 5.6795 1.461 9.0176 0.44507 3.3381 0.89014 7.2469 1.1127 10.885s0.22252 7.005 0.22252 10.372" fill="#f7e2d1" style="paint-order:fill markers stroke"/>
  <path d="m30.565 42.09c6.2916 4.1201 12.583 8.2401 18.874 12.36" fill="none" stroke="#000" stroke-linecap="round" stroke-width=".6" style="paint-order:stroke fill markers"/>
  <g fill="none" stroke="#bfaa9e" stroke-linecap="round" stroke-linejoin="bevel" stroke-width=".6">
    <path d="m12.395-1.8228c-0.24305 6.1167-0.48608 12.233 0.12156 18.876 0.60764 6.6431 2.0658 13.813 2.7544 21.002s0.60756 14.4-0.22284 25.499c-0.8304 11.099-2.4101 26.086-3.9898 41.073" style="paint-order:fill markers stroke"/>
    <path d="m87.98-2.5519c0.44558 8.5066 0.89115 17.013 0.243 23.899-0.64815 6.886-2.3899 12.152-4.0507 17.235-1.6608 5.0836-3.2405 9.9847-3.6657 13.954s0.30385 7.0076 1.3975 12.334c1.0937 5.3266 2.5519 12.942 3.281 20.051 0.72908 7.1089 0.72908 13.711 0.72908 20.314" style="paint-order:fill markers stroke"/>
  </g>
  <g fill="#ece7e1">
    <path d="m74.188 38.398-2.9463-1.2558-5.2647 0.0483-4.1538 0.7728-0.966 3.5259 13.041-0.0483" style="paint-order:fill markers stroke"/>
    <path d="m60.713 28.883 1.3524 3.6708 3.7191 5.4096-7.9212 2.9463-2.8014-7.8729" style="paint-order:fill markers stroke"/>
    <path d="m36.756 24.536-0.966 2.6565 1.1109 7.4865 0.3381 1.8354-1.2075 1.1592-4.1055 1.2075-6.1341-0.6762 2.1735 1.1592 5.2164 0.6762h4.2504l4.5402-0.5796-2.415 0.86939-7.5348 1.0143 10.481 3.4776 6.4239-4.83-2.6082-12.799" style="paint-order:fill markers stroke"/>
    <path d="m28.4 54.579 1.1109 7.4865 8.1144 6.4239 5.6028-2.898-10.674-12.703" style="paint-order:fill markers stroke"/>
  </g>
  <g fill="#f4e6d9">
    <path d="m28.014 54.579-1.0143 0.2898-1.2075 2.3184-0.8694 2.2218-1.4007 6.0375-0.1932 5.4096 0.3381 2.4633 1.4007 3.1395 2.4633 22.218 9.6599 0.2898 0.7728-15.07 2.1252-12.365 0.0483-2.9463-1.8837-2.3184-5.3613-3.3327-3.0429-2.7048-0.91769-3.1395-0.2415-2.1252" style="paint-order:fill markers stroke"/>
    <path d="m53.316 32.323-7.8729 6.7137-4.2987 2.2701-6.6171-0.4347-4.8783 0.0966-2.6565 1.2558-0.2415 2.2218 1.4973 7.1001 1.7871 4.2021 2.6082 3.0912 5.0232 4.1055 2.1735 2.898 2.3184 5.5545 1.3041 7.3416 1.449 9.6116 1.2075 12.751 20.769-0.483-0.0483-10.433 1.2558-17.774 1.2558-9.4184 1.3041-3.7674 2.9463-2.9463 1.7871-2.8014 0.6279-2.7048 0.5313-7.4382-0.5796-4.5402-0.7728-0.5796-3.1878 0.6762-3.7191 0.0483-4.6851-0.7245-2.5116-1.2075-1.5456-1.3524-1.8837-3.5259" style="paint-order:fill markers stroke"/>
    <path d="m33.375-2.6082-0.3864 5.1681-1.1592 6.5205-2.0286 3.1395-3.6225 3.0912-2.5116 2.4633-0.8211 2.8497 0.2898 3.2361 0.7728 4.347 1.4007 5.0232-0.0483 3.6225 0.6279 1.1592 2.2701 0.6762 2.2701 0.2898 3.1878-0.6279 3.0912-1.2075 0.4347-0.966-0.4347-3.2361-0.9177-4.83 0.5313-5.2164 22.17 2.3184 2.7048 5.0232 1.3524 3.1395 3.1878 4.2504h3.6225l2.5116-0.7728 3.0429-4.83 1.4007-4.6368-0.0483-5.5545 0.7245-4.2504-0.5796-4.2987-2.415-3.7191-4.9749-2.7048-3.4293-4.1055-2.7048-4.8783" style="paint-order:fill markers stroke"/>
  </g>
  <g fill="none" stroke="#dbd6d0" stroke-linecap="round" stroke-linejoin="bevel" stroke-width=".6">
    <path d="m26.005 38.157c1.5801 0.40514 3.1598 0.8102 4.9218 0.72912 1.762-0.08108 3.7062-0.64816 4.8403-1.1544 1.1341-0.50628 1.4581-0.95184 1.3367-2.2479s-0.68854-3.4429-1.0531-5.5695c-0.36459-2.1266-0.52661-4.2329 0.48609-5.9748 1.0127-1.7419 3.2-3.1191 5.3874-3.909s4.3747-0.99239 5.8937-0.34411c1.519 0.64828 2.3696 2.147 4.2532 2.6734 1.8836 0.5264 4.8 0.08084 6.3999 1.3772 1.5999 1.2964 1.8834 4.3343 2.8557 6.9267s2.633 4.7392 4.2935 6.8857" style="paint-order:fill markers stroke"/>
    <path d="m74.369 38.157c-0.85574-0.3066-1.7118-0.61332-3.8182-0.65389-2.1064-0.04057-5.4629 0.18513-8.8198 0.41085" style="paint-order:fill markers stroke"/>
    <path d="m32.932 40.709c2.3091-0.04051 4.618-0.08102 6.1774-0.32408 1.5594-0.24306 2.3695-0.68862 3.1796-1.1341" style="paint-order:fill markers stroke"/>
  </g>
  <g fill="none" stroke="#d9c4b5" stroke-linecap="round" stroke-linejoin="bevel" stroke-width=".6">
    <path d="m44.962 99.038c-0.93161-8.8301-1.8633-17.66-3.0176-23.716-1.1544-6.0557-2.5316-9.3366-4.8404-11.787-2.3088-2.4507-5.5492-4.0709-7.6759-7.2506-2.1267-3.1797-3.1393-7.9188-3.4837-10.592-0.34436-2.6735-0.02031-3.2811 0.7089-3.828 0.72921-0.54691 1.8634-1.033 4.8812-1.0127 3.0178 0.0203 7.919 0.54687 12.82 1.0734" style="paint-order:fill markers stroke"/>
    <path d="m65.742 99.281c0.12151-5.5491 0.24303-11.098 0.66834-17.559 0.42531-6.4608 1.1544-13.833 1.8835-17.884 0.72913-4.0507 1.4582-4.7798 2.5722-5.833s2.6126-2.4304 3.443-4.4961c0.83036-2.0657 0.99239-4.8201 1.0329-7.3112 0.04052-2.4911-0.04049-4.7189-0.24293-6.0759-0.20244-1.3569-0.52648-1.843-1.3367-1.7824-0.81018 0.06059-2.1064 0.66817-4.3139 0.72897-2.2075 0.06081-5.3264-0.42526-7.3518-1.1138-2.0253-0.68851-2.957-1.5796-3.8887-3.1189s-1.8633-3.7265-2.7951-5.9142" style="paint-order:fill markers stroke"/>
    <path d="m40.223 41.195c2.0254-0.81018 4.0508-1.6203 5.1849-3.0784 1.1341-1.4581 1.3771-3.5644 1.6202-5.6709" style="paint-order:fill markers stroke"/>
    <path d="m62.825 52.496c1.9849-1.0937 3.9697-2.1874 5.0228-3.0986 1.0531-0.91127 1.1746-1.6404 1.2962-2.3697" style="paint-order:fill markers stroke"/>
    <path d="m34.147 50.309c1.1344 1.9446 2.2685 3.8889 3.4028 5.3674 1.1342 1.4785 2.2684 2.4911 2.9366 3.5443 0.66824 1.0532 0.87077 2.1468 1.0732 3.2402" style="paint-order:fill markers stroke"/>
    <path d="m42.775 65.985c1.7824 4.1725 3.5647 8.3446 4.476 11.484 0.91132 3.1392 0.95183 5.2455 0.99233 7.3516" style="paint-order:fill markers stroke"/>
    <path d="m58.207 61.61c0.60773 1.3775 1.2153 2.7547 1.2962 4.5167 0.08092 1.762-0.36464 3.9088-0.40504 5.3063-0.04039 1.3975 0.32416 2.0456 0.68854 2.6934" style="paint-order:fill markers stroke"/>
    <path d="m61.488 54.562c0 1.1749 0 2.3496-0.26332 3.4635-0.26332 1.1139-0.78989 2.167-1.3164 3.22" style="paint-order:fill markers stroke"/>
    <path d="m32.987-3.7917c0.52663 3.2408 1.0532 6.4813 1.2962 9.499 0.24301 3.0177 0.2025 5.8126 0.162 8.6073" style="paint-order:fill markers stroke"/>
    <path d="m33.418-2.0658c-0.36458 4.2129-0.72913 8.4255-1.7823 11.241-1.0532 2.8151-2.7949 4.2328-4.5367 5.4884-1.7418 1.2557-3.4835 2.3493-3.9898 4.8002-0.50633 2.4508 0.22277 6.2583 0.85065 8.871 0.62788 2.6127 1.1545 4.0304 1.2961 5.124s-0.10135 1.8632-0.08103 2.8962c0.02032 1.033 0.30385 2.3292 2.8761 3.0379 2.5723 0.70871 7.4329 0.83023 10.673 0.5669 3.2404-0.26333 4.8607-0.91141 6.4808-1.5595" style="paint-order:fill markers stroke"/>
    <path d="m58.45 34.39c1.0129 1.0534 2.0256 2.1066 3.8484 2.6938 1.8228 0.58721 4.4557 0.70873 6.3392 0.62768 1.8835-0.08105 3.0177-0.36458 4.253-2.1063 1.2353-1.7417 2.572-4.9416 3.0784-7.5745 0.50638-2.6328 0.18233-4.6986 0.32406-6.4202 0.14173-1.7216 0.74931-3.0988 0.5671-5.1848-0.1822-2.086-1.1543-4.8809-2.6935-6.4203-1.5392-1.5394-3.6454-1.8229-5.5898-3.6051-1.9444-1.7822-3.7266-5.0631-5.5091-8.3444" style="paint-order:fill markers stroke"/>
    <path d="m27.706 99.645c-0.64807-5.5491-1.2962-11.098-1.7417-15.169-0.44557-4.0709-0.68861-6.6632-1.1341-8.3443-0.44547-1.681-1.0936-2.4506-1.3975-4.1114-0.30392-1.6608-0.26341-4.2126 0.20239-7.0481s1.3569-5.9544 2.1671-7.8381c0.81016-1.8836 1.5393-2.5317 2.0254-2.5923 0.48614-0.06059 0.72918 0.46598 0.97216 1.7014 0.24298 1.2354 0.48602 3.1797 1.6406 4.6581s3.2204 2.4911 4.9419 3.4835c1.7215 0.99244 3.0987 1.9646 3.9087 2.9975 0.81001 1.033 1.053 2.1266 0.68842 4.6785-0.36462 2.5519-1.3368 6.5619-1.9038 11.484-0.56707 4.9216-0.72909 10.754-0.89111 16.587" style="paint-order:fill markers stroke"/>
    <path d="m25.609 74.019c1.5267-1.461 3.0534-2.922 3.8741-4.1777 0.82078-1.2557 0.93569-2.3063 1.0506-3.3572" style="paint-order:fill markers stroke"/>
    <path d="m31.075 67.765c0.41065 0.45992 0.82104 0.91957 1.765 1.1246 0.94393 0.20505 2.4213 0.15581 3.3488 0.54175s1.305 1.2067 1.6824 2.0272" style="paint-order:fill markers stroke"/>
  </g>
  <path d="m42.835 14.704c2.1672-0.64809 5.0026-1.0532 7.5343-0.89106 2.5317 0.1621 4.7595 0.8912 6.3798 1.5596s2.6329 1.276 3.686 2.3292c1.0531 1.0532 2.1468 2.5519 2.4099 4.7798s-0.30392 5.1847-1.5191 7.3112c-1.2152 2.1265-3.0784 3.4226-4.6987 5.043-1.6203 1.6203-2.9975 3.5646-4.1518 4.7392s-2.086 1.5797-3.6657 0.8102c-1.5797-0.76949-3.8075-2.7137-5.9543-4.3745-2.1468-1.6608-4.2126-3.038-5.4077-5.1038-1.1951-2.0658-1.5191-4.8202-1.3369-7.2304 0.18224-2.4102 0.87083-4.476 1.9646-5.9546 1.0937-1.4786 2.5924-2.3697 4.7596-3.0178z" fill="#f0e8dc" stroke="#d9c4b5" stroke-linecap="round" stroke-linejoin="bevel" stroke-width=".6" style="paint-order:fill markers stroke"/>
  <ellipse cx="53.412" cy="57.743" rx="2.7692" ry="2.7843" fill-opacity=".18577" stroke="#000" stroke-linecap="round" stroke-width=".46289" style="paint-order:stroke fill markers"/>
  <g transform="translate(11.977 2.2336)" fill-opacity=".18431" stroke-linecap="round" stroke-width=".41822">
    <ellipse transform="rotate(16)" cx="64.268" cy="39.318" rx="2.2414" ry="2.8067" fill="#0420ff" stroke="#0420ff" style="paint-order:stroke fill markers"/>
    <ellipse transform="rotate(16)" cx="65.36" cy="48.883" rx="2.2414" ry="2.8067" fill="#ff0404" stroke="#ff0404" style="paint-order:stroke fill markers"/>
  </g>
  <g fill="none" stroke="#d9c4b5" stroke-linecap="round" stroke-linejoin="bevel" stroke-width=".6">
    <path d="m43.19 17.761c-1.2687 2.2874-2.5373 4.5748-2.6236 6.7277-0.08638 2.1529 1.0092 4.1711 2.1047 6.189" style="paint-order:fill markers stroke"/>
    <path d="m37.597 25.603c0.21148 1.3266 0.42292 2.6528 0.88435 3.6331 0.46144 0.98027 1.1726 1.6146 1.8835 2.2486" style="paint-order:fill markers stroke"/>
    <path d="m59.625 22.201c-0.24992 1.3265-0.49979 2.6528-1.2782 3.7867-0.77843 1.1339-2.0855 2.0758-3.3926 3.0177" style="paint-order:fill markers stroke"/>
    <path d="m55.588 32.58c-1.4224 1.3263-2.8447 2.6525-3.6617 3.5272-0.81694 0.87463-1.0284 1.2975-1.2398 1.7203" style="paint-order:fill markers stroke"/>
  </g>
  <g stroke-linecap="round">
    <g transform="translate(23.783 38.15)" stroke-width=".463" style="paint-order:stroke fill markers" aria-label="Tuberositas tibiae">
      <path d="m7.6728 33.652h0.56637v2.7595h-0.56637zm-0.81855-0.24598h2.2035v0.5457h-2.2035z"/>
      <path d="m10.331 34.266h0.56431v2.1456h-0.56431zm-0.66559 1.3043q0 0.15503 0.086816 0.24185 0.088883 0.08475 0.24805 0.08475 0.15916 0 0.24391-0.08682 0.08682-0.08888 0.08682-0.25218l0.02894 0.46922q-0.05995 0.1757-0.2005 0.29559-0.13849 0.11989-0.339 0.11989-0.3452 0-0.5333-0.22118-0.1881-0.22324-0.1881-0.63045v-1.325h0.56637z"/>
      <path d="m12.518 36.442q-0.1881 0-0.32453-0.09509-0.13643-0.09715-0.20257-0.27285l0.02894-0.48989q0 0.10542 0.03721 0.17983 0.03721 0.07441 0.10749 0.11369 0.07235 0.03928 0.17363 0.03928 0.15916 0 0.24598-0.10542 0.08888-0.10542 0.08888-0.29766v-0.34106q0-0.19637-0.08888-0.30386-0.08682-0.10955-0.24598-0.10955-0.10129 0-0.17363 0.04134-0.07028 0.03927-0.10749 0.11576-0.03721 0.07648-0.03721 0.18604l-0.04341-0.47542q0.08682-0.1881 0.22738-0.28939 0.14263-0.10335 0.31419-0.10335 0.22738 0 0.38861 0.10955 0.1633 0.10955 0.24805 0.32039t0.08475 0.50643v0.34313q0 0.29352-0.08475 0.50229-0.08475 0.20671-0.24805 0.31626-0.16123 0.10955-0.38861 0.10955zm-1.0645-3.0365h0.56637v3.0055h-0.56637z"/>
      <path d="m14.676 36.442q-0.31006 0-0.53123-0.11162-0.21911-0.11369-0.33486-0.32866-0.11576-0.21704-0.11576-0.5209v-0.24185q0-0.31833 0.10955-0.54364 0.11162-0.22531 0.32246-0.34313 0.21291-0.11782 0.51263-0.11782 0.28112 0 0.48162 0.14056 0.2005 0.14056 0.30386 0.40928 0.10542 0.26665 0.10542 0.64492v0.14056h-1.4676v-0.3824h0.95085l-0.0062-0.04961q-0.02274-0.18604-0.11782-0.28732-0.09302-0.10129-0.25011-0.10129-0.20464 0-0.31833 0.12196-0.11162 0.12196-0.11162 0.3452v0.27285q0 0.21911 0.12196 0.339 0.12402 0.11989 0.3452 0.11989 0.11369 0 0.22531-0.03927 0.11162-0.04134 0.20257-0.11576l0.37 0.32866q-0.16743 0.15296-0.3762 0.23771-0.20877 0.08268-0.42168 0.08268z"/>
      <path d="m16.026 34.266h0.60771v2.1456h-0.60771zm1.2072 0.59738q-0.04134-0.04134-0.10128-0.06201-0.05995-0.02067-0.13849-0.02067-0.17157 0-0.26665 0.11162-0.09302 0.10955-0.09302 0.30592l-0.04341-0.5581q0.08888-0.19224 0.22944-0.29766 0.14263-0.10749 0.31213-0.10749 0.13436 0 0.24184 0.04341 0.10955 0.04134 0.19017 0.12402z"/>
      <path d="m18.655 36.442q-0.29352 0-0.5023-0.10955-0.2067-0.10955-0.31626-0.31833-0.10749-0.21084-0.10749-0.50643v-0.34933q0-0.29146 0.10749-0.49816 0.10955-0.20877 0.31626-0.31626 0.20877-0.10955 0.5023-0.10955t0.50023 0.10955q0.20877 0.10749 0.31626 0.31626 0.10955 0.2067 0.10955 0.49816v0.35553q0 0.29352-0.10955 0.50229-0.10749 0.20671-0.31626 0.31626-0.2067 0.10955-0.50023 0.10955zm-0.0021-0.5457q0.17156 0 0.26665-0.09922 0.09508-0.10128 0.09508-0.28319v-0.35553q0-0.17983-0.09508-0.27905-0.09509-0.09922-0.26665-0.09922-0.1695 0-0.26458 0.09922-0.09302 0.09922-0.09302 0.27905v0.35553q0 0.1819 0.09302 0.28319 0.09302 0.09922 0.26458 0.09922z"/>
      <path d="m20.918 36.442q-0.19224 0-0.37414-0.03307-0.1819-0.03514-0.34106-0.10129-0.15916-0.06615-0.28112-0.15916l0.34933-0.43615q0.15503 0.09922 0.32453 0.15296 0.1695 0.05374 0.32246 0.05374 0.19844 0 0.30799-0.04341 0.10955-0.04548 0.10955-0.12402 0-0.07235-0.04754-0.10955-0.04754-0.03721-0.12196-0.05168-0.07441-0.01654-0.20877-0.02894-0.03721-0.0041-0.07648-0.0083-0.03721-0.0041-0.07648-0.0083-0.0083-0.0021-0.0186-0.0021-0.0083-0.0021-0.01654-0.0021-0.23978-0.03101-0.38447-0.07648-0.14469-0.04548-0.24598-0.17363-0.09922-0.13022-0.09922-0.3762 0-0.21497 0.10335-0.36794t0.29972-0.23151q0.19637-0.08062 0.47542-0.08062 0.1633 0 0.32453 0.03307 0.1633 0.03307 0.31213 0.09508t0.27492 0.14883l-0.33693 0.41134q-0.14056-0.07855-0.29352-0.12196-0.15296-0.04341-0.29352-0.04341-0.17156 0-0.26665 0.03927-0.09508 0.03927-0.09508 0.10955 0 0.05374 0.04961 0.08475 0.05168 0.02894 0.12609 0.04341 0.07648 0.0124 0.22118 0.02894 0.0186 0.0021 0.03721 0.0041 0.0186 0.0021 0.03721 0.0041 0.0083 0.0021 0.0186 0.0021 0.01034 0 0.0186 0.0021 0.25011 0.02894 0.40721 0.07441t0.26665 0.1819q0.11162 0.13642 0.11162 0.40101 0 0.22324-0.10749 0.3824-0.10749 0.15916-0.31419 0.24391-0.2067 0.08268-0.49816 0.08268z"/>
      <path d="m22.262 33.406h0.56637v0.56637h-0.56637zm0 0.8599h0.56637v2.1456h-0.56637z"/>
      <path d="m23.955 36.422q-0.28112 0-0.41341-0.14263-0.13022-0.14469-0.13022-0.42581v-2.2118h0.56637v2.0712q0 0.07855 0.03101 0.12196 0.03101 0.04134 0.09095 0.04134h0.14056v0.5457zm-0.76481-2.1559h1.0501v0.48369h-1.0501z"/>
      <path d="m25.917 35.051q0-0.14883-0.09922-0.22944-0.09922-0.08062-0.28112-0.08062-0.11989 0-0.23771 0.03927-0.11782 0.03927-0.20877 0.10955l-0.3514-0.3452q0.12816-0.14676 0.339-0.22738 0.21084-0.08268 0.46716-0.08268 0.28112 0 0.47956 0.09508 0.19844 0.09302 0.30179 0.27285 0.10542 0.17777 0.10542 0.42995v1.3787h-0.5147zm-0.59738 1.3911q-0.3452 0-0.51676-0.1633-0.1695-0.16536-0.1695-0.50023 0-0.31833 0.19017-0.47749 0.19224-0.15916 0.57464-0.15916h0.53743l0.02894 0.43201h-0.56431q-0.12816 0-0.19224 0.05168-0.06408 0.04961-0.06408 0.15296 0 0.10542 0.08061 0.1571 0.08062 0.04961 0.24391 0.04961 0.22738 0 0.33693-0.05168 0.11162-0.05168 0.11162-0.16123l0.04341 0.31212q-0.0124 0.11576-0.10749 0.19637-0.09302 0.08061-0.23564 0.12196-0.14056 0.03927-0.29766 0.03927z"/>
      <path d="m27.81 36.442q-0.19224 0-0.37414-0.03307-0.1819-0.03514-0.34106-0.10129-0.15916-0.06615-0.28112-0.15916l0.34933-0.43615q0.15503 0.09922 0.32453 0.15296 0.1695 0.05374 0.32246 0.05374 0.19844 0 0.30799-0.04341 0.10955-0.04548 0.10955-0.12402 0-0.07235-0.04754-0.10955-0.04754-0.03721-0.12196-0.05168-0.07441-0.01654-0.20877-0.02894-0.03721-0.0041-0.07648-0.0083-0.03721-0.0041-0.07648-0.0083-0.0083-0.0021-0.0186-0.0021-0.0083-0.0021-0.01654-0.0021-0.23978-0.03101-0.38447-0.07648-0.14469-0.04548-0.24598-0.17363-0.09922-0.13022-0.09922-0.3762 0-0.21497 0.10335-0.36794 0.10335-0.15296 0.29972-0.23151 0.19637-0.08062 0.47542-0.08062 0.1633 0 0.32453 0.03307 0.1633 0.03307 0.31212 0.09508t0.27492 0.14883l-0.33693 0.41134q-0.14056-0.07855-0.29352-0.12196-0.15296-0.04341-0.29352-0.04341-0.17157 0-0.26665 0.03927-0.09509 0.03927-0.09509 0.10955 0 0.05374 0.04961 0.08475 0.05168 0.02894 0.12609 0.04341 0.07648 0.0124 0.22118 0.02894 0.0186 0.0021 0.03721 0.0041 0.0186 0.0021 0.03721 0.0041 0.0083 0.0021 0.0186 0.0021 0.01034 0 0.0186 0.0021 0.25011 0.02894 0.40721 0.07441 0.1571 0.04547 0.26665 0.1819 0.11162 0.13642 0.11162 0.40101 0 0.22324-0.10749 0.3824t-0.31419 0.24391q-0.20671 0.08268-0.49816 0.08268z"/>
      <path d="m19.453 41.713q-0.28112 0-0.41341-0.14263-0.13022-0.14469-0.13022-0.42581v-2.2117h0.56637v2.0712q0 0.07855 0.03101 0.12196 0.03101 0.04134 0.09095 0.04134h0.14056v0.5457zm-0.76481-2.1559h1.0501v0.48369h-1.0501z"/>
      <path d="m20.203 38.698h0.56637v0.56637h-0.56637zm0 0.8599h0.56637v2.1456h-0.56637z"/>
      <path d="m22.361 41.734q-0.1881 0-0.32453-0.09508-0.13642-0.09715-0.20257-0.27285l0.02894-0.48989q0 0.10542 0.03721 0.17983 0.03721 0.07441 0.10749 0.11369 0.07235 0.03927 0.17363 0.03927 0.15916 0 0.24598-0.10542 0.08888-0.10542 0.08888-0.29766v-0.34106q0-0.19637-0.08888-0.30386-0.08682-0.10955-0.24598-0.10955-0.10128 0-0.17363 0.04134-0.07028 0.03927-0.10749 0.11576-0.03721 0.07648-0.03721 0.18604l-0.04341-0.47542q0.08682-0.1881 0.22738-0.28939 0.14263-0.10335 0.31419-0.10335 0.22738 0 0.38861 0.10955 0.1633 0.10955 0.24805 0.32039 0.08475 0.21084 0.08475 0.50643v0.34313q0 0.29352-0.08475 0.50229-0.08475 0.20671-0.24805 0.31626-0.16123 0.10955-0.38861 0.10955zm-1.0645-3.0365h0.56637v3.0055h-0.56637z"/>
      <path d="m23.568 38.698h0.56637v0.56637h-0.56637zm0 0.8599h0.56637v2.1456h-0.56637z"/>
      <path d="m25.842 40.343q0-0.14883-0.09922-0.22944-0.09922-0.08062-0.28112-0.08062-0.11989 0-0.23771 0.03927t-0.20877 0.10955l-0.3514-0.34519q0.12816-0.14676 0.339-0.22738 0.21084-0.08268 0.46715-0.08268 0.28112 0 0.47956 0.09508 0.19844 0.09302 0.30179 0.27285 0.10542 0.17777 0.10542 0.42995v1.3787h-0.5147zm-0.59738 1.3911q-0.3452 0-0.51676-0.1633-0.1695-0.16536-0.1695-0.50023 0-0.31833 0.19017-0.47749 0.19224-0.15916 0.57464-0.15916h0.53744l0.02894 0.43202h-0.56431q-0.12816 0-0.19224 0.05168-0.06408 0.04961-0.06408 0.15296 0 0.10542 0.08061 0.1571 0.08062 0.04961 0.24391 0.04961 0.22738 0 0.33693-0.05168 0.11162-0.05168 0.11162-0.16123l0.04341 0.31212q-0.0124 0.11576-0.10749 0.19637-0.09302 0.08061-0.23564 0.12196-0.14056 0.03927-0.29766 0.03927z"/>
      <path d="m27.835 41.734q-0.31006 0-0.53123-0.11162-0.21911-0.11369-0.33486-0.32866-0.11576-0.21704-0.11576-0.5209v-0.24184q0-0.31833 0.10955-0.54364 0.11162-0.22531 0.32246-0.34313 0.21291-0.11782 0.51263-0.11782 0.28112 0 0.48162 0.14056 0.2005 0.14056 0.30386 0.40928 0.10542 0.26665 0.10542 0.64492v0.14056h-1.4676v-0.3824h0.95084l-0.0062-0.04961q-0.02274-0.18604-0.11782-0.28732-0.09302-0.10129-0.25011-0.10129-0.20464 0-0.31833 0.12196-0.11162 0.12196-0.11162 0.3452v0.27285q0 0.21911 0.12196 0.339 0.12402 0.11989 0.3452 0.11989 0.11369 0 0.22531-0.03927 0.11162-0.04134 0.20257-0.11576l0.37 0.32866q-0.16743 0.15296-0.3762 0.23771-0.20877 0.08268-0.42168 0.08268z"/>
    </g>
    <path d="m53.822 79.727v-17.754" fill="none" stroke="#000" stroke-width=".3" style="paint-order:stroke fill markers"/>
  </g>
</svg>
