<?xml version="1.0" encoding="UTF-8" standalone="no"?>
<!-- Created with Inkscape (http://www.inkscape.org/) -->

<svg
   width="20"
   height="20"
   viewBox="0 0 5.291666 5.291666"
   version="1.1"
   id="svg5"
   xml:space="preserve"
   xmlns="http://www.w3.org/2000/svg"
   xmlns:svg="http://www.w3.org/2000/svg"><defs
     id="defs2" /><g
     id="layer1"><g
       id="g10249"><g
         id="g10236"><g
           id="g10223"
           transform="translate(0.00304544)"><path
             style="fill:none;fill-opacity:0.200268;stroke:#000000;stroke-width:0.12;stroke-linecap:round;stroke-linejoin:bevel;stroke-dasharray:none;stroke-dashoffset:0;stroke-opacity:1;paint-order:fill markers stroke"
             d="M 2.2345581,1.4935052 V 0.33732059 c 0,0 0.021139,-0.0726288 0.4236787,-0.0791054 0.4025396,-0.006477 0.3988717,0.0718342 0.3988717,0.0718342 V 1.4854487"
             id="path10147" /><path
             style="fill:none;fill-opacity:0.200268;stroke:#000000;stroke-width:0.129929;stroke-linecap:round;stroke-linejoin:bevel;stroke-dasharray:none;stroke-dashoffset:0;stroke-opacity:1;paint-order:fill markers stroke"
             d="M 2.1597748,1.7402404 V 1.5672438 c 0,0 0.024983,-0.072046 0.5007173,-0.078469 0.4757345,-0.00643 0.4713997,0.071257 0.4713997,0.071257 v 0.1809765"
             id="path10147-9" /><path
             style="fill:none;fill-opacity:0.200268;stroke:#000000;stroke-width:0.122132;stroke-linecap:round;stroke-linejoin:bevel;stroke-dasharray:none;stroke-dashoffset:0;stroke-opacity:1;paint-order:fill markers stroke"
             d="M 2.2292128,2.1299807 V 1.9516449 c 0,0 0.021414,-0.074269 0.4291852,-0.08089 0.4077714,-0.00663 0.4040558,0.073456 0.4040558,0.073456 v 0.186562"
             id="path10147-9-3" /><ellipse
             style="fill:none;fill-opacity:0.200268;stroke:#000000;stroke-width:0.12;stroke-linecap:round;stroke-linejoin:bevel;stroke-dasharray:none;stroke-dashoffset:0;stroke-opacity:1;paint-order:fill markers stroke"
             id="path10149"
             cx="2.4342425"
             cy="0.59651512"
             rx="0.031995103"
             ry="0.10458694" /><path
             style="fill:none;fill-opacity:0.200268;stroke:#000000;stroke-width:0.12;stroke-linecap:round;stroke-linejoin:bevel;stroke-dasharray:none;stroke-dashoffset:0;stroke-opacity:1;paint-order:fill markers stroke"
             d="m 2.1585931,1.7537345 0.076602,0.1974217"
             id="path10205" /><path
             style="fill:none;fill-opacity:0.200268;stroke:#000000;stroke-width:0.12;stroke-linecap:round;stroke-linejoin:bevel;stroke-dasharray:none;stroke-dashoffset:0;stroke-opacity:1;paint-order:fill markers stroke"
             d="m 3.1326746,1.7502883 -0.0646,0.1879794"
             id="path10207" /><path
             style="fill:none;fill-opacity:0.200268;stroke:#000000;stroke-width:0.12;stroke-linecap:round;stroke-linejoin:bevel;stroke-dasharray:none;stroke-dashoffset:0;stroke-opacity:1;paint-order:fill markers stroke"
             d="m 2.2262677,2.1375815 c -0.040907,0.063306 -0.081771,0.1265459 -0.1161494,0.1869558 -0.034378,0.06041 -0.062259,0.1179431 -0.083439,0.177288 -0.021181,0.059345 -0.035668,0.1204167 -0.042277,0.183938 -0.00661,0.063521 -0.00539,0.1294104 -0.00445,0.4185531 9.427e-4,0.2891426 0.00161,0.8015219 0.00411,1.0678077 0.0025,0.2662858 0.00676,0.2864231 0.023696,0.3113345 0.016933,0.024911 0.046336,0.054635 0.1101418,0.086714 0.063806,0.032079 0.1619571,0.066667 0.2553427,0.087445 0.093386,0.020778 0.182035,0.027837 0.2705271,0.026879 0.088492,-9.573e-4 0.1768692,-0.00988 0.2650365,-0.024216 0.088167,-0.014333 0.1761591,-0.034052 0.2357202,-0.062448 0.059561,-0.028396 0.090904,-0.065536 0.1115585,-0.094905 0.020655,-0.029369 0.030654,-0.051057 0.036521,-0.069884 0.00587,-0.018827 0.00757,-0.034908 0.00957,-0.3221808 0.002,-0.2872733 0.00427,-0.8457489 0.00423,-1.1338786 C 3.3063781,2.6888545 3.3039982,2.6710525 3.29421,2.6297435 3.2844218,2.5884346 3.2671825,2.5236038 3.227961,2.4388546 3.1887396,2.3541054 3.1274391,2.2494437 3.0659543,2.1444674"
             id="path10209" /><ellipse
             style="fill:none;fill-opacity:0.200268;stroke:#000000;stroke-width:0.12;stroke-linecap:round;stroke-linejoin:bevel;stroke-dasharray:none;stroke-dashoffset:0;stroke-opacity:1;paint-order:fill markers stroke"
             id="path10213"
             cx="2.6439977"
             cy="2.7411699"
             rx="0.64145416"
             ry="0.10066778" /></g></g><path
         style="fill:#000000;fill-opacity:0.200268;stroke:none;stroke-width:0.12;stroke-linecap:round;stroke-linejoin:bevel;stroke-dasharray:none;stroke-dashoffset:0;stroke-opacity:1;paint-order:fill markers stroke"
         d="m 2.6360843,2.6449954 -0.5231145,0.052186 -0.13087,0.1292106 0.02608,1.6756883 0.2039096,0.1206524 0.4139864,0.08672 0.5061417,-0.07952 L 3.3019068,4.4763142 3.3095668,2.7783218 3.040418,2.6601391 Z"
         id="path10225" /></g></g><g
     id="layer2" /></svg>
