<?xml version="1.0" encoding="UTF-8" standalone="no"?>
<!-- Created with Inkscape (http://www.inkscape.org/) -->

<svg
   width="20"
   height="20"
   viewBox="0 0 5.291666 5.291666"
   version="1.1"
   id="svg5"
   xml:space="preserve"
   sodipodi:docname="entwurf-inhaler.svg"
   inkscape:version="1.2.2 (b0a8486541, 2022-12-01)"
   xmlns:inkscape="http://www.inkscape.org/namespaces/inkscape"
   xmlns:sodipodi="http://sodipodi.sourceforge.net/DTD/sodipodi-0.dtd"
   xmlns="http://www.w3.org/2000/svg"
   xmlns:svg="http://www.w3.org/2000/svg"><sodipodi:namedview
     id="namedview10314"
     pagecolor="#ffffff"
     bordercolor="#000000"
     borderopacity="0.25"
     inkscape:showpageshadow="2"
     inkscape:pageopacity="0.0"
     inkscape:pagecheckerboard="0"
     inkscape:deskcolor="#d1d1d1"
     showgrid="false"
     inkscape:zoom="21.775"
     inkscape:cx="8.978186"
     inkscape:cy="15.223881"
     inkscape:window-width="1920"
     inkscape:window-height="1000"
     inkscape:window-x="0"
     inkscape:window-y="0"
     inkscape:window-maximized="1"
     inkscape:current-layer="svg5" /><defs
     id="defs2"><inkscape:path-effect
       effect="bspline"
       id="path-effect12330"
       is_visible="true"
       lpeversion="1"
       weight="33.333333"
       steps="2"
       helper_size="0"
       apply_no_weight="true"
       apply_with_weight="true"
       only_selected="false" /><inkscape:path-effect
       effect="bspline"
       id="path-effect12326"
       is_visible="true"
       lpeversion="1"
       weight="33.333333"
       steps="2"
       helper_size="0"
       apply_no_weight="true"
       apply_with_weight="true"
       only_selected="false" /><inkscape:path-effect
       effect="bspline"
       id="path-effect12322"
       is_visible="true"
       lpeversion="1"
       weight="33.333333"
       steps="2"
       helper_size="0"
       apply_no_weight="true"
       apply_with_weight="true"
       only_selected="false" /><inkscape:path-effect
       effect="bspline"
       id="path-effect12318"
       is_visible="true"
       lpeversion="1"
       weight="33.333333"
       steps="2"
       helper_size="0"
       apply_no_weight="true"
       apply_with_weight="true"
       only_selected="false" /></defs><g
     id="g13850"><g
       id="g13836"><path
         style="fill:none;fill-opacity:0.200268;stroke:none;stroke-width:0.12;stroke-linecap:round;stroke-linejoin:bevel;stroke-opacity:1;paint-order:fill markers stroke"
         d="M 4.4854899,2.0203525 V 0.4219312 H 3.301382 v 1.275049"
         id="path12281" /><ellipse
         style="fill:none;fill-opacity:0.200268;stroke:#000000;stroke-width:0.12;stroke-linecap:round;stroke-linejoin:bevel;stroke-opacity:1;paint-order:fill markers stroke"
         id="path12287"
         cx="3.8817956"
         cy="0.33884549"
         rx="0.74480504"
         ry="0.11690382" /><path
         style="fill:none;fill-opacity:0.200268;stroke:#000000;stroke-width:0.12;stroke-linecap:round;stroke-linejoin:bevel;stroke-opacity:1;paint-order:fill markers stroke"
         d="m 3.1351041,0.344599 c 3.438e-4,0.21066172 6.871e-4,0.42105839 0.00103,0.63119007"
         id="path12316"
         sodipodi:nodetypes="cc" /><path
         style="fill:none;fill-opacity:0.200268;stroke:#000000;stroke-width:0.12;stroke-linecap:round;stroke-linejoin:bevel;stroke-opacity:1;paint-order:fill markers stroke"
         d="m 4.6263822,0.34934805 c -2.23e-5,0.3488015 -4.46e-5,0.69733845 -6.69e-5,1.04561085"
         id="path12320"
         sodipodi:nodetypes="cc" /><path
         style="fill:none;fill-opacity:0.200268;stroke:#000000;stroke-width:0.12;stroke-linecap:round;stroke-linejoin:bevel;stroke-opacity:1;paint-order:fill markers stroke"
         d="m 4.6327128,1.4149451 c 0.07222,0.025856 0.1441208,0.051599 0.1844553,0.1180154 0.040334,0.066417 0.049396,0.1733321 0.053915,0.2882649 0.00452,0.1149328 0.00452,0.2378964 -9.34e-4,0.3200413 -0.00545,0.082145 -0.01631,0.1235476 -0.044814,0.158389 -0.028504,0.034841 -0.074774,0.063346 -0.1135491,0.077621 -0.038775,0.014275 -0.070245,0.014275 -0.095381,0.021339 -0.025135,0.00706 -0.043712,0.021221 -0.057022,0.043252 -0.013311,0.022031 -0.021267,0.051722 -0.02522,0.091628 -0.00395,0.039906 -0.00395,0.08994 -0.00395,0.2737791 0,0.1838394 0,0.5014706 0.015063,0.6835418 0.015063,0.1820712 0.04499,0.2285311 0.076739,0.2689738 0.031749,0.040443 0.065255,0.074905 0.1012184,0.1041087 0.035964,0.029204 0.074336,0.053223 0.102122,0.091319 0.027786,0.038097 0.045188,0.090145 0.053836,0.2097356 0.00865,0.1195908 0.00865,0.3067687 -0.00663,0.44314 -0.015278,0.1363712 -0.04578,0.2220426 -0.1073906,0.2924133 -0.06161,0.070371 -0.1544581,0.1256352 -0.6277256,0.1532916 -0.4732674,0.027656 -1.3271041,0.027656 -1.7834333,0.01041 -0.4563292,-0.017246 -0.515179,-0.051921 -0.5533607,-0.101446 -0.038182,-0.049525 -0.055465,-0.1140272 -0.064149,-0.4182415 -0.00868,-0.3042143 -0.00868,-0.8480695 -0.00159,-1.1486029 0.00709,-0.3005335 0.021321,-0.3576554 0.054156,-0.4011464 0.032835,-0.043491 0.084143,-0.073113 0.2696079,-0.087901 0.1854654,-0.014787 0.5048942,-0.014787 0.6693917,-0.019699 0.1644974,-0.00491 0.1743184,-0.014733 0.1792302,-0.310726 0.00491,-0.2959928 0.00491,-0.8783962 0.012822,-1.1924974 0.00791,-0.3141012 0.023784,-0.359775 0.044792,-0.39001172 0.021007,-0.0302367 0.047002,-0.0448299 0.074324,-0.0433936 0.027322,0.001436 0.055746,0.0186647 0.083859,0.035705"
         id="path12324" /><path
         style="fill:none;fill-opacity:0.200268;stroke:#000000;stroke-width:0.12;stroke-linecap:round;stroke-linejoin:bevel;stroke-opacity:1;paint-order:fill markers stroke"
         d="m 1.7260324,4.6352298 c -0.3037634,0 -0.6077914,0 -0.76580062,0 -0.15800921,0 -0.16999911,0 -0.15294601,-0.048432 0.0170531,-0.048432 0.0634658,-0.1454052 0.0866995,-0.3070871 0.0232337,-0.161682 0.0232337,-0.388214 -0.003703,-0.5482709 -0.026937,-0.160057 -0.0809892,-0.2536781 -0.10149724,-0.3024173 -0.0205081,-0.048739 -0.007472,-0.052232 0.14903756,-0.053955 0.15650992,-0.00172 0.45639692,-0.00172 0.75602522,-0.00172"
         id="path12328" /><path
         style="fill:none;fill-opacity:0.200268;stroke:#000000;stroke-width:0.12;stroke-linecap:round;stroke-linejoin:bevel;stroke-opacity:1;paint-order:fill markers stroke"
         d="m 3.1227037,0.98104519 c 0,0 0.2019653,0.24225801 0.6904232,0.36053651 0.6273638,0.1519142 0.8127499,0.069736 0.8127499,0.069736"
         id="path12332"
         sodipodi:nodetypes="csc" /><path
         style="fill:none;fill-opacity:0.200268;stroke:#000000;stroke-width:0.12;stroke-linecap:round;stroke-linejoin:bevel;stroke-opacity:1;paint-order:fill markers stroke"
         d="m 2.5003775,3.2873419 c 0,0 0.1306237,0.4199963 0.7286333,0.8644929 C 3.7200082,4.5167899 4.2958163,4.48316 4.2958163,4.48316"
         id="path13818"
         sodipodi:nodetypes="csc" /></g><g
       id="g13826"
       transform="translate(-0.00353402,0.02981376)"><path
         style="fill:#000000;fill-opacity:0.200268;stroke:none;stroke-width:0.12;stroke-linecap:round;stroke-linejoin:bevel;stroke-opacity:1;paint-order:fill markers stroke"
         d="M 1.7386536,3.3746901 0.78366618,3.3807888 0.92095578,3.869312 0.80542842,4.6147458 1.7372891,4.651744 Z"
         id="path13820" /><path
         style="fill:#000000;fill-opacity:0.200268;stroke:none;stroke-width:0.12;stroke-linecap:round;stroke-linejoin:bevel;stroke-opacity:1;paint-order:fill markers stroke"
         d="M 3.170915,0.36337701 3.2809316,0.24329176 3.7818124,0.22375861 H 4.3111542 L 4.6077089,0.35612759 4.6370086,1.4170596 4.0481279,1.4095417 3.4494132,1.2013894 3.1094292,0.95816477 Z"
         id="path13822" /></g></g></svg>
