<?xml version="1.0" encoding="UTF-8" standalone="no"?>
<!-- Created with Inkscape (http://www.inkscape.org/) -->

<svg
   width="20"
   height="20"
   viewBox="0 0 5.291666 5.291666"
   version="1.1"
   id="svg5"
   xml:space="preserve"
   xmlns="http://www.w3.org/2000/svg"
   xmlns:svg="http://www.w3.org/2000/svg"><defs
     id="defs2" /><g
     id="layer1"><g
       id="g6529"><g
         id="g4915"
         style="stroke-width:0.12;stroke-dasharray:none"
         transform="translate(-0.29566872,-0.13789653)"><path
           id="path4893"
           style="fill:none;stroke:#000000;stroke-width:0.12;stroke-linecap:round;stroke-linejoin:bevel;stroke-dasharray:none;stroke-dashoffset:0;paint-order:fill markers stroke"
           d="m 2.756114,1.2004516 c 0.1232064,9.72e-5 0.2461476,1.942e-4 0.3688244,2.91e-4 M 3.7591857,2.7045789 A 0.81755346,0.19959618 0 0 1 2.9416323,2.9041751 0.81755346,0.19959618 0 0 1 2.1240788,2.7045789 0.81755346,0.19959618 0 0 1 2.9416323,2.5049827 0.81755346,0.19959618 0 0 1 3.7591857,2.7045789 Z M 2.2029138,1.2173917 c 5.54e-4,0.088816 0.00111,0.1773658 0.00233,0.2257791 0.00122,0.048413 0.00305,0.056648 0.00782,0.064521 0.00477,0.00787 0.012293,0.015434 0.033633,0.026975 0.02134,0.011541 0.056445,0.027188 0.125768,0.043868 0.069323,0.016681 0.1728785,0.034485 0.2682578,0.045661 0.095379,0.011177 0.1826005,0.015763 0.2704846,0.016623 0.087884,8.601e-4 0.1764483,-0.00198 0.2647619,-0.00994 0.088314,-0.00796 0.1764068,-0.021002 0.2573256,-0.040611 0.080919,-0.019608 0.1547272,-0.045757 0.1938394,-0.062027 0.039112,-0.01627 0.043712,-0.022762 0.046784,-0.030578 0.00307,-0.00782 0.00462,-0.017116 0.00515,-0.065889 C 3.6795955,1.3830027 3.6790786,1.29471 3.67856,1.2061499 m -3.64e-5,-0.00294 A 0.73715264,0.14899494 0 0 1 2.941371,1.3522021 0.73715264,0.14899494 0 0 1 2.2042183,1.2032071 0.73715264,0.14899494 0 0 1 2.941371,1.0542122 0.73715264,0.14899494 0 0 1 3.6785236,1.2032071 Z M 2.3857231,1.5895857 c -2.1e-5,0.062439 -4.2e-5,0.1246134 -7.984e-4,0.1615146 -7.564e-4,0.036901 -0.00222,0.048565 -0.0057,0.065171 -0.00348,0.016606 -0.00896,0.038198 -0.025417,0.063317 -0.016458,0.025119 -0.043935,0.053944 -0.068853,0.07708 -0.024918,0.023136 -0.047319,0.040615 -0.072747,0.069682 -0.025428,0.029067 -0.053808,0.069639 -0.071279,0.1085055 -0.017471,0.038866 -0.024033,0.075867 -0.02737,0.1058198 -0.00334,0.029953 -0.00349,0.052806 -0.00376,0.3747191 -2.733e-4,0.3219129 -6.733e-4,0.9428587 -2.948e-4,1.2601942 3.785e-4,0.3173355 0.00151,0.3310283 0.00848,0.3506618 0.00696,0.019634 0.019626,0.045172 0.039953,0.070857 0.020327,0.025685 0.0482,0.051578 0.1116703,0.080713 0.06347,0.029136 0.1624895,0.061663 0.2523921,0.084799 0.089903,0.023135 0.1706989,0.03693 0.2402536,0.044055 0.069555,0.00712 0.1278986,0.00763 0.1935406,0.00544 0.065642,-0.00218 0.1385997,-0.00704 0.2203753,-0.018582 0.081776,-0.011543 0.1724073,-0.029749 0.2507231,-0.051252 0.078316,-0.021503 0.14437,-0.046286 0.1900051,-0.067731 0.045635,-0.021445 0.070944,-0.039569 0.090473,-0.060261 0.019529,-0.020692 0.033376,-0.044068 0.043497,-0.067598 0.010121,-0.02353 0.016517,-0.047316 0.019705,-0.069297 0.00319,-0.021981 0.00312,-0.042243 0.00306,-0.3661532 -5.17e-5,-0.3239102 -8.26e-5,-0.9514434 -7.933e-4,-1.2691201 -7.107e-4,-0.3176767 -0.00216,-0.3255256 -0.00827,-0.3453933 -0.00611,-0.019868 -0.016938,-0.051776 -0.034237,-0.084822 -0.017299,-0.033046 -0.041172,-0.067214 -0.07062,-0.098544 -0.029448,-0.03133 -0.064547,-0.059751 -0.089577,-0.082575 -0.02503,-0.022824 -0.039944,-0.040097 -0.050261,-0.056874 -0.010317,-0.016777 -0.015902,-0.033091 -0.019936,-0.05131 -0.00403,-0.018219 -0.00644,-0.038319 -0.00817,-0.076393 -0.00173,-0.038074 -0.00275,-0.094099 -0.00377,-0.1503937" /></g><path
         id="path4926"
         style="fill:#000000;stroke:none;stroke-width:0.12;stroke-linecap:round;stroke-linejoin:bevel;stroke-dasharray:none;stroke-dashoffset:0;paint-order:fill markers stroke;fill-opacity:0.20026819"
         d="M 2.6458333 2.407605 A 0.80209816 0.17441359 0 0 0 1.8510498 2.5590169 L 1.8236613 2.5590169 L 1.8236613 4.0509155 L 1.8510498 4.0509155 A 0.80210314 0.34882502 0.097555798 0 0 2.6484172 4.3537394 A 0.80210314 0.34882502 0.097555798 0 0 3.4411336 4.0509155 L 3.4814412 4.0509155 L 3.4814412 2.5590169 L 3.4406169 2.5590169 A 0.80209816 0.17441359 0 0 0 2.6458333 2.407605 z " /><path
         id="path6518"
         style="fill:#000000;fill-opacity:0.200268;stroke:none;stroke-width:0.12;stroke-linecap:round;stroke-linejoin:bevel;stroke-dasharray:none;stroke-dashoffset:0;paint-order:fill markers stroke"
         d="M 2.6267131 0.91002197 A 0.74193716 0.16800183 0 0 0 1.8846395 1.0779704 A 0.74193716 0.16800183 0 0 0 1.9115112 1.1224121 L 1.9115112 1.2743408 A 0.7384544 0.20843644 0 0 0 1.9001424 1.3105143 A 0.7384544 0.20843644 0 0 0 1.9115112 1.3466878 L 1.9115112 1.3875122 L 1.9523356 1.3875122 A 0.7384544 0.20843644 0 0 0 2.6385986 1.5187703 A 0.7384544 0.20843644 0 0 0 3.3243449 1.3875122 L 3.4178792 1.3875122 L 3.4178792 1.0495483 L 3.3579346 1.0495483 A 0.74193716 0.16800183 0 0 1 3.3574178 1.0490316 A 0.74193716 0.16800183 0 0 0 2.6267131 0.91002197 z " /></g></g><g
     id="layer2" /></svg>
