<?xml version="1.0" encoding="UTF-8" standalone="no"?>
<!-- Created with Inkscape (http://www.inkscape.org/) -->

<svg
   width="20"
   height="20"
   viewBox="0 0 5.291666 5.291666"
   version="1.1"
   id="svg5"
   xml:space="preserve"
   xmlns="http://www.w3.org/2000/svg"
   xmlns:svg="http://www.w3.org/2000/svg"><defs
     id="defs2" /><g
     id="layer1"><g
       id="g9821"
       transform="translate(0.28678737)"><path
         style="fill:none;fill-opacity:0.200268;stroke:#000000;stroke-width:0.12;stroke-linecap:round;stroke-linejoin:bevel;stroke-dasharray:none;stroke-dashoffset:0;stroke-opacity:1;paint-order:fill markers stroke"
         d="m 2.2323088,3.6030908 -0.00291,1.348238 c 0,0 0.00922,0.1364097 0.1067441,0.1369748 0.097523,5.556e-4 0.1143018,-0.1192109 0.1143018,-0.1192109 L 2.4531947,4.55686 c 0,0 -0.014469,-0.123103 0.1037889,-0.1250408 0.1182582,-0.00193 0.1110234,0.1172893 0.1110234,0.1172893 l -0.00593,0.6538846"
         id="path6651" /><path
         style="fill:none;fill-opacity:0.200268;stroke:#000000;stroke-width:0.12;stroke-linecap:round;stroke-linejoin:bevel;stroke-dasharray:none;stroke-dashoffset:0;stroke-opacity:1;paint-order:fill markers stroke"
         d="m 2.1522103,3.8567574 c 0.00554,0.1641953 0.011077,0.328117 0.032785,0.386044 0.021708,0.057927 0.059625,0.0101 0.080625,-0.073619 0.021,-0.083719 0.025064,-0.2035467 0.029136,-0.3236321"
         id="path6655" /><ellipse
         style="fill:none;fill-opacity:0.200268;stroke:#000000;stroke-width:0.12;stroke-linecap:round;stroke-linejoin:bevel;stroke-dasharray:none;stroke-dashoffset:0;stroke-opacity:1;paint-order:fill markers stroke"
         id="path9625"
         cx="2.359046"
         cy="0.2688942"
         rx="0.97517967"
         ry="0.12713645" /><ellipse
         style="fill:none;fill-opacity:0.200268;stroke:#000000;stroke-width:0.12;stroke-linecap:round;stroke-linejoin:bevel;stroke-dasharray:none;stroke-dashoffset:0;stroke-opacity:1;paint-order:fill markers stroke"
         id="path9625-8"
         cx="2.3592999"
         cy="1.1188653"
         rx="0.95206767"
         ry="0.12713645" /><ellipse
         style="fill:none;fill-opacity:0.200268;stroke:#000000;stroke-width:0.12;stroke-linecap:round;stroke-linejoin:bevel;stroke-dasharray:none;stroke-dashoffset:0;stroke-opacity:1;paint-order:fill markers stroke"
         id="path9625-6-0"
         cx="2.3845928"
         cy="3.2829714"
         rx="0.40452653"
         ry="0.081515856" /><path
         style="fill:none;fill-opacity:0.200268;stroke:#000000;stroke-width:0.12;stroke-linecap:round;stroke-linejoin:bevel;stroke-dasharray:none;stroke-dashoffset:0;stroke-opacity:1;paint-order:fill markers stroke"
         d="M 1.9785775,3.4835728 C 1.9776099,3.4191785 1.9766382,3.3545156 1.9756625,3.2895843"
         id="path9708" /><path
         style="fill:none;fill-opacity:0.200268;stroke:#000000;stroke-width:0.12;stroke-linecap:round;stroke-linejoin:bevel;stroke-dasharray:none;stroke-dashoffset:0;stroke-opacity:1;paint-order:fill markers stroke"
         d="M 2.7919122,3.4795881 C 2.7909446,3.4151938 2.7899729,3.3505309 2.7889972,3.2855996"
         id="path9708-2" /><path
         style="fill:none;fill-opacity:0.200268;stroke:#000000;stroke-width:0.12;stroke-linecap:round;stroke-linejoin:bevel;stroke-dasharray:none;stroke-dashoffset:0;stroke-opacity:1;paint-order:fill markers stroke"
         d="m 1.9781093,3.4889181 c 0.1275439,0.1055169 0.675316,0.1129778 0.8114248,-0.00344"
         id="path9744" /><path
         style="fill:none;fill-opacity:0.200268;stroke:#000000;stroke-width:0.12;stroke-linecap:round;stroke-linejoin:bevel;stroke-dasharray:none;stroke-dashoffset:0;stroke-opacity:1;paint-order:fill markers stroke"
         d="M 2.113017,3.2759467 C 2.1132042,3.2015967 2.113392,3.1269837 2.109827,3.0837913 2.106267,3.0405993 2.09876,3.0287813 2.009906,2.9682443 1.9210559,2.9077068 1.7507489,2.7985644 1.6455119,2.7241178 1.5402749,2.6496711 1.5001551,2.6098578 1.4713464,2.5642312 1.4425377,2.5186046 1.4252002,2.4671137 1.414354,2.4096869 1.4035079,2.3522601 1.3992417,2.2889384 1.3953175,1.9321366 1.3913934,1.5753347 1.3878292,0.92509731 1.3842634,0.27458093"
         id="path9746" /><path
         style="fill:none;fill-opacity:0.200268;stroke:#000000;stroke-width:0.12;stroke-linecap:round;stroke-linejoin:bevel;stroke-dasharray:none;stroke-dashoffset:0;stroke-opacity:1;paint-order:fill markers stroke"
         d="m 2.6051944,3.2771157 c -1.872e-4,-0.07435 -3.75e-4,-0.148963 0.00319,-0.1921554 0.00356,-0.043192 0.011067,-0.05501 0.099921,-0.115547 0.088854,-0.060538 0.2591613,-0.16968 0.3643983,-0.2441265 0.1052369,-0.074447 0.1453571,-0.1142604 0.1741657,-0.1598871 0.028809,-0.045627 0.046146,-0.097117 0.056992,-0.1545437 0.010846,-0.057426 0.015112,-0.1207488 0.019036,-0.4775506 0.00392,-0.3568019 0.00749,-1.0070391 0.011054,-1.6575555"
         id="path9746-1" /></g><path
       style="fill:#000000;fill-opacity:0.200268;stroke:none;stroke-width:0.12;stroke-linecap:round;stroke-linejoin:bevel;stroke-dasharray:none;stroke-dashoffset:0;stroke-opacity:1;paint-order:fill markers stroke"
       d="M 2.2759494,3.512287 2.2758581,3.3357609 2.4003364,3.2345089 V 3.0425214 L 1.7539419,2.5796642 1.6805977,2.3010523 1.670412,1.1336551 2.1108651,1.0140298 l 0.5829507,-0.026652 0.8527699,0.090907 0.074669,0.1608021 -0.017322,1.1178274 -0.086168,0.2634589 -0.6137248,0.4366164 0.020257,0.2474495 0.169492,0.037089 -0.019092,0.1478415 -0.2867193,0.098637 z"
       id="path9809" /></g><g
     id="layer2" /><g
     id="layer1-5"
     transform="translate(15.291666)"><g
       id="g6529"><g
         id="g4915"
         style="stroke-width:0.12;stroke-dasharray:none"
         transform="translate(-0.29566872,-0.13789653)"><path
           id="path4893"
           style="fill:none;stroke:#000000;stroke-width:0.12;stroke-linecap:round;stroke-linejoin:bevel;stroke-dasharray:none;stroke-dashoffset:0;paint-order:fill markers stroke"
           d="m 2.756114,1.2004516 c 0.1232064,9.72e-5 0.2461476,1.942e-4 0.3688244,2.91e-4 M 3.7591857,2.7045789 A 0.81755346,0.19959618 0 0 1 2.9416323,2.9041751 0.81755346,0.19959618 0 0 1 2.1240788,2.7045789 0.81755346,0.19959618 0 0 1 2.9416323,2.5049827 0.81755346,0.19959618 0 0 1 3.7591857,2.7045789 Z M 2.2029138,1.2173917 c 5.54e-4,0.088816 0.00111,0.1773658 0.00233,0.2257791 0.00122,0.048413 0.00305,0.056648 0.00782,0.064521 0.00477,0.00787 0.012293,0.015434 0.033633,0.026975 0.02134,0.011541 0.056445,0.027188 0.125768,0.043868 0.069323,0.016681 0.1728785,0.034485 0.2682578,0.045661 0.095379,0.011177 0.1826005,0.015763 0.2704846,0.016623 0.087884,8.601e-4 0.1764483,-0.00198 0.2647619,-0.00994 0.088314,-0.00796 0.1764068,-0.021002 0.2573256,-0.040611 0.080919,-0.019608 0.1547272,-0.045757 0.1938394,-0.062027 0.039112,-0.01627 0.043712,-0.022762 0.046784,-0.030578 0.00307,-0.00782 0.00462,-0.017116 0.00515,-0.065889 C 3.6795955,1.3830027 3.6790786,1.29471 3.67856,1.2061499 m -3.64e-5,-0.00294 A 0.73715264,0.14899494 0 0 1 2.941371,1.3522021 0.73715264,0.14899494 0 0 1 2.2042183,1.2032071 0.73715264,0.14899494 0 0 1 2.941371,1.0542122 0.73715264,0.14899494 0 0 1 3.6785236,1.2032071 Z M 2.3857231,1.5895857 c -2.1e-5,0.062439 -4.2e-5,0.1246134 -7.984e-4,0.1615146 -7.564e-4,0.036901 -0.00222,0.048565 -0.0057,0.065171 -0.00348,0.016606 -0.00896,0.038198 -0.025417,0.063317 -0.016458,0.025119 -0.043935,0.053944 -0.068853,0.07708 -0.024918,0.023136 -0.047319,0.040615 -0.072747,0.069682 -0.025428,0.029067 -0.053808,0.069639 -0.071279,0.1085055 -0.017471,0.038866 -0.024033,0.075867 -0.02737,0.1058198 -0.00334,0.029953 -0.00349,0.052806 -0.00376,0.3747191 -2.733e-4,0.3219129 -6.733e-4,0.9428587 -2.948e-4,1.2601942 3.785e-4,0.3173355 0.00151,0.3310283 0.00848,0.3506618 0.00696,0.019634 0.019626,0.045172 0.039953,0.070857 0.020327,0.025685 0.0482,0.051578 0.1116703,0.080713 0.06347,0.029136 0.1624895,0.061663 0.2523921,0.084799 0.089903,0.023135 0.1706989,0.03693 0.2402536,0.044055 0.069555,0.00712 0.1278986,0.00763 0.1935406,0.00544 0.065642,-0.00218 0.1385997,-0.00704 0.2203753,-0.018582 0.081776,-0.011543 0.1724073,-0.029749 0.2507231,-0.051252 0.078316,-0.021503 0.14437,-0.046286 0.1900051,-0.067731 0.045635,-0.021445 0.070944,-0.039569 0.090473,-0.060261 0.019529,-0.020692 0.033376,-0.044068 0.043497,-0.067598 0.010121,-0.02353 0.016517,-0.047316 0.019705,-0.069297 0.00319,-0.021981 0.00312,-0.042243 0.00306,-0.3661532 -5.17e-5,-0.3239102 -8.26e-5,-0.9514434 -7.933e-4,-1.2691201 -7.107e-4,-0.3176767 -0.00216,-0.3255256 -0.00827,-0.3453933 -0.00611,-0.019868 -0.016938,-0.051776 -0.034237,-0.084822 -0.017299,-0.033046 -0.041172,-0.067214 -0.07062,-0.098544 -0.029448,-0.03133 -0.064547,-0.059751 -0.089577,-0.082575 -0.02503,-0.022824 -0.039944,-0.040097 -0.050261,-0.056874 -0.010317,-0.016777 -0.015902,-0.033091 -0.019936,-0.05131 -0.00403,-0.018219 -0.00644,-0.038319 -0.00817,-0.076393 -0.00173,-0.038074 -0.00275,-0.094099 -0.00377,-0.1503937" /></g><path
         id="path4926"
         style="fill:#000000;fill-opacity:0.200268;stroke:none;stroke-width:0.12;stroke-linecap:round;stroke-linejoin:bevel;stroke-dasharray:none;stroke-dashoffset:0;paint-order:fill markers stroke"
         d="M 2.6458333,2.407605 A 0.80209816,0.17441359 0 0 0 1.8510498,2.5590169 h -0.027389 v 1.4918986 h 0.027389 A 0.80210314,0.34882502 0.0975558 0 0 2.6484172,4.3537394 0.80210314,0.34882502 0.0975558 0 0 3.4411336,4.0509155 h 0.040308 V 2.5590169 H 3.4406169 A 0.80209816,0.17441359 0 0 0 2.6458333,2.407605 Z" /><path
         id="path6518"
         style="fill:#000000;fill-opacity:0.200268;stroke:none;stroke-width:0.12;stroke-linecap:round;stroke-linejoin:bevel;stroke-dasharray:none;stroke-dashoffset:0;paint-order:fill markers stroke"
         d="m 2.6267131,0.91002197 a 0.74193716,0.16800183 0 0 0 -0.7420736,0.16794843 0.74193716,0.16800183 0 0 0 0.026872,0.044442 v 0.1519287 a 0.7384544,0.20843644 0 0 0 -0.011369,0.036173 0.7384544,0.20843644 0 0 0 0.011369,0.036174 v 0.040824 h 0.040824 a 0.7384544,0.20843644 0 0 0 0.686263,0.1312581 0.7384544,0.20843644 0 0 0 0.6857463,-0.1312581 h 0.093534 V 1.0495483 H 3.3579346 A 0.74193716,0.16800183 0 0 1 3.3574178,1.0490316 0.74193716,0.16800183 0 0 0 2.6267131,0.91002197 Z" /></g></g></svg>
