<?xml version="1.0" encoding="UTF-8" standalone="no"?>
<!-- Created with Inkscape (http://www.inkscape.org/) -->

<svg
   width="20"
   height="20"
   viewBox="0 0 5.291666 5.291666"
   version="1.1"
   id="svg5"
   xml:space="preserve"
   sodipodi:docname="entwurf-ampulle.svg"
   inkscape:version="1.2.2 (b0a8486541, 2022-12-01)"
   xmlns:inkscape="http://www.inkscape.org/namespaces/inkscape"
   xmlns:sodipodi="http://sodipodi.sourceforge.net/DTD/sodipodi-0.dtd"
   xmlns="http://www.w3.org/2000/svg"
   xmlns:svg="http://www.w3.org/2000/svg"><sodipodi:namedview
     id="namedview10314"
     pagecolor="#ffffff"
     bordercolor="#000000"
     borderopacity="0.25"
     inkscape:showpageshadow="2"
     inkscape:pageopacity="0.0"
     inkscape:pagecheckerboard="0"
     inkscape:deskcolor="#d1d1d1"
     showgrid="false"
     inkscape:zoom="15.39725"
     inkscape:cx="9.417266"
     inkscape:cy="17.633019"
     inkscape:window-width="1920"
     inkscape:window-height="1000"
     inkscape:window-x="0"
     inkscape:window-y="0"
     inkscape:window-maximized="1"
     inkscape:current-layer="svg5" /><defs
     id="defs2" /><g
     id="g10811"><g
       id="g10802"><g
         id="layer1"><path
           id="path1115"
           style="fill:none;stroke:#000000;stroke-width:0.15;stroke-linejoin:bevel;stroke-dasharray:none;stroke-dashoffset:0;paint-order:fill markers stroke"
           d="m 1.1119389,2.316231 c -0.070678,0.012048 -0.14156998,0.024133 -0.21693775,0.024569 -0.0753678,4.363e-4 -0.1552913,-0.010853 -0.23551244,-0.022185 m 0.0104928,0.0023 c -0.0651377,0.08729 -0.1302434,0.1745362 -0.1733745,0.2374715 -0.0431311,0.062935 -0.0642682,0.1015085 -0.0818408,0.1424028 -0.0175726,0.040894 -0.0315775,0.084037 -0.041006,0.1341316 -0.009428,0.050094 -0.0143118,0.107058 -0.0167174,0.1848404 -0.002406,0.077782 -0.002354,0.1763535 -0.001947,0.4904107 4.0739e-4,0.3140571 0.00117,0.8435767 0.002319,1.1134062 0.001149,0.2698294 0.00264,0.2799233 0.004878,0.2885948 0.002238,0.00867 0.005136,0.015893 0.0103747,0.023046 0.005239,0.00715 0.0126758,0.014299 0.0212206,0.020748 0.008545,0.00645 0.0181564,0.012274 0.0553031,0.026535 0.0371467,0.014261 0.10181655,0.037031 0.18090184,0.05136 0.0790853,0.014329 0.17261909,0.020308 0.26904328,0.016341 0.0964242,-0.00397 0.1957901,-0.017832 0.2697653,-0.033932 0.073975,-0.016099 0.1226345,-0.034409 0.152762,-0.04659 0.030128,-0.012181 0.04177,-0.018237 0.051608,-0.0253 0.00984,-0.00706 0.017964,-0.015176 0.022846,-0.025286 0.00488,-0.010109 0.00655,-0.022436 0.00923,-0.3501688 C 1.408027,4.2411929 1.4116986,3.5980376 1.4118197,3.25704 1.4119409,2.9160425 1.4084846,2.8771919 1.3982559,2.8327342 1.3880273,2.7882765 1.3709442,2.7381828 1.3201299,2.6527469 1.2693157,2.5673111 1.1846707,2.4465551 1.0998126,2.325495 M 0.61997513,0.8309902 c 0.086493,0.0202464 0.17267633,0.0404204 0.26030637,0.0379102 0.08763,-0.00251 0.1768363,-0.0275815 0.2658681,-0.0526037 M 0.66422192,2.3255571 C 0.62458053,2.1748285 0.58485693,2.0237873 0.56078771,1.9039507 0.53671849,1.7841142 0.52835909,1.6955114 0.53134043,1.584842 c 0.002981,-0.1106695 0.0173553,-0.2433447 0.032048,-0.3575466 0.0146926,-0.114202 0.0297118,-0.2099084 0.0359576,-0.32545405 0.006246,-0.11554567 0.003679,-0.25097498 0.0114495,-0.35160689 0.007771,-0.10063191 0.0259324,-0.16636947 0.052425,-0.21402816 0.0264926,-0.0476587 0.0612414,-0.0770381 0.0979176,-0.0962116 0.0366761,-0.0191735 0.0751085,-0.0281156 0.12066839,-0.0254145 0.0455599,0.002701 0.0981235,0.0169156 0.13886557,0.0428968 0.040742,0.0259812 0.069747,0.0635189 0.090462,0.11851295 0.020715,0.054994 0.033313,0.12743294 0.038695,0.20799415 0.00538,0.0805612 0.00361,0.16928192 0.00799,0.2720638 0.00439,0.10278188 0.014913,0.21959163 0.028862,0.33939983 0.013949,0.1198082 0.031306,0.2425979 0.041333,0.3365832 0.010027,0.093985 0.012753,0.1591815 0.00176,0.2556752 -0.01099,0.096494 -0.035645,0.2243475 -0.060347,0.319471 -0.024701,0.095124 -0.049433,0.1575799 -0.07411,0.2198993" /></g><ellipse
         style="fill:none;fill-opacity:0.200268;stroke:#000000;stroke-width:0.12;stroke-linecap:round;stroke-linejoin:bevel;stroke-opacity:1;paint-order:fill markers stroke"
         id="path10433"
         cx="0.89063811"
         cy="3.0892653"
         rx="0.50441176"
         ry="0.13498759" /></g><path
       style="fill:#000000;fill-opacity:0.20026802;stroke:none;stroke-width:0.12;stroke-linecap:round;stroke-linejoin:bevel;stroke-opacity:1;paint-order:fill markers stroke"
       d="M 0.87402577,2.9532809 0.49044547,3.0003535 0.34285617,3.14996 0.37224825,4.9293377 0.59319317,5.029297 1.0599066,5.0462891 1.382294,4.9512187 1.4296274,3.0999924 1.2474487,2.9904215 Z"
       id="path10804" /></g></svg>
