<svg width="98mm" height="98mm" viewBox="0 0 98 98" version="1.1" id="svg5" xml:space="preserve" xmlns="http://www.w3.org/2000/svg" xmlns:svg="http://www.w3.org/2000/svg">
  <g id="layer23">
    <path style="fill:#f7e2d1;fill-opacity:1;stroke:none;stroke-width:.600001;stroke-linecap:round;stroke-linejoin:bevel;stroke-opacity:1;paint-order:fill markers stroke" d="m 10.702519,126.83665 c 0.425693,-3.40555 0.851416,-6.81133 1.315848,-11.16536 0.464433,-4.35403 0.967549,-9.6561 1.36425,-14.27135 0.396701,-4.615257 0.686961,-8.543436 0.97723,-12.752327 0.290269,-4.208891 0.580529,-8.698238 0.638597,-12.307213 0.05807,-3.608975 -0.116087,-6.337414 -0.386997,-9.278796 -0.27091,-2.941381 -0.638572,-6.095535 -1.132023,-9.723889 C 12.985972,53.709361 12.366752,49.607026 11.970039,45.86256 11.573325,42.118093 11.39917,38.731732 11.549095,30.744351 11.69902,22.75697 12.173025,10.169427 12.278117,2.6290537 12.38321,-4.91132 12.119336,-7.4036281 24.6166,-8.908116 c 12.497264,-1.504488 37.753951,-2.020678 50.291441,-0.7084438 12.537489,1.3122346 12.354579,4.4524846 12.353648,11.7285064 -9.31e-4,7.2760218 0.180102,18.6871364 0.319002,25.9215724 0.1389,7.234435 0.235655,10.291837 0.187264,13.242883 -0.04839,2.951045 -0.241898,5.795588 -0.338644,7.430763 -0.09675,1.635175 -0.09675,2.060889 -0.483797,3.976639 -0.38705,1.915751 -1.161074,5.321463 -2.060913,8.44666 -0.899839,3.125197 -1.925425,5.969738 -2.767198,8.649896 -0.841774,2.680158 -1.499694,5.19574 -1.896377,7.227642 -0.396682,2.031901 -0.532136,3.579951 -0.454701,5.505428 0.07744,1.925476 0.367693,4.228201 0.861166,6.908356 0.493474,2.680155 1.190097,5.737556 1.760947,8.649907 0.57085,2.912347 1.015918,5.679497 1.460989,9.017577 0.445072,3.33809 0.890137,7.24692 1.112657,10.88493 0.22252,3.63801 0.22252,7.00502 0.22252,10.37183" id="path31703" fill="transparent" stroke="transparent"/>
    <path style="fill:none;fill-opacity:1;stroke:var(--color);stroke-width:.6;stroke-linecap:round;stroke-linejoin:miter;stroke-dasharray:none;stroke-dashoffset:0;stroke-opacity:1;paint-order:stroke fill markers" d="m 29.831551,69.307775 c 6.291564,4.120139 12.582821,8.240077 18.873772,12.359815" id="path34442" fill="transparent" stroke="transparent"/>
    <path style="fill:none;fill-opacity:1;stroke:#bfaa9e;stroke-width:.600001;stroke-linecap:round;stroke-linejoin:bevel;stroke-opacity:1;paint-order:fill markers stroke" d="M 12.616794,-6.8257897 C 12.055139,10.031107 11.493493,26.887749 11.941832,38.900967 c 0.448339,12.013217 1.906534,19.182674 2.595106,26.372577 0.688572,7.189903 0.607561,14.399867 -0.222843,25.498706 -0.830404,11.09884 -2.410115,26.08584 -3.989832,41.0729" id="path3334" fill="transparent" stroke="transparent"/>
    <path style="fill:none;fill-opacity:1;stroke:#bfaa9e;stroke-width:.600001;stroke-linecap:round;stroke-linejoin:bevel;stroke-opacity:1;paint-order:fill markers stroke" d="m 87.227466,-5.0988948 c 0.451609,18.4281108 0.903212,36.8559488 0.258083,48.7027698 -0.645129,11.846821 -2.386861,17.112523 -4.047632,22.196104 -1.66077,5.083581 -3.240482,9.984735 -3.665726,13.954448 -0.425245,3.969713 0.303854,7.007619 1.397529,12.334261 1.093675,5.326642 2.55187,12.941662 3.280952,20.050542 0.729082,7.10889 0.729082,13.71127 0.729082,20.31351" id="path12416" fill="transparent" stroke="transparent"/>
    <path style="fill:#ece7e1;fill-opacity:1;stroke:none;stroke-width:.600001;stroke-linecap:round;stroke-linejoin:bevel;stroke-opacity:1;paint-order:fill markers stroke" d="m 73.454464,65.615888 -2.94629,-1.255792 -5.26467,0.0483 -4.153774,0.772795 -0.965996,3.525882 13.04093,-0.0483" id="path29133" fill="transparent" stroke="transparent"/>
    <path style="fill:#ece7e1;fill-opacity:1;stroke:none;stroke-width:.600001;stroke-linecap:round;stroke-linejoin:bevel;stroke-opacity:1;paint-order:fill markers stroke" d="m 59.978835,56.100842 1.352394,3.670778 3.719075,5.409571 -7.921153,2.946283 -2.801385,-7.872857" id="path29135" fill="transparent" stroke="transparent"/>
    <path style="fill:#ece7e1;fill-opacity:1;stroke:none;stroke-width:.600001;stroke-linecap:round;stroke-linejoin:bevel;stroke-opacity:1;paint-order:fill markers stroke" d="m 36.022166,51.753864 -0.965996,2.656486 1.110895,7.486459 0.338098,1.835391 -1.207495,1.159192 -4.105476,1.207495 -6.134067,-0.676198 2.173488,1.159195 5.216371,0.676196 h 4.250378 l 4.540176,-0.579596 -2.414987,0.869394 -7.534759,1.014296 10.481042,3.47758 6.423867,-4.829974 -2.608186,-12.79943" id="path29137" fill="transparent" stroke="transparent"/>
    <path style="fill:#ece7e1;fill-opacity:1;stroke:none;stroke-width:.600001;stroke-linecap:round;stroke-linejoin:bevel;stroke-opacity:1;paint-order:fill markers stroke" d="m 27.66631,81.796301 1.110895,7.48646 8.114356,6.423863 L 42.49433,92.808641 31.820088,80.10581" id="path29139" fill="transparent" stroke="transparent"/>
    <path style="fill:#f4e6d9;fill-opacity:1;stroke:none;stroke-width:.600001;stroke-linecap:round;stroke-linejoin:bevel;stroke-opacity:1;paint-order:fill markers stroke" d="m 27.279913,81.796301 -1.014294,0.289799 -1.207494,2.318387 -0.869395,2.221788 -1.400693,6.037467 -0.193199,5.40957 0.338099,2.463288 1.400692,3.13948 2.463287,22.21788 9.659948,0.2898 0.772795,-15.06952 2.125188,-12.36473 0.0483,-2.946286 -1.88369,-2.318388 -5.361271,-3.332681 -3.042883,-2.704785 -0.917694,-3.139482 -0.241501,-2.125189" id="path30990" fill="transparent" stroke="transparent"/>
    <path style="fill:#f4e6d9;fill-opacity:1;stroke:none;stroke-width:.600001;stroke-linecap:round;stroke-linejoin:bevel;stroke-opacity:1;paint-order:fill markers stroke" d="m 52.582489,59.541096 -7.872856,6.713664 -4.298678,2.270088 -6.617065,-0.4347 -4.878274,0.0966 -2.656484,1.255794 -0.241499,2.221788 1.497293,7.100062 1.787091,4.202076 2.608185,3.091185 5.023173,4.105476 2.173489,2.897984 2.318385,5.554472 1.304094,7.341555 1.448993,9.61165 1.207492,12.75112 20.768886,-0.483 -0.0483,-10.43273 1.2558,-17.774302 1.25579,-9.418449 1.30409,-3.767379 2.94628,-2.946283 1.7871,-2.801387 0.62789,-2.704785 0.5313,-7.43816 -0.5796,-4.540173 -0.77279,-0.579599 -3.18779,0.676198 -3.71908,0.0483 -4.685071,-0.724498 -2.511586,-1.207492 -1.545593,-1.352394 -1.883687,-3.52588" id="path30992" fill="transparent" stroke="transparent"/>
    <path style="fill:#f4e6d9;fill-opacity:1;stroke:none;stroke-width:.600001;stroke-linecap:round;stroke-linejoin:bevel;stroke-opacity:1;paint-order:fill markers stroke" d="m 33.100014,-1.2007824 -1.747736,29.6213634 -0.945211,7.073672 -1.41307,4.162198 -3.622481,3.091183 -2.511586,2.463287 -0.821096,2.849684 0.289798,3.236082 0.772796,4.346976 1.400693,5.023173 0.02471,3.403462 0.627896,1.159192 2.270088,0.676196 2.19708,0.508821 3.187782,-0.627899 3.091186,-1.207492 0.434697,-0.965996 -0.434697,-3.236082 -0.917697,-4.829974 0.531299,-5.216371 22.169578,2.318387 2.704785,5.023173 1.352394,3.139482 3.187778,4.250378 h 3.62249 l 2.51158,-0.772795 3.04289,-4.829974 1.40069,-4.636775 -0.0483,-5.554471 0.72449,-4.250376 -0.57959,-4.298677 -2.41499,-3.71908 -3.738173,-4.030222 -2.21839,-8.312746 -3.408831,-27.3483788" id="path30994" fill="transparent" stroke="transparent"/>
    <path style="fill:none;fill-opacity:1;stroke:#dbd6d0;stroke-width:.600001;stroke-linecap:round;stroke-linejoin:bevel;stroke-opacity:1;paint-order:fill markers stroke" d="m 25.271057,65.374455 c 1.580055,0.405142 3.159798,0.810205 4.921768,0.729121 1.76197,-0.08108 3.70623,-0.64816 4.840303,-1.154443 1.134074,-0.506282 1.458117,-0.951842 1.336651,-2.247931 -0.121466,-1.296089 -0.68854,-3.442873 -1.053129,-5.569485 -0.364588,-2.126612 -0.526611,-4.232894 0.486092,-5.97484 1.012702,-1.741945 3.199993,-3.119128 5.387434,-3.90899 2.187441,-0.789862 4.374733,-0.99239 5.893696,-0.344107 1.518962,0.648283 2.369574,2.146982 4.253163,2.673385 1.883589,0.526402 4.799978,0.08084 6.399881,1.377233 1.599903,1.296389 1.88344,4.334295 2.855707,6.926718 0.972266,2.592422 2.632989,4.739207 4.293521,6.885745" id="path18926" fill="transparent" stroke="transparent"/>
    <path style="fill:none;fill-opacity:1;stroke:#dbd6d0;stroke-width:.600001;stroke-linecap:round;stroke-linejoin:bevel;stroke-opacity:1;paint-order:fill markers stroke" d="m 73.635484,65.374455 c -0.855736,-0.306604 -1.711776,-0.613316 -3.818178,-0.653889 -2.106401,-0.04057 -5.462931,0.185129 -8.819764,0.410851" id="path18930" fill="transparent" stroke="transparent"/>
    <path style="fill:none;fill-opacity:1;stroke:#dbd6d0;stroke-width:.600001;stroke-linecap:round;stroke-linejoin:bevel;stroke-opacity:1;paint-order:fill markers stroke" d="m 32.19762,67.926346 c 2.309114,-0.04051 4.617969,-0.08102 6.177382,-0.324081 1.559413,-0.243065 2.369521,-0.688625 3.179554,-1.134144" id="path18938" fill="transparent" stroke="transparent"/>
    <path style="fill:none;fill-opacity:1;stroke:#d9c4b5;stroke-width:.600001;stroke-linecap:round;stroke-linejoin:bevel;stroke-opacity:1;paint-order:fill markers stroke" d="M 44.227967,126.2553 C 43.296355,117.42523 42.364711,108.59487 41.210322,102.53918 40.055933,96.483483 38.678749,93.202546 36.369955,90.751823 34.06116,88.301101 30.820725,86.680884 28.694012,83.501173 26.5673,80.321462 25.554666,75.58233 25.210308,72.908807 c -0.344357,-2.673523 -0.02031,-3.281104 0.708898,-3.828018 0.729213,-0.546914 1.863365,-1.03298 4.881208,-1.012678 3.017843,0.0203 7.918998,0.546872 12.819959,1.073421" id="path14062" fill="transparent" stroke="transparent"/>
    <path style="fill:none;fill-opacity:1;stroke:#d9c4b5;stroke-width:.600001;stroke-linecap:round;stroke-linejoin:bevel;stroke-opacity:1;paint-order:fill markers stroke" d="m 65.007654,126.49833 c 0.121514,-5.54909 0.243034,-11.09844 0.668348,-17.55926 0.425313,-6.46083 1.154409,-13.832817 1.883541,-17.883566 0.729133,-4.050748 1.458227,-4.779841 2.572171,-5.833023 1.113944,-1.053182 2.61264,-2.430362 3.443008,-4.496078 0.830367,-2.065716 0.992391,-4.820084 1.032909,-7.311224 0.04052,-2.491141 -0.04049,-4.718942 -0.242932,-6.075889 -0.202438,-1.356947 -0.526483,-1.843014 -1.336664,-1.782427 -0.810181,0.06059 -2.10636,0.668169 -4.313884,0.728973 -2.207523,0.06081 -5.326443,-0.42526 -7.351778,-1.113769 -2.025336,-0.688509 -2.95696,-1.579628 -3.888679,-3.118855 -0.931719,-1.539227 -1.863343,-3.72652 -2.795122,-5.914175" id="path14066" fill="transparent" stroke="transparent"/>
    <path style="fill:none;fill-opacity:1;stroke:#d9c4b5;stroke-width:.600001;stroke-linecap:round;stroke-linejoin:bevel;stroke-opacity:1;paint-order:fill markers stroke" d="m 39.48874,68.41242 c 2.025448,-0.810179 4.050759,-1.620304 5.184853,-3.078406 1.134094,-1.458103 1.377126,-3.564382 1.62019,-5.670936" id="path14070" fill="transparent" stroke="transparent"/>
    <path style="fill:none;fill-opacity:1;stroke:#d9c4b5;stroke-width:.600001;stroke-linecap:round;stroke-linejoin:bevel;stroke-opacity:1;paint-order:fill markers stroke" d="m 62.09121,79.713655 c 1.984892,-1.093716 3.9697,-2.187385 5.0228,-3.09865 1.053101,-0.911265 1.174618,-1.640362 1.296174,-2.36969" id="path14074" fill="transparent" stroke="transparent"/>
    <path style="fill:none;fill-opacity:1;stroke:#d9c4b5;stroke-width:.600001;stroke-linecap:round;stroke-linejoin:bevel;stroke-opacity:1;paint-order:fill markers stroke" d="m 33.412806,77.526321 c 1.134357,1.944612 2.268531,3.888909 3.402765,5.367364 1.134233,1.478455 2.268384,2.491089 2.936628,3.544289 0.668244,1.053199 0.87077,2.146847 1.073245,3.240212" id="path14078" fill="transparent" stroke="transparent"/>
    <path style="fill:none;fill-opacity:1;stroke:#d9c4b5;stroke-width:.600001;stroke-linecap:round;stroke-linejoin:bevel;stroke-opacity:1;paint-order:fill markers stroke" d="m 42.04063,93.202227 c 1.78241,4.17246 3.564683,8.344603 4.476009,11.483833 0.911325,3.13922 0.95183,5.24551 0.992331,7.35156" id="path14082" fill="transparent" stroke="transparent"/>
    <path style="fill:none;fill-opacity:1;stroke:#d9c4b5;stroke-width:.600001;stroke-linecap:round;stroke-linejoin:bevel;stroke-opacity:1;paint-order:fill markers stroke" d="m 57.473501,88.827553 c 0.607733,1.37753 1.215326,2.754743 1.296243,4.516726 0.08092,1.761983 -0.364642,3.908768 -0.405036,5.306295 -0.0404,1.397526 0.324157,2.045616 0.688535,2.693396" id="path14086" fill="transparent" stroke="transparent"/>
    <path style="fill:none;fill-opacity:1;stroke:#d9c4b5;stroke-width:.600001;stroke-linecap:round;stroke-linejoin:bevel;stroke-opacity:1;paint-order:fill markers stroke" d="m 60.754503,81.779471 c 0,1.174946 0,2.349627 -0.263322,3.463479 -0.263322,1.113851 -0.789892,2.166992 -1.31642,3.22005" id="path14090" fill="transparent" stroke="transparent"/>
    <path style="fill:none;fill-opacity:1;stroke:#d9c4b5;stroke-width:.600001;stroke-linecap:round;stroke-linejoin:bevel;stroke-opacity:1;paint-order:fill markers stroke" d="m 31.992272,22.590104 c 0.613694,3.519393 1.227335,7.038485 1.513874,10.195502 0.286539,3.157018 0.246033,5.951892 0.20553,8.74656" id="path14098" fill="transparent" stroke="transparent"/>
    <path style="fill:none;fill-opacity:1;stroke:#d9c4b5;stroke-width:.600001;stroke-linecap:round;stroke-linejoin:bevel;stroke-opacity:1;paint-order:fill markers stroke" d="M 33.152553,-4.8019791 C 32.631702,9.3955066 32.11086,23.592741 30.979558,31.400091 c -1.131303,7.807351 -2.873036,9.22504 -4.614801,10.480734 -1.741764,1.255693 -3.483496,2.349339 -3.989823,4.800178 -0.506326,2.450839 0.222771,6.258347 0.850652,8.871018 0.627882,2.612672 1.154453,4.030363 1.296137,5.123961 0.141684,1.093598 -0.101349,1.863202 -0.08103,2.896195 0.02032,1.032993 0.303854,2.329165 2.876149,3.037875 2.572294,0.70871 7.432944,0.830226 10.673391,0.566898 3.240446,-0.263327 4.860662,-0.911414 6.480775,-1.559459" id="path14102" fill="transparent" stroke="transparent"/>
    <path style="fill:none;fill-opacity:1;stroke:#d9c4b5;stroke-width:.600001;stroke-linecap:round;stroke-linejoin:bevel;stroke-opacity:1;paint-order:fill markers stroke" d="m 57.716536,61.607376 c 1.012915,1.053432 2.025571,2.106594 3.848385,2.693806 1.822815,0.587213 4.455665,0.708729 6.33917,0.627684 1.883505,-0.08105 3.017665,-0.364584 4.252993,-2.106294 1.235329,-1.74171 2.572009,-4.941637 3.078385,-7.574478 0.506376,-2.632841 0.182332,-4.698618 0.324059,-6.420233 0.141727,-1.721615 0.749308,-3.098798 0.567103,-5.184799 -0.182205,-2.086 -1.154336,-4.880873 -2.693501,-6.420252 C 71.893964,35.683431 69.787684,35.399893 68.044686,28.377448 66.301687,21.355003 64.922335,7.593946 63.542928,-6.1676702" id="path14106" fill="transparent" stroke="transparent"/>
    <path style="fill:none;fill-opacity:1;stroke:#d9c4b5;stroke-width:.600001;stroke-linecap:round;stroke-linejoin:bevel;stroke-opacity:1;paint-order:fill markers stroke" d="m 26.972319,126.86289 c -0.648066,-5.54906 -1.296166,-11.09841 -1.74174,-15.16932 -0.445575,-4.0709 -0.688606,-6.66324 -1.134075,-8.34426 -0.44547,-1.68102 -1.093556,-2.45062 -1.397474,-4.111411 -0.303918,-1.660791 -0.263412,-4.212634 0.202395,-7.048142 0.465807,-2.835508 1.356926,-5.954425 2.167092,-7.838066 0.810165,-1.883641 1.539262,-2.531726 2.025404,-2.592314 0.486143,-0.06059 0.729175,0.465982 0.97216,1.701429 0.242984,1.235447 0.486016,3.179706 1.640604,4.658124 1.154588,1.478418 3.220365,2.491055 4.941885,3.483495 1.721519,0.99244 3.098704,1.96457 3.908714,2.997537 0.810011,1.032966 1.053043,2.126613 0.688421,4.678483 -0.364623,2.551875 -1.336754,6.561905 -1.903824,11.483505 -0.567069,4.92159 -0.72909,10.75437 -0.891108,16.58701" id="path21888" fill="transparent" stroke="transparent"/>
    <path style="fill:none;fill-opacity:1;stroke:#d9c4b5;stroke-width:.600001;stroke-linecap:round;stroke-linejoin:bevel;stroke-opacity:1;paint-order:fill markers stroke" d="m 24.874893,101.23696 c 1.526685,-1.461021 3.053365,-2.922037 3.874147,-4.177746 0.820782,-1.25571 0.935692,-2.306307 1.050629,-3.357158" id="path21898" fill="transparent" stroke="transparent"/>
    <path style="fill:none;fill-opacity:1;stroke:#d9c4b5;stroke-width:.600001;stroke-linecap:round;stroke-linejoin:bevel;stroke-opacity:1;paint-order:fill markers stroke" d="m 30.341393,94.982497 c 0.410646,0.459923 0.821045,0.91957 1.764979,1.124625 0.943933,0.205054 2.421337,0.155807 3.348785,0.541753 0.927448,0.385946 1.305006,1.206725 1.682427,2.027203" id="path21902" fill="transparent" stroke="transparent"/>
    <path style="fill:#f0e8dc;fill-opacity:1;stroke:#d9c4b5;stroke-width:.600001;stroke-linecap:round;stroke-linejoin:bevel;stroke-opacity:1;paint-order:fill markers stroke" d="m 42.101541,41.921315 c 2.167154,-0.648092 5.00259,-1.053154 7.534298,-0.891055 2.531708,0.1621 4.759507,0.891198 6.379762,1.559598 1.620255,0.6684 2.63289,1.275981 3.686016,2.329213 1.053126,1.053233 2.146772,2.551933 2.409928,4.779759 0.263156,2.227826 -0.30392,5.184718 -1.519078,7.311186 -1.215159,2.126468 -3.078407,3.422642 -4.698715,5.042955 -1.620307,1.620313 -2.997491,3.564573 -4.151847,4.739204 -1.154356,1.174631 -2.085981,1.579685 -3.665666,0.810198 -1.579686,-0.769487 -3.807486,-2.713749 -5.954324,-4.374538 -2.146838,-1.66079 -4.212612,-3.037973 -5.407684,-5.103774 -1.195073,-2.065801 -1.519116,-4.820168 -1.336875,-7.230375 0.182241,-2.410207 0.870832,-4.475983 1.964582,-5.954572 1.093749,-1.478589 2.59245,-2.369708 4.759603,-3.017799 z" id="path19829" fill="transparent" stroke="transparent"/>
    <ellipse style="fill:#0420ff;fill-opacity:.184314;stroke:#0420ff;stroke-width:.459835;stroke-linecap:round;stroke-linejoin:miter;stroke-dasharray:none;stroke-dashoffset:0;stroke-opacity:1;paint-order:stroke fill markers" id="path31762-6" cx="49.289238" cy="26.8022" rx="2.7299364" ry="2.7858539" fill="transparent" stroke="transparent"/>
    <path style="fill:none;fill-opacity:1;stroke:#d9c4b5;stroke-width:.600001;stroke-linecap:round;stroke-linejoin:bevel;stroke-opacity:1;paint-order:fill markers stroke" d="m 42.456383,44.978101 c -1.268658,2.287428 -2.537265,4.574766 -2.623639,6.727688 -0.08637,2.152921 1.009218,4.171119 2.104662,6.189044" id="path21923" fill="transparent" stroke="transparent"/>
    <path style="fill:none;fill-opacity:1;stroke:#d9c4b5;stroke-width:.600001;stroke-linecap:round;stroke-linejoin:bevel;stroke-opacity:1;paint-order:fill markers stroke" d="m 36.862978,52.820402 c 0.211481,1.326572 0.422915,2.652843 0.884349,3.633111 0.461435,0.980269 1.17261,1.614559 1.883521,2.248614" id="path21927" fill="transparent" stroke="transparent"/>
    <path style="fill:none;fill-opacity:1;stroke:#d9c4b5;stroke-width:.600001;stroke-linecap:round;stroke-linejoin:bevel;stroke-opacity:1;paint-order:fill markers stroke" d="m 58.890614,49.418227 c -0.249916,1.326478 -0.499792,2.652751 -1.278225,3.786697 -0.778432,1.133946 -2.085457,2.075771 -3.392557,3.017652" id="path21931" fill="transparent" stroke="transparent"/>
    <path style="fill:none;fill-opacity:1;stroke:#d9c4b5;stroke-width:.600001;stroke-linecap:round;stroke-linejoin:bevel;stroke-opacity:1;paint-order:fill markers stroke" d="m 54.854136,59.797743 c -1.422367,1.326261 -2.844746,2.652533 -3.661686,3.527165 -0.81694,0.874633 -1.02837,1.297493 -1.239752,1.720258" id="path21935" fill="transparent" stroke="transparent"/>
  </g>
</svg>
