<svg width="20" height="20" version="1.1" viewBox="0 0 5.2917 5.2917" xml:space="preserve" xmlns="http://www.w3.org/2000/svg"><g transform="translate(0 -.1522)"><g transform="translate(.72477 .16525)"><path d="m1.1119 2.3162c-0.070678 0.012048-0.14157 0.024133-0.21694 0.024569-0.075368 4.363e-4 -0.15529-0.010853-0.23551-0.022185m0.010493 0.0023c-0.065138 0.08729-0.13024 0.17454-0.17337 0.23747-0.043131 0.062935-0.064268 0.10151-0.081841 0.1424-0.017573 0.040894-0.031578 0.084037-0.041006 0.13413-0.009428 0.050094-0.014312 0.10706-0.016717 0.18484-0.002406 0.077782-0.002354 0.17635-0.001947 0.49041 4.0739e-4 0.31406 0.00117 0.84358 0.002319 1.1134 0.001149 0.26983 0.00264 0.27992 0.004878 0.28859 0.002238 0.00867 0.005136 0.015893 0.010375 0.023046 0.005239 0.00715 0.012676 0.014299 0.021221 0.020748 0.008545 0.00645 0.018156 0.012274 0.055303 0.026535s0.10182 0.037031 0.1809 0.05136c0.079085 0.014329 0.17262 0.020308 0.26904 0.016341 0.096424-0.00397 0.19579-0.017832 0.26977-0.033932 0.073975-0.016099 0.12263-0.034409 0.15276-0.04659 0.030128-0.012181 0.04177-0.018237 0.051608-0.0253 0.00984-0.00706 0.017964-0.015176 0.022846-0.025286 0.00488-0.010109 0.00655-0.022436 0.00923-0.35017 0.0026794-0.32773 0.006351-0.97089 0.0064721-1.3119 1.212e-4 -0.341-0.0033351-0.37985-0.013564-0.42431-0.010229-0.044458-0.027312-0.094551-0.078126-0.17999-0.050814-0.085436-0.13546-0.20619-0.22032-0.32725m-0.47984-1.4945c0.086493 0.020246 0.17268 0.04042 0.26031 0.03791 0.08763-0.00251 0.17684-0.027582 0.26587-0.052604m-0.48193 1.5093c-0.039641-0.15073-0.079365-0.30177-0.10343-0.42161-0.024069-0.11984-0.032429-0.20844-0.029447-0.31911 0.002981-0.11067 0.017355-0.24334 0.032048-0.35755 0.014693-0.1142 0.029712-0.20991 0.035958-0.32545 0.006246-0.11555 0.003679-0.25097 0.01145-0.35161 0.007771-0.10063 0.025932-0.16637 0.052425-0.21403 0.026493-0.047659 0.061241-0.077038 0.097918-0.096212 0.036676-0.019174 0.075108-0.028116 0.12067-0.025414 0.04556 0.002701 0.098124 0.016916 0.13887 0.042897 0.040742 0.025981 0.069747 0.063519 0.090462 0.11851 0.020715 0.054994 0.033313 0.12743 0.038695 0.20799 0.00538 0.080561 0.00361 0.16928 0.00799 0.27206 0.00439 0.10278 0.014913 0.21959 0.028862 0.3394s0.031306 0.2426 0.041333 0.33658c0.010027 0.093985 0.012753 0.15918 0.00176 0.25568-0.01099 0.096494-0.035645 0.22435-0.060347 0.31947-0.024701 0.095124-0.049433 0.15758-0.07411 0.2199" fill="none" stroke="#000" stroke-linejoin="bevel" stroke-width=".15" style="paint-order:fill markers stroke"/><ellipse cx=".89064" cy="3.0893" rx=".50441" ry=".13499" fill="none" stroke="#000" stroke-linecap="round" stroke-linejoin="bevel" stroke-width=".12" style="paint-order:fill markers stroke"/><path d="m0.87403 2.9533-0.38358 0.047073-0.14759 0.14961 0.029392 1.7794 0.22094 0.099959 0.46671 0.016992 0.32239-0.09507 0.047333-1.8512-0.18218-0.10957z" fill-opacity=".20027" style="paint-order:fill markers stroke"/></g><g transform="translate(.74903 .85632)"><g transform="translate(-.29567 -.1379)" stroke-width=".12"><path d="m2.7561 1.2005c0.12321 9.72e-5 0.24615 1.942e-4 0.36882 2.91e-4m0.63425 1.5038a0.81755 0.1996 0 0 1-0.81755 0.1996 0.81755 0.1996 0 0 1-0.81755-0.1996 0.81755 0.1996 0 0 1 0.81755-0.1996 0.81755 0.1996 0 0 1 0.81755 0.1996zm-1.5563-1.4872c5.54e-4 0.088816 0.00111 0.17737 0.00233 0.22578 0.00122 0.048413 0.00305 0.056648 0.00782 0.064521 0.00477 0.00787 0.012293 0.015434 0.033633 0.026975s0.056445 0.027188 0.12577 0.043868c0.069323 0.016681 0.17288 0.034485 0.26826 0.045661 0.095379 0.011177 0.1826 0.015763 0.27048 0.016623 0.087884 8.601e-4 0.17645-0.00198 0.26476-0.00994 0.088314-0.00796 0.17641-0.021002 0.25733-0.040611 0.080919-0.019608 0.15473-0.045757 0.19384-0.062027 0.039112-0.01627 0.043712-0.022762 0.046784-0.030578 0.00307-0.00782 0.00462-0.017116 0.00515-0.065889 5.274e-4 -0.048771 1.05e-5 -0.13706-5.081e-4 -0.22562m-3.64e-5 -0.00294a0.73715 0.14899 0 0 1-0.73715 0.14899 0.73715 0.14899 0 0 1-0.73715-0.149 0.73715 0.14899 0 0 1 0.73715-0.14899 0.73715 0.14899 0 0 1 0.73715 0.14899zm-1.2928 0.38638c-2.1e-5 0.062439-4.2e-5 0.12461-7.984e-4 0.16151-7.564e-4 0.036901-0.00222 0.048565-0.0057 0.065171s-0.00896 0.038198-0.025417 0.063317c-0.016458 0.025119-0.043935 0.053944-0.068853 0.07708s-0.047319 0.040615-0.072747 0.069682-0.053808 0.069639-0.071279 0.10851c-0.017471 0.038866-0.024033 0.075867-0.02737 0.10582-0.00334 0.029953-0.00349 0.052806-0.00376 0.37472-2.733e-4 0.32191-6.733e-4 0.94286-2.948e-4 1.2602s0.00151 0.33103 0.00848 0.35066c0.00696 0.019634 0.019626 0.045172 0.039953 0.070857s0.0482 0.051578 0.11167 0.080713c0.06347 0.029136 0.16249 0.061663 0.25239 0.084799 0.089903 0.023135 0.1707 0.03693 0.24025 0.044055 0.069555 0.00712 0.1279 0.00763 0.19354 0.00544 0.065642-0.00218 0.1386-0.00704 0.22038-0.018582 0.081776-0.011543 0.17241-0.029749 0.25072-0.051252 0.078316-0.021503 0.14437-0.046286 0.19001-0.067731 0.045635-0.021445 0.070944-0.039569 0.090473-0.060261s0.033376-0.044068 0.043497-0.067598 0.016517-0.047316 0.019705-0.069297c0.00319-0.021981 0.00312-0.042243 0.00306-0.36615-5.17e-5 -0.32391-8.26e-5 -0.95144-7.933e-4 -1.2691s-0.00216-0.32553-0.00827-0.34539c-0.00611-0.019868-0.016938-0.051776-0.034237-0.084822s-0.041172-0.067214-0.07062-0.098544-0.064547-0.059751-0.089577-0.082575-0.039944-0.040097-0.050261-0.056874-0.015902-0.033091-0.019936-0.05131c-0.00403-0.018219-0.00644-0.038319-0.00817-0.076393s-0.00275-0.094099-0.00377-0.15039" fill="none" stroke="#000" stroke-linecap="round" stroke-linejoin="bevel" stroke-width=".12" style="paint-order:fill markers stroke"/></g><path d="m2.6458 2.4076a0.8021 0.17441 0 0 0-0.79478 0.15141h-0.027389v1.4919h0.027389a0.8021 0.34883 0.097556 0 0 0.79737 0.30282 0.8021 0.34883 0.097556 0 0 0.79272-0.30282h0.040308v-1.4919h-0.040825a0.8021 0.17441 0 0 0-0.79478-0.15141z" fill-opacity=".20027" style="paint-order:fill markers stroke"/><path d="m2.6267 0.91002a0.74194 0.168 0 0 0-0.74207 0.16795 0.74194 0.168 0 0 0 0.026872 0.044442v0.15193a0.73845 0.20844 0 0 0-0.011369 0.036173 0.73845 0.20844 0 0 0 0.011369 0.036174v0.040824h0.040824a0.73845 0.20844 0 0 0 0.68626 0.13126 0.73845 0.20844 0 0 0 0.68575-0.13126h0.093534v-0.33796h-0.059944a0.74194 0.168 0 0 1-5.168e-4 -5.167e-4 0.74194 0.168 0 0 0-0.7307-0.13901z" fill-opacity=".20027" style="paint-order:fill markers stroke"/></g></g></svg>
