<svg width="20" height="20" version="1.1" viewBox="0 0 5.2917 5.2917" xml:space="preserve" xmlns="http://www.w3.org/2000/svg"><g transform="translate(1.7625 .013047)"><path d="m1.1119 2.3162c-0.070678 0.012048-0.14157 0.024133-0.21694 0.024569-0.075368 4.363e-4 -0.15529-0.010853-0.23551-0.022185m0.010493 0.0023c-0.065138 0.08729-0.13024 0.17454-0.17337 0.23747-0.043131 0.062935-0.064268 0.10151-0.081841 0.1424-0.017573 0.040894-0.031578 0.084037-0.041006 0.13413-0.009428 0.050094-0.014312 0.10706-0.016717 0.18484-0.002406 0.077782-0.002354 0.17635-0.001947 0.49041 4.0739e-4 0.31406 0.00117 0.84358 0.002319 1.1134 0.001149 0.26983 0.00264 0.27992 0.004878 0.28859 0.002238 0.00867 0.005136 0.015893 0.010375 0.023046 0.005239 0.00715 0.012676 0.014299 0.021221 0.020748 0.008545 0.00645 0.018156 0.012274 0.055303 0.026535s0.10182 0.037031 0.1809 0.05136c0.079085 0.014329 0.17262 0.020308 0.26904 0.016341 0.096424-0.00397 0.19579-0.017832 0.26977-0.033932 0.073975-0.016099 0.12263-0.034409 0.15276-0.04659 0.030128-0.012181 0.04177-0.018237 0.051608-0.0253 0.00984-0.00706 0.017964-0.015176 0.022846-0.025286 0.00488-0.010109 0.00655-0.022436 0.00923-0.35017 0.0026794-0.32773 0.006351-0.97089 0.0064721-1.3119 1.212e-4 -0.341-0.0033351-0.37985-0.013564-0.42431-0.010229-0.044458-0.027312-0.094551-0.078126-0.17999-0.050814-0.085436-0.13546-0.20619-0.22032-0.32725m-0.47984-1.4945c0.086493 0.020246 0.17268 0.04042 0.26031 0.03791 0.08763-0.00251 0.17684-0.027582 0.26587-0.052604m-0.48193 1.5093c-0.039641-0.15073-0.079365-0.30177-0.10343-0.42161-0.024069-0.11984-0.032429-0.20844-0.029447-0.31911 0.002981-0.11067 0.017355-0.24334 0.032048-0.35755 0.014693-0.1142 0.029712-0.20991 0.035958-0.32545 0.006246-0.11555 0.003679-0.25097 0.01145-0.35161 0.007771-0.10063 0.025932-0.16637 0.052425-0.21403 0.026493-0.047659 0.061241-0.077038 0.097918-0.096212 0.036676-0.019174 0.075108-0.028116 0.12067-0.025414 0.04556 0.002701 0.098124 0.016916 0.13887 0.042897 0.040742 0.025981 0.069747 0.063519 0.090462 0.11851 0.020715 0.054994 0.033313 0.12743 0.038695 0.20799 0.00538 0.080561 0.00361 0.16928 0.00799 0.27206 0.00439 0.10278 0.014913 0.21959 0.028862 0.3394s0.031306 0.2426 0.041333 0.33658c0.010027 0.093985 0.012753 0.15918 0.00176 0.25568-0.01099 0.096494-0.035645 0.22435-0.060347 0.31947-0.024701 0.095124-0.049433 0.15758-0.07411 0.2199" fill="none" stroke="currentColor" stroke-linejoin="bevel" stroke-width=".15" style="paint-order:fill markers stroke"/><ellipse cx=".89064" cy="3.0893" rx=".50441" ry=".13499" fill="none" stroke="currentColor" stroke-linecap="round" stroke-linejoin="bevel" stroke-width=".12" style="paint-order:fill markers stroke"/><path d="m0.87403 2.9533-0.38358 0.047073-0.14759 0.14961 0.029392 1.7794 0.22094 0.099959 0.46671 0.016992 0.32239-0.09507 0.047333-1.8512-0.18218-0.10957z" fill-opacity=".20027" style="paint-order:fill markers stroke"/></g></svg>
