<svg width="20" height="20" version="1.1" viewBox="0 0 5.2917 5.2917" xml:space="preserve" xmlns="http://www.w3.org/2000/svg"><g transform="translate(-.29567 -.1379)" stroke-width=".12"><path d="m2.7561 1.2005c0.12321 9.72e-5 0.24615 1.942e-4 0.36882 2.91e-4m0.63425 1.5038a0.81755 0.1996 0 0 1-0.81755 0.1996 0.81755 0.1996 0 0 1-0.81755-0.1996 0.81755 0.1996 0 0 1 0.81755-0.1996 0.81755 0.1996 0 0 1 0.81755 0.1996zm-1.5563-1.4872c5.54e-4 0.088816 0.00111 0.17737 0.00233 0.22578 0.00122 0.048413 0.00305 0.056648 0.00782 0.064521 0.00477 0.00787 0.012293 0.015434 0.033633 0.026975s0.056445 0.027188 0.12577 0.043868c0.069323 0.016681 0.17288 0.034485 0.26826 0.045661 0.095379 0.011177 0.1826 0.015763 0.27048 0.016623 0.087884 8.601e-4 0.17645-0.00198 0.26476-0.00994 0.088314-0.00796 0.17641-0.021002 0.25733-0.040611 0.080919-0.019608 0.15473-0.045757 0.19384-0.062027 0.039112-0.01627 0.043712-0.022762 0.046784-0.030578 0.00307-0.00782 0.00462-0.017116 0.00515-0.065889 5.274e-4 -0.048771 1.05e-5 -0.13706-5.081e-4 -0.22562m-3.64e-5 -0.00294a0.73715 0.14899 0 0 1-0.73715 0.14899 0.73715 0.14899 0 0 1-0.73715-0.149 0.73715 0.14899 0 0 1 0.73715-0.14899 0.73715 0.14899 0 0 1 0.73715 0.14899zm-1.2928 0.38638c-2.1e-5 0.062439-4.2e-5 0.12461-7.984e-4 0.16151-7.564e-4 0.036901-0.00222 0.048565-0.0057 0.065171s-0.00896 0.038198-0.025417 0.063317c-0.016458 0.025119-0.043935 0.053944-0.068853 0.07708s-0.047319 0.040615-0.072747 0.069682-0.053808 0.069639-0.071279 0.10851c-0.017471 0.038866-0.024033 0.075867-0.02737 0.10582-0.00334 0.029953-0.00349 0.052806-0.00376 0.37472-2.733e-4 0.32191-6.733e-4 0.94286-2.948e-4 1.2602s0.00151 0.33103 0.00848 0.35066c0.00696 0.019634 0.019626 0.045172 0.039953 0.070857s0.0482 0.051578 0.11167 0.080713c0.06347 0.029136 0.16249 0.061663 0.25239 0.084799 0.089903 0.023135 0.1707 0.03693 0.24025 0.044055 0.069555 0.00712 0.1279 0.00763 0.19354 0.00544 0.065642-0.00218 0.1386-0.00704 0.22038-0.018582 0.081776-0.011543 0.17241-0.029749 0.25072-0.051252 0.078316-0.021503 0.14437-0.046286 0.19001-0.067731 0.045635-0.021445 0.070944-0.039569 0.090473-0.060261s0.033376-0.044068 0.043497-0.067598 0.016517-0.047316 0.019705-0.069297c0.00319-0.021981 0.00312-0.042243 0.00306-0.36615-5.17e-5 -0.32391-8.26e-5 -0.95144-7.933e-4 -1.2691s-0.00216-0.32553-0.00827-0.34539c-0.00611-0.019868-0.016938-0.051776-0.034237-0.084822s-0.041172-0.067214-0.07062-0.098544-0.064547-0.059751-0.089577-0.082575-0.039944-0.040097-0.050261-0.056874-0.015902-0.033091-0.019936-0.05131c-0.00403-0.018219-0.00644-0.038319-0.00817-0.076393s-0.00275-0.094099-0.00377-0.15039" fill="none" stroke="#000" stroke-linecap="round" stroke-linejoin="bevel" stroke-width=".12" style="paint-order:fill markers stroke"/></g><path d="m2.6458 2.4076a0.8021 0.17441 0 0 0-0.79478 0.15141h-0.027389v1.4919h0.027389a0.8021 0.34883 0.097556 0 0 0.79737 0.30282 0.8021 0.34883 0.097556 0 0 0.79272-0.30282h0.040308v-1.4919h-0.040825a0.8021 0.17441 0 0 0-0.79478-0.15141z" fill-opacity=".20027" style="paint-order:fill markers stroke"/><path d="m2.6267 0.91002a0.74194 0.168 0 0 0-0.74207 0.16795 0.74194 0.168 0 0 0 0.026872 0.044442v0.15193a0.73845 0.20844 0 0 0-0.011369 0.036173 0.73845 0.20844 0 0 0 0.011369 0.036174v0.040824h0.040824a0.73845 0.20844 0 0 0 0.68626 0.13126 0.73845 0.20844 0 0 0 0.68575-0.13126h0.093534v-0.33796h-0.059944a0.74194 0.168 0 0 1-5.168e-4 -5.167e-4 0.74194 0.168 0 0 0-0.7307-0.13901z" fill-opacity=".20027" style="paint-order:fill markers stroke"/></svg>
