<svg width="20" height="20" version="1.1" viewBox="0 0 5.2917 5.2917" xml:space="preserve" xmlns="http://www.w3.org/2000/svg"><g transform="translate(-3.512e-7 .063274)"><g transform="translate(-.43032)" fill="none" stroke="currentColor" stroke-linecap="round" stroke-linejoin="bevel"><g stroke-width=".12"><ellipse cx="3.0864" cy="4.9147" rx=".69722" ry=".096468" style="paint-order:fill markers stroke"/><ellipse cx="3.0792" cy="2.7201" rx=".69722" ry=".096468" style="paint-order:fill markers stroke"/><path d="m2.3674 4.9182v-2.1075c0-0.42626 0-0.43802 0.035212-0.471 0.035212-0.032977 0.10559-0.086872 0.14321-0.11915 0.037612-0.032281 0.042546-0.043094 0.045474-0.16177 0.00293-0.11868 0.0038-0.34535 0.00609-0.46314s0.00606-0.12654 0.060456-0.17797c0.054398-0.051432 0.15935-0.1454 0.21182-0.19609 0.052471-0.050697 0.052471-0.058407 0.032481-0.083764s-0.060224-0.068371-0.080469-0.092355-0.020245-0.028934-0.020245-0.04443c0-0.015496 0-0.041541 0.00315-0.057529s0.00943-0.021643 0.050733-0.038315c0.041308-0.016672 0.11751-0.044321 0.16369-0.058736 0.04618-0.014415 0.062243-0.015632 0.078062-0.01683" style="paint-order:fill markers stroke"/><path d="m3.1047 0.15412c-0.2311 0-0.46245 0-0.58243 0.001115s-0.12847 0.003392-0.14366 0.013878c-0.015185 0.010485-0.036892 0.029147-0.047756 0.045636-0.010865 0.016489-0.010865 0.030522-0.010865 0.2459v0.84368c0 0.2116 0 0.2181 0.00738 0.22074 0.00738 0.00264 0.021896 0.00171 0.10355-0.070919 0.08165-0.072633 0.23067-0.21698 0.37969-0.36132" style="paint-order:fill markers stroke"/></g><path d="m3.7849 4.918v-2.1075c0-0.42626 0-0.43802-0.035224-0.471-0.035224-0.032977-0.10563-0.086871-0.14326-0.11915-0.037625-0.03228-0.04256-0.043094-0.045489-0.16177-0.00293-0.11868-0.0038-0.34535-0.00609-0.46314-0.0022944-0.11778-0.0060623-0.12654-0.06048-0.17797-0.054417-0.051432-0.15941-0.1454-0.2119-0.19609-0.052489-0.050697-0.052489-0.058407-0.032492-0.083764s0.060245-0.068371 0.080497-0.092355 0.020252-0.028934 0.020252-0.04443c0-0.015496 0-0.041541-0.00315-0.057528s-0.00943-0.021643-0.050752-0.038315c-0.041323-0.016672-0.11755-0.044321-0.16375-0.058736-0.046196-0.014415-0.062264-0.015632-0.078089-0.01683" stroke-width=".12002" style="paint-order:fill markers stroke"/><path d="m3.0473 0.15401c0.23118 0 0.46262 0 0.58263 0.001115s0.12852 0.003393 0.14371 0.013878c0.01519 0.010485 0.036905 0.029146 0.047773 0.045636s0.010868 0.030522 0.010868 0.2459v0.84367c0 0.2116 0 0.2181-0.00738 0.22074-0.00738 0.00264-0.021903 0.00171-0.10358-0.07092-0.081682-0.072633-0.23076-0.21698-0.37983-0.36132" stroke-width=".12002" style="paint-order:fill markers stroke"/></g><path d="m2.6433 2.606-0.44322 0.024505-0.26047 0.11063-0.00843 2.175 0.36041 0.086076 0.61921 0.022016 0.43755-0.093499 0.012218-2.193-0.44299-0.12702z" fill-opacity=".20027" style="paint-order:fill markers stroke"/></g></svg>
