<svg width="20" height="20" version="1.1" viewBox="0 0 5.2917 5.2917" xml:space="preserve" xmlns="http://www.w3.org/2000/svg"><g transform="translate(-.18728 -.0032013)"><g fill="none"><path d="m4.4855 2.0204v-1.5984h-1.1841v1.275" style="paint-order:fill markers stroke"/><g stroke="#000" stroke-linecap="round" stroke-linejoin="bevel" stroke-width=".12"><ellipse cx="3.8818" cy=".33885" rx=".74481" ry=".1169" style="paint-order:fill markers stroke"/><path d="m3.1351 0.3446c3.438e-4 0.21066 6.871e-4 0.42106 0.00103 0.63119" style="paint-order:fill markers stroke"/><path d="m4.6264 0.34935c-2.23e-5 0.3488-4.46e-5 0.69734-6.69e-5 1.0456" style="paint-order:fill markers stroke"/><path d="m4.6327 1.4149c0.07222 0.025856 0.14412 0.051599 0.18446 0.11802 0.040334 0.066417 0.049396 0.17333 0.053915 0.28826 0.00452 0.11493 0.00452 0.2379-9.34e-4 0.32004-0.00545 0.082145-0.01631 0.12355-0.044814 0.15839-0.028504 0.034841-0.074774 0.063346-0.11355 0.077621-0.038775 0.014275-0.070245 0.014275-0.095381 0.021339-0.025135 0.00706-0.043712 0.021221-0.057022 0.043252-0.013311 0.022031-0.021267 0.051722-0.02522 0.091628-0.00395 0.039906-0.00395 0.08994-0.00395 0.27378 0 0.18384 0 0.50147 0.015063 0.68354s0.04499 0.22853 0.076739 0.26897c0.031749 0.040443 0.065255 0.074905 0.10122 0.10411 0.035964 0.029204 0.074336 0.053223 0.10212 0.091319 0.027786 0.038097 0.045188 0.090145 0.053836 0.20974 0.00865 0.11959 0.00865 0.30677-0.00663 0.44314-0.015278 0.13637-0.04578 0.22204-0.10739 0.29241-0.06161 0.070371-0.15446 0.12564-0.62773 0.15329-0.47327 0.027656-1.3271 0.027656-1.7834 0.01041s-0.51518-0.051921-0.55336-0.10145c-0.038182-0.049525-0.055465-0.11403-0.064149-0.41824-0.00868-0.30421-0.00868-0.84807-0.00159-1.1486 0.00709-0.30053 0.021321-0.35766 0.054156-0.40115s0.084143-0.073113 0.26961-0.087901c0.18547-0.014787 0.50489-0.014787 0.66939-0.019699 0.1645-0.00491 0.17432-0.014733 0.17923-0.31073 0.00491-0.29599 0.00491-0.8784 0.012822-1.1925 0.00791-0.3141 0.023784-0.35978 0.044792-0.39001 0.021007-0.030237 0.047002-0.04483 0.074324-0.043394 0.027322 0.001436 0.055746 0.018665 0.083859 0.035705" style="paint-order:fill markers stroke"/><path d="m1.726 4.6352h-0.7658c-0.15801 0-0.17 0-0.15295-0.048432s0.063466-0.14541 0.0867-0.30709c0.023234-0.16168 0.023234-0.38821-0.003703-0.54827-0.026937-0.16006-0.080989-0.25368-0.1015-0.30242-0.020508-0.048739-0.007472-0.052232 0.14904-0.053955 0.15651-0.00172 0.4564-0.00172 0.75603-0.00172" style="paint-order:fill markers stroke"/><path d="m3.1227 0.98105s0.20197 0.24226 0.69042 0.36054c0.62736 0.15191 0.81275 0.069736 0.81275 0.069736" style="paint-order:fill markers stroke"/><path d="m2.5004 3.2873s0.13062 0.42 0.72863 0.86449c0.491 0.36496 1.0668 0.33133 1.0668 0.33133" style="paint-order:fill markers stroke"/></g></g><g transform="translate(-.003534 .029814)" fill-opacity=".20027"><path d="m1.7387 3.3747-0.95499 0.0060987 0.13729 0.48852-0.11553 0.74543 0.93186 0.036998z" style="paint-order:fill markers stroke"/><path d="m3.1709 0.36338 0.11002-0.12009 0.50088-0.019533h0.52934l0.29655 0.13237 0.0293 1.0609-0.58888-0.0075179-0.59871-0.20815-0.33998-0.24322z" style="paint-order:fill markers stroke"/></g></g></svg>
