<svg width="20" height="20" version="1.1" viewBox="0 0 5.2917 5.2917" xml:space="preserve" xmlns="http://www.w3.org/2000/svg"><g transform="matrix(1.0006 0 0 .98113 -.0014952 .023898)"><g transform="translate(.28679)" fill="none" stroke="currentColor" stroke-linecap="round" stroke-linejoin="bevel" stroke-width=".12"><path d="m2.2323 3.6031-0.00291 1.3482s0.00922 0.13641 0.10674 0.13697c0.097523 5.556e-4 0.1143-0.11921 0.1143-0.11921l0.00275-0.41223s-0.014469-0.1231 0.10379-0.12504c0.11826-0.00193 0.11102 0.11729 0.11102 0.11729l-0.00593 0.65388" style="paint-order:fill markers stroke"/><path d="m2.1522 3.8568c0.00554 0.1642 0.011077 0.32812 0.032785 0.38604s0.059625 0.0101 0.080625-0.073619 0.025064-0.20355 0.029136-0.32363" style="paint-order:fill markers stroke"/><ellipse cx="2.359" cy=".26889" rx=".97518" ry=".12714" style="paint-order:fill markers stroke"/><ellipse cx="2.3593" cy="1.1189" rx=".95207" ry=".12714" style="paint-order:fill markers stroke"/><ellipse cx="2.3846" cy="3.283" rx=".40453" ry=".081516" style="paint-order:fill markers stroke"/><path d="m1.9786 3.4836c-9.676e-4 -0.064394-0.0019393-0.12906-0.002915-0.19399" style="paint-order:fill markers stroke"/><path d="m2.7919 3.4796c-9.676e-4 -0.064394-0.0019393-0.12906-0.002915-0.19399" style="paint-order:fill markers stroke"/><path d="m1.9781 3.4889c0.12754 0.10552 0.67532 0.11298 0.81142-0.00344" style="paint-order:fill markers stroke"/><path d="m2.113 3.2759c1.872e-4 -0.07435 3.75e-4 -0.14896-0.00319-0.19216-0.00356-0.043192-0.011067-0.05501-0.099921-0.11555-0.08885-0.060538-0.25916-0.16968-0.36439-0.24413-0.10524-0.074447-0.14536-0.11426-0.17417-0.15989s-0.046146-0.097118-0.056992-0.15454c-0.010846-0.057427-0.015112-0.12075-0.019036-0.47755-0.0039241-0.3568-0.0074883-1.007-0.011054-1.6576" style="paint-order:fill markers stroke"/><path d="m2.6052 3.2771c-1.872e-4 -0.07435-3.75e-4 -0.14896 0.00319-0.19216 0.00356-0.043192 0.011067-0.05501 0.099921-0.11555 0.088854-0.060538 0.25916-0.16968 0.3644-0.24413 0.10524-0.074447 0.14536-0.11426 0.17417-0.15989 0.028809-0.045627 0.046146-0.097117 0.056992-0.15454 0.010846-0.057426 0.015112-0.12075 0.019036-0.47755 0.00392-0.3568 0.00749-1.007 0.011054-1.6576" style="paint-order:fill markers stroke"/></g><path d="m2.2759 3.5123-9.13e-5 -0.17653 0.12448-0.10125v-0.19199l-0.64639-0.46286-0.073344-0.27861-0.010186-1.1674 0.44045-0.11963 0.58295-0.026652 0.85277 0.090907 0.074669 0.1608-0.017322 1.1178-0.086168 0.26346-0.61372 0.43662 0.020257 0.24745 0.16949 0.037089-0.019092 0.14784-0.28672 0.098637z" fill-opacity=".20027" style="paint-order:fill markers stroke"/></g></svg>
