<svg width="20" height="20" version="1.1" viewBox="0 0 5.2917 5.2917" xml:space="preserve" xmlns="http://www.w3.org/2000/svg"><g transform="translate(-3.4874e-7 .17464)"><g transform="translate(.0030454)" fill="none" stroke="currentColor" stroke-linecap="round" stroke-linejoin="bevel"><path d="m2.2346 1.4935v-1.1562s0.021139-0.072629 0.42368-0.079105c0.40254-0.006477 0.39887 0.071834 0.39887 0.071834v1.1554" stroke-width=".12" style="paint-order:fill markers stroke"/><path d="m2.1598 1.7402v-0.173s0.024983-0.072046 0.50072-0.078469c0.47573-0.00643 0.4714 0.071257 0.4714 0.071257v0.18098" stroke-width=".12993" style="paint-order:fill markers stroke"/><path d="m2.2292 2.13v-0.17834s0.021414-0.074269 0.42919-0.08089c0.40777-0.00663 0.40406 0.073456 0.40406 0.073456v0.18656" stroke-width=".12213" style="paint-order:fill markers stroke"/><g stroke-width=".12"><ellipse cx="2.4342" cy=".59652" rx=".031995" ry=".10459" style="paint-order:fill markers stroke"/><path d="m2.1586 1.7537 0.076602 0.19742" style="paint-order:fill markers stroke"/><path d="m3.1327 1.7503-0.0646 0.18798" style="paint-order:fill markers stroke"/><path d="m2.2263 2.1376c-0.040907 0.063306-0.081771 0.12655-0.11615 0.18696-0.034378 0.06041-0.062259 0.11794-0.083439 0.17729-0.021181 0.059345-0.035668 0.12042-0.042277 0.18394-0.00661 0.063521-0.00539 0.12941-0.00445 0.41855 9.427e-4 0.28914 0.00161 0.80152 0.00411 1.0678s0.00676 0.28642 0.023696 0.31133c0.016933 0.024911 0.046336 0.054635 0.11014 0.086714 0.063806 0.032079 0.16196 0.066667 0.25534 0.087445 0.093386 0.020778 0.18204 0.027837 0.27053 0.026879 0.088492-9.573e-4 0.17687-0.00988 0.26504-0.024216 0.088167-0.014333 0.17616-0.034052 0.23572-0.062448 0.059561-0.028396 0.090904-0.065536 0.11156-0.094905 0.020655-0.029369 0.030654-0.051057 0.036521-0.069884 0.00587-0.018827 0.00757-0.034908 0.00957-0.32218 2e-3 -0.28727 0.00427-0.84575 0.00423-1.1339-2.8e-5 -0.28813-0.0024079-0.30593-0.012196-0.34724-0.0097882-0.041309-0.027028-0.10614-0.066249-0.19089-0.039221-0.084749-0.10052-0.18941-0.16201-0.29439" style="paint-order:fill markers stroke"/><ellipse cx="2.644" cy="2.7412" rx=".64145" ry=".10067" style="paint-order:fill markers stroke"/></g></g><path d="m2.6361 2.645-0.52311 0.052186-0.13087 0.12921 0.02608 1.6757 0.20391 0.12065 0.41399 0.08672 0.50614-0.07952 0.16969-0.15362 0.00766-1.698-0.26915-0.11818z" fill-opacity=".20027" style="paint-order:fill markers stroke"/></g></svg>
