<svg width="20" height="20" version="1.1" viewBox="0 0 5.2917 5.2917" xml:space="preserve" xmlns="http://www.w3.org/2000/svg"><g transform="translate(0 -.089721)"><g transform="translate(-.12684)"><path d="m2.7726 1.6099s0.30986 0.48171 0.35863 1.142c0.064982 0.87993-0.049073 1.1941-0.13814 1.3364-0.10334 0.1976-0.22354 0.18632-0.22354 0.18632m0.00311-2.6648s-0.30986 0.48171-0.35863 1.142c-0.064982 0.87993 0.049073 1.1941 0.13814 1.3364 0.10334 0.1976 0.20814 0.18684 0.20814 0.18684" fill="none" stroke="currentColor" stroke-linecap="round" stroke-linejoin="bevel" stroke-width=".12" style="paint-order:fill markers stroke"/></g><path d="m3.0624 0.85385 0.35848 0.37865v3.0332l-0.35819 0.35819h-0.85364l-0.33825-0.33825v-3.0791l0.35939-0.35939z" fill="none" stroke="currentColor" stroke-linecap="round" stroke-linejoin="bevel" stroke-width=".12" style="paint-order:fill markers stroke"/><path d="m2.2779 1.2254h0.73585" fill="none" stroke="currentColor" stroke-linecap="round" stroke-linejoin="bevel" stroke-width=".12" style="paint-order:fill markers stroke"/><path d="m2.6489 1.6421-0.11868 0.22186-0.18936 0.55127-0.061268 0.63951 0.0053197 0.64807 0.17573 0.45361 0.15257 0.12079 0.12708-0.028444 0.19479-0.27994 0.093957-0.50009-0.010689-0.66416-0.089275-0.5801z" fill-opacity=".20027" style="paint-order:fill markers stroke"/></g></svg>
