<svg width="20" height="20" version="1.1" viewBox="0 0 5.2917 5.2917" xml:space="preserve" xmlns="http://www.w3.org/2000/svg"><g transform="rotate(37 2.3228 2.4341)"><path d="m2.6453 4.2438-0.24662-0.042273-0.023934 0.47854 0.32395 0.045379 0.24527-0.055531-0.022016-0.48373z" fill-opacity=".20027" style="paint-order:fill markers stroke"/><g fill="none" stroke="currentColor" stroke-linejoin="bevel"><ellipse cx="2.6458" cy=".35618" rx=".54951" ry=".088654" stroke-linecap="round" stroke-width=".12" style="paint-order:fill markers stroke"/><ellipse cx="2.6458" cy="1.0625" rx=".62663" ry=".072814" stroke-linecap="round" stroke-width=".10493" style="paint-order:fill markers stroke"/><path d="m2.3738 1.1379v3.5296s0.00388 0.050304 0.26822 0.051515c0.26434 0.00122 0.27586-0.038208 0.27586-0.038208v-3.5478" stroke-width=".12" style="paint-order:fill markers stroke"/><g stroke-linecap="round" stroke-width=".12"><path d="m2.6458 0.48289v3.6131" style="paint-order:fill markers stroke"/><ellipse cx="2.6458" cy="4.1545" rx=".25103" ry=".078363" style="paint-order:fill markers stroke"/><path d="m2.6372 4.7329v0.25252" style="paint-order:fill markers stroke"/><path d="m2.3883 1.8062 0.10357 0.025042" style="paint-order:fill markers stroke"/><path d="m2.3883 2.3354 0.10357 0.025042" style="paint-order:fill markers stroke"/><path d="m2.3883 2.8646 0.10357 0.025042" style="paint-order:fill markers stroke"/><path d="m2.3883 3.3937 0.10357 0.025042" style="paint-order:fill markers stroke"/><path d="m2.3883 3.9229 0.10357 0.025042" style="paint-order:fill markers stroke"/><path d="m2.3883 4.4521 0.10357 0.025042" style="paint-order:fill markers stroke"/></g></g></g></svg>
