<svg width="138mm" height="103mm" viewBox="0 0 138 103" version="1.1" id="svg5" xml:space="preserve" xmlns="http://www.w3.org/2000/svg" xmlns:svg="http://www.w3.org/2000/svg">
  <defs id="defs2">
    <marker markerWidth="0.52499998" markerHeight="0.99999994" refX="0" refY="0" orient="auto-start-reverse" id="marker1257" viewBox="0 0 0.525 1" style="overflow:visible" preserveAspectRatio="xMidYMid">
      <path id="path1255" style="fill:context-stroke;stroke-linecap:butt" d="M 0,-1 1,0 0,1 -0.05,0 Z" transform="scale(0.5)" fill="transparent" stroke="transparent"/>
    </marker>
    <marker markerWidth="0.52499998" markerHeight="0.99999994" refX="0" refY="0" orient="auto-start-reverse" id="CapTriangle" viewBox="0 0 0.525 1" style="overflow:visible" preserveAspectRatio="xMidYMid">
      <path id="path7813" style="fill:context-stroke;stroke-linecap:butt" d="M 0,-1 1,0 0,1 -0.05,0 Z" transform="scale(0.5)" fill="transparent" stroke="transparent"/>
    </marker>
    <marker markerWidth="0.52499998" markerHeight="0.99999994" refX="0" refY="0" orient="auto-start-reverse" id="marker1257-3" viewBox="0 0 0.525 1" style="overflow:visible" preserveAspectRatio="xMidYMid">
      <path id="path1255-6" style="fill:context-stroke;stroke-linecap:butt" d="M 0,-1 1,0 0,1 -0.05,0 Z" transform="scale(0.5)" fill="transparent" stroke="transparent"/>
    </marker>
    <marker markerWidth="0.52499998" markerHeight="0.99999994" refX="0" refY="0" orient="auto-start-reverse" id="CapTriangle-7" viewBox="0 0 0.525 1" style="overflow:visible" preserveAspectRatio="xMidYMid">
      <path id="path7813-5" style="fill:context-stroke;stroke-linecap:butt" d="M 0,-1 1,0 0,1 -0.05,0 Z" transform="scale(0.5)" fill="transparent" stroke="transparent"/>
    </marker>
    <marker markerWidth="0.52499998" markerHeight="0.99999994" refX="0" refY="0" orient="auto-start-reverse" id="marker1257-5" viewBox="0 0 0.525 1" style="overflow:visible" preserveAspectRatio="xMidYMid">
      <path id="path1255-62" style="fill:context-stroke;stroke-linecap:butt" d="M 0,-1 1,0 0,1 -0.05,0 Z" transform="scale(0.5)" fill="transparent" stroke="transparent"/>
    </marker>
    <marker markerWidth="0.52499998" markerHeight="0.99999994" refX="0" refY="0" orient="auto-start-reverse" id="CapTriangle-9" viewBox="0 0 0.525 1" style="overflow:visible" preserveAspectRatio="xMidYMid">
      <path id="path7813-1" style="fill:context-stroke;stroke-linecap:butt" d="M 0,-1 1,0 0,1 -0.05,0 Z" transform="scale(0.5)" fill="transparent" stroke="transparent"/>
    </marker>
  </defs>
  <g id="layer1">
    <rect style="opacity:1;fill:var(--background);fill-opacity:1;stroke:none;stroke-width:1.42236;stroke-linecap:round;stroke-linejoin:bevel;stroke-dasharray:none;stroke-opacity:1;paint-order:fill markers stroke" id="rect17546" width="138" height="103" x="0" y="0" fill="transparent" stroke="transparent"/>
    <path style="opacity:1;fill:none;fill-opacity:.2;stroke:var(--ion-color-dark);stroke-width:1;stroke-linecap:round;stroke-linejoin:bevel;stroke-dasharray:none;stroke-opacity:1;marker-start:url(#marker1257);marker-end:url(#CapTriangle);paint-order:fill markers stroke" d="m 31.594802,25.00398 12.182023,-0.09299 c 0,0 4.742621,-4.184665 7.067433,-4.184665 2.324815,0 4.649629,2.603791 5.579555,3.440726 0.929925,0.836932 4.463642,0.185983 6.2305,0.743939 1.766859,0.557956 3.905686,1.766857 5.207581,1.022918 1.301896,-0.74394 2.417807,-22.8761659 3.626709,-22.8761659 1.208905,0 3.905688,23.1551439 4.463638,23.7130999 0.55796,0.557953 1.3019,-1.394889 3.06876,-2.138831 1.76686,-0.743939 5.95152,0.371972 7.81137,-0.37197 1.85985,-0.743939 8.92729,-5.300574 11.06611,-5.393566 2.138829,-0.09299 9.950209,4.370649 12.461009,5.11459 2.51079,0.743939 23.24813,0.278976 23.24813,0.278976" id="path966" fill="transparent" stroke="transparent"/>
    <path style="fill:none;fill-opacity:.2;stroke:var(--ion-color-dark);stroke-width:1;stroke-linecap:round;stroke-linejoin:bevel;stroke-dasharray:none;stroke-opacity:1;marker-start:url(#marker1257-3);marker-end:url(#CapTriangle-7);paint-order:fill markers stroke" d="m 32.106263,61.454138 10.787135,0.093 c 0,0 5.300577,-3.905687 7.625388,-3.905687 2.324815,0 5.300577,2.138828 6.230503,2.975763 0.929925,0.836932 5.393568,0.278976 7.160426,0.836932 1.766858,0.557956 3.161746,1.673864 4.370648,1.394888 1.461061,-0.337167 2.5108,-23.341129 3.719702,-23.341129 1.208905,0 3.812696,21.295293 4.370646,21.853249 0.55796,0.557953 1.39489,0.464962 3.16175,-0.27898 1.76686,-0.743939 5.95152,0.371972 7.81137,-0.37197 1.85985,-0.743939 10.07899,-18.720109 12.18202,-18.31953 1.952849,0.371973 9.764229,17.296613 12.275029,18.040554 2.51079,0.743939 22.3182,0.278976 22.3182,0.278976" id="path966-3" fill="transparent" stroke="transparent"/>
    <path style="fill:none;fill-opacity:.2;stroke:var(--ion-color-dark);stroke-width:1;stroke-linecap:round;stroke-linejoin:bevel;stroke-dasharray:none;stroke-opacity:1;marker-start:url(#marker1257-5);marker-end:url(#CapTriangle-9);paint-order:fill markers stroke" d="m 31.641301,98.093199 2.138828,-1e-5 c 0,0 3.440726,-3.161738 5.765538,-3.161738 2.324815,0 5.858532,2.045834 6.788458,2.882768 0.929925,0.83693 13.483918,-0.371969 15.250776,0.18598 1.766859,0.55796 1.394889,0.92993 2.696784,0.18599 1.301896,-0.743943 7.811373,-26.037915 9.020273,-26.037915 1.208913,0 5.579553,22.504198 7.532393,25.014992 3.17012,0.339608 5.48996,0.122909 6.78846,-0.371971 1.85985,-0.74394 12.925969,-17.296603 15.064789,-17.389599 4.27766,-0.185992 9.02028,14.971801 16.45969,17.482599 2.48118,0.837404 14.50683,0.464955 14.50683,0.464955" id="path966-2" fill="transparent" stroke="transparent"/>
    <g aria-label="Normal" id="text2542" style="font-weight:700;font-size:4.23333px;font-family:Bahnschrift;-inkscape-font-specification:&quot;Bahnschrift Bold&quot;;opacity:1;fill:none;fill-opacity:.2;stroke:#000;stroke-linecap:round;stroke-linejoin:bevel;paint-order:fill markers stroke">
      <path d="m 15.677078,25.788509 h -0.812799 l -1.316566,-2.285998 h -0.01693 q 0.0085,0.2159 0.01693,0.4318 0.0127,0.2159 0.02117,0.4318 v 1.422398 h -0.5715 v -3.022597 h 0.808566 l 1.312333,2.264831 h 0.0127 q -0.0042,-0.211666 -0.0127,-0.419099 -0.0085,-0.207433 -0.01693,-0.414867 v -1.430865 h 0.575733 z" style="font-family:Roboto;-inkscape-font-specification:&quot;Roboto Bold&quot;;text-align:end;text-anchor:end;fill:var(--ion-color-dark);fill-opacity:1;stroke:none" id="path17595" fill="transparent" stroke="transparent"/>
      <path d="m 18.488008,24.628577 q 0,0.575733 -0.3048,0.888999 -0.300566,0.313267 -0.821266,0.313267 -0.321733,0 -0.575733,-0.1397 -0.249766,-0.1397 -0.393699,-0.4064 -0.143934,-0.270933 -0.143934,-0.656166 0,-0.575733 0.300567,-0.884766 0.300566,-0.309033 0.825499,-0.309033 0.325967,0 0.575733,0.1397 0.249766,0.1397 0.3937,0.4064 0.143933,0.262466 0.143933,0.647699 z m -1.595965,0 q 0,0.3429 0.110066,0.5207 0.1143,0.173566 0.3683,0.173566 0.249766,0 0.359833,-0.173566 0.1143,-0.1778 0.1143,-0.5207 0,-0.3429 -0.1143,-0.512233 -0.110067,-0.173566 -0.364067,-0.173566 -0.249766,0 -0.364066,0.173566 -0.110066,0.169333 -0.110066,0.512233 z" style="font-family:Roboto;-inkscape-font-specification:&quot;Roboto Bold&quot;;text-align:end;text-anchor:end;fill:var(--ion-color-dark);fill-opacity:1;stroke:none" id="path17597" fill="transparent" stroke="transparent"/>
      <path d="m 20.299871,23.434778 q 0.04657,0 0.110067,0.0042 0.0635,0.0042 0.1016,0.0127 l -0.04657,0.592667 q -0.02963,-0.0085 -0.0889,-0.0127 -0.05503,-0.0085 -0.09737,-0.0085 -0.160867,0 -0.309034,0.05927 -0.148166,0.05503 -0.241299,0.182034 -0.0889,0.127 -0.0889,0.347133 v 1.176865 h -0.630766 v -2.311398 h 0.478366 l 0.09313,0.389467 h 0.02963 q 0.1016,-0.1778 0.2794,-0.3048 0.1778,-0.127 0.410633,-0.127 z" style="font-family:Roboto;-inkscape-font-specification:&quot;Roboto Bold&quot;;text-align:end;text-anchor:end;fill:var(--ion-color-dark);fill-opacity:1;stroke:none" id="path17599" fill="transparent" stroke="transparent"/>
      <path d="m 23.644204,23.434778 q 0.393699,0 0.592666,0.2032 0.2032,0.198966 0.2032,0.643466 v 1.507065 h -0.630767 v -1.350432 q 0,-0.499533 -0.347133,-0.499533 -0.249766,0 -0.355599,0.1778 -0.105834,0.1778 -0.105834,0.512233 v 1.159932 h -0.630766 v -1.350432 q 0,-0.499533 -0.347133,-0.499533 -0.262466,0 -0.364066,0.198967 -0.09737,0.194733 -0.09737,0.563033 v 1.087965 h -0.630766 v -2.311398 h 0.4826 l 0.08467,0.296333 h 0.03387 q 0.105833,-0.177799 0.287866,-0.258233 0.186267,-0.08043 0.385234,-0.08043 0.253999,0 0.431799,0.08467 0.1778,0.08043 0.270933,0.253999 h 0.05503 q 0.105833,-0.177799 0.292099,-0.258233 0.1905,-0.08043 0.389467,-0.08043 z" style="font-family:Roboto;-inkscape-font-specification:&quot;Roboto Bold&quot;;text-align:end;text-anchor:end;fill:var(--ion-color-dark);fill-opacity:1;stroke:none" id="path17601" fill="transparent" stroke="transparent"/>
      <path d="m 26.036036,23.430545 q 0.465666,0 0.711199,0.2032 0.249767,0.198966 0.249767,0.613832 v 1.540932 h -0.440267 l -0.122766,-0.313266 h -0.01693 q -0.148167,0.186266 -0.313267,0.270933 -0.1651,0.08467 -0.452966,0.08467 -0.309033,0 -0.512233,-0.1778 -0.2032,-0.182033 -0.2032,-0.554566 0,-0.3683 0.258233,-0.541867 0.258233,-0.177799 0.7747,-0.194733 l 0.402166,-0.0127 v -0.1016 q 0,-0.182033 -0.09737,-0.266699 -0.09313,-0.08467 -0.262466,-0.08467 -0.169333,0 -0.3302,0.0508 -0.160866,0.04657 -0.321733,0.118533 L 25.15127,23.637978 q 0.186266,-0.09737 0.410633,-0.1524 0.2286,-0.05503 0.474133,-0.05503 z m 0.0889,1.295399 q -0.3048,0.0085 -0.423333,0.110066 -0.118533,0.1016 -0.118533,0.2667 0,0.143933 0.08467,0.207433 0.08467,0.05927 0.220133,0.05927 0.2032,0 0.3429,-0.118534 0.1397,-0.122766 0.1397,-0.342899 v -0.1905 z" style="font-family:Roboto;-inkscape-font-specification:&quot;Roboto Bold&quot;;text-align:end;text-anchor:end;fill:var(--ion-color-dark);fill-opacity:1;stroke:none" id="path17603" fill="transparent" stroke="transparent"/>
      <path d="m 28.275468,25.788509 h -0.630767 v -3.21733 h 0.630767 z" style="font-family:Roboto;-inkscape-font-specification:&quot;Roboto Bold&quot;;text-align:end;text-anchor:end;fill:var(--ion-color-dark);fill-opacity:1;stroke:none" id="path17605" fill="transparent" stroke="transparent"/>
    </g>
    <g aria-label="&gt; 6,0 mmol/l" id="text2542-7" style="font-weight:700;font-size:4.23333px;font-family:Bahnschrift;-inkscape-font-specification:&quot;Bahnschrift Bold&quot;;fill:none;fill-opacity:.2;stroke:#000;stroke-linecap:round;stroke-linejoin:bevel;paint-order:fill markers stroke">
      <path d="M 2.8500792,61.074107 4.2640113,60.494141 2.8500792,59.837975 v -0.4953 l 2.0531649,1.024466 v 0.296333 l -2.0531649,0.905933 z" style="font-family:Roboto;-inkscape-font-specification:&quot;Roboto Bold&quot;;text-align:end;text-anchor:end;fill:var(--ion-color-dark);fill-opacity:1;stroke:none" id="path17574" fill="transparent" stroke="transparent"/>
      <path d="m 6.3383461,60.705807 q 0,-0.262466 0.0381,-0.516466 0.0381,-0.254 0.1312332,-0.478366 0.097367,-0.2286 0.2666998,-0.402166 0.1735665,-0.1778 0.436033,-0.275167 0.2666997,-0.1016 0.6434661,-0.1016 0.0889,0 0.2074332,0.0085 0.1185332,0.0042 0.1989665,0.02117 v 0.512232 q -0.080433,-0.02117 -0.1777999,-0.02963 -0.093133,-0.0127 -0.1862665,-0.0127 -0.3767664,0 -0.5841995,0.118533 -0.2031998,0.118534 -0.2878664,0.334433 -0.084667,0.211667 -0.097367,0.491067 h 0.0254 q 0.084666,-0.148167 0.2412997,-0.249767 0.1608666,-0.1016 0.4148664,-0.1016 0.397933,0 0.6307661,0.249767 0.2328331,0.249766 0.2328331,0.706966 0,0.491066 -0.2793997,0.770466 -0.2751665,0.2794 -0.7492994,0.2794 -0.3090331,0 -0.5587995,-0.1397 -0.2497665,-0.143933 -0.397933,-0.436033 -0.1481666,-0.296333 -0.1481666,-0.7493 z m 1.0921991,0.8128 q 0.1862665,0 0.3047998,-0.127 0.1185332,-0.131233 0.1185332,-0.402167 0,-0.220133 -0.1015999,-0.347133 -0.1015999,-0.126999 -0.3090331,-0.126999 -0.1396999,0 -0.2455331,0.0635 -0.1058333,0.05927 -0.1650999,0.156633 -0.059267,0.09737 -0.059267,0.198966 0,0.1397 0.0508,0.275167 0.0508,0.131233 0.1523998,0.220133 0.1058333,0.0889 0.2539998,0.0889 z" style="font-family:Roboto;-inkscape-font-specification:&quot;Roboto Bold&quot;;text-align:end;text-anchor:end;fill:var(--ion-color-dark);fill-opacity:1;stroke:none" id="path17576" fill="transparent" stroke="transparent"/>
      <path d="m 9.5599125,61.544007 q -0.055033,0.224366 -0.1566332,0.491066 -0.1015999,0.2667 -0.2074331,0.499533 H 8.7428799 q 0.059267,-0.249767 0.1185332,-0.5334 0.059267,-0.283633 0.0889,-0.503766 h 0.5799662 z" style="font-family:Roboto;-inkscape-font-specification:&quot;Roboto Bold&quot;;text-align:end;text-anchor:end;fill:var(--ion-color-dark);fill-opacity:1;stroke:none" id="path17578" fill="transparent" stroke="transparent"/>
      <path d="m 12.082976,60.477208 q 0,0.486833 -0.105833,0.833966 -0.1016,0.347133 -0.334433,0.533399 -0.2286,0.186267 -0.618066,0.186267 -0.5461,0 -0.8001,-0.410633 -0.2539993,-0.414867 -0.2539993,-1.142999 0,-0.491067 0.1016003,-0.8382 0.1016,-0.347133 0.334433,-0.533399 0.232833,-0.186267 0.618066,-0.186267 0.541866,0 0.800099,0.410633 0.258233,0.410633 0.258233,1.147233 z m -1.477432,0 q 0,0.516466 0.0889,0.778932 0.0889,0.258233 0.3302,0.258233 0.237066,0 0.3302,-0.258233 0.09313,-0.258233 0.09313,-0.778932 0,-0.516467 -0.09313,-0.778933 -0.09313,-0.262467 -0.3302,-0.262467 -0.2413,0 -0.3302,0.262467 -0.0889,0.262466 -0.0889,0.778933 z" style="font-family:Roboto;-inkscape-font-specification:&quot;Roboto Bold&quot;;text-align:end;text-anchor:end;fill:var(--ion-color-dark);fill-opacity:1;stroke:none" id="path17580" fill="transparent" stroke="transparent"/>
      <path d="m 16.384043,59.634775 q 0.393699,0 0.592666,0.2032 0.2032,0.198966 0.2032,0.643466 v 1.507065 h -0.630766 v -1.350432 q 0,-0.499533 -0.347133,-0.499533 -0.249767,0 -0.3556,0.1778 -0.105833,0.1778 -0.105833,0.512233 v 1.159932 H 15.10981 v -1.350432 q 0,-0.499533 -0.347133,-0.499533 -0.262466,0 -0.364066,0.198967 -0.09737,0.194733 -0.09737,0.563033 v 1.087965 h -0.630766 v -2.311398 h 0.4826 l 0.08467,0.296333 h 0.03387 q 0.105833,-0.1778 0.287867,-0.258233 0.186266,-0.08043 0.385233,-0.08043 0.253999,0 0.431799,0.08467 0.1778,0.08043 0.270933,0.253999 h 0.05503 q 0.105833,-0.1778 0.292099,-0.258233 0.1905,-0.08043 0.389467,-0.08043 z" style="font-family:Roboto;-inkscape-font-specification:&quot;Roboto Bold&quot;;text-align:end;text-anchor:end;fill:var(--ion-color-dark);fill-opacity:1;stroke:none" id="path17582" fill="transparent" stroke="transparent"/>
      <path d="m 20.541174,59.634775 q 0.3937,0 0.592666,0.2032 0.2032,0.198966 0.2032,0.643466 v 1.507065 h -0.630766 v -1.350432 q 0,-0.499533 -0.347133,-0.499533 -0.249767,0 -0.3556,0.1778 -0.105833,0.1778 -0.105833,0.512233 v 1.159932 h -0.630766 v -1.350432 q 0,-0.499533 -0.347133,-0.499533 -0.262467,0 -0.364067,0.198967 -0.09737,0.194733 -0.09737,0.563033 v 1.087965 H 17.82761 v -2.311398 h 0.482599 l 0.08467,0.296333 h 0.03387 q 0.105834,-0.1778 0.287867,-0.258233 0.186266,-0.08043 0.385233,-0.08043 0.254,0 0.431799,0.08467 0.1778,0.08043 0.270934,0.253999 h 0.05503 q 0.105833,-0.1778 0.2921,-0.258233 0.190499,-0.08043 0.389466,-0.08043 z" style="font-family:Roboto;-inkscape-font-specification:&quot;Roboto Bold&quot;;text-align:end;text-anchor:end;fill:var(--ion-color-dark);fill-opacity:1;stroke:none" id="path17584" fill="transparent" stroke="transparent"/>
      <path d="m 24.084471,60.828574 q 0,0.575733 -0.304799,0.888999 -0.300567,0.313267 -0.821266,0.313267 -0.321733,0 -0.575733,-0.1397 -0.249767,-0.1397 -0.3937,-0.4064 -0.143933,-0.270933 -0.143933,-0.656166 0,-0.575733 0.300566,-0.884766 0.300567,-0.309033 0.8255,-0.309033 0.325966,0 0.575732,0.1397 0.249767,0.1397 0.3937,0.4064 0.143933,0.262466 0.143933,0.647699 z m -1.595965,0 q 0,0.3429 0.110067,0.5207 0.1143,0.173566 0.368299,0.173566 0.249767,0 0.359833,-0.173566 0.1143,-0.1778 0.1143,-0.5207 0,-0.3429 -0.1143,-0.512233 -0.110066,-0.173566 -0.364066,-0.173566 -0.249766,0 -0.364066,0.173566 -0.110067,0.169333 -0.110067,0.512233 z" style="font-family:Roboto;-inkscape-font-specification:&quot;Roboto Bold&quot;;text-align:end;text-anchor:end;fill:var(--ion-color-dark);fill-opacity:1;stroke:none" id="path17586" fill="transparent" stroke="transparent"/>
      <path d="M 25.235936,61.988506 H 24.60517 v -3.21733 h 0.630766 z" style="font-family:Roboto;-inkscape-font-specification:&quot;Roboto Bold&quot;;text-align:end;text-anchor:end;fill:var(--ion-color-dark);fill-opacity:1;stroke:none" id="path17588" fill="transparent" stroke="transparent"/>
      <path d="m 27.293335,58.965909 -1.126066,3.022597 H 25.59577 l 1.126065,-3.022597 z" style="font-family:Roboto;-inkscape-font-specification:&quot;Roboto Bold&quot;;text-align:end;text-anchor:end;fill:var(--ion-color-dark);fill-opacity:1;stroke:none" id="path17590" fill="transparent" stroke="transparent"/>
      <path d="m 28.275468,61.988506 h -0.630767 v -3.21733 h 0.630767 z" style="font-family:Roboto;-inkscape-font-specification:&quot;Roboto Bold&quot;;text-align:end;text-anchor:end;fill:var(--ion-color-dark);fill-opacity:1;stroke:none" id="path17592" fill="transparent" stroke="transparent"/>
    </g>
    <g aria-label="&gt; 7,5 mmol/l" id="text2542-9" style="font-weight:700;font-size:4.23333px;font-family:Bahnschrift;-inkscape-font-specification:&quot;Bahnschrift Bold&quot;;fill:none;fill-opacity:.2;stroke:#000;stroke-linecap:round;stroke-linejoin:bevel;paint-order:fill markers stroke">
      <path d="M 2.8500792,97.674109 4.2640113,97.094143 2.8500792,96.437977 v -0.4953 l 2.0531649,1.024466 v 0.296333 l -2.0531649,0.905933 z" style="font-family:Roboto;-inkscape-font-specification:&quot;Roboto Bold&quot;;text-align:end;text-anchor:end;fill:var(--ion-color-dark);fill-opacity:1;stroke:none" id="path17608" fill="transparent" stroke="transparent"/>
      <path d="M 6.6600792,98.588509 7.7946116,96.103544 H 6.3044795 v -0.537633 h 2.1674648 v 0.402166 l -1.142999,2.620432 z" style="font-family:Roboto;-inkscape-font-specification:&quot;Roboto Bold&quot;;text-align:end;text-anchor:end;fill:var(--ion-color-dark);fill-opacity:1;stroke:none" id="path17610" fill="transparent" stroke="transparent"/>
      <path d="m 9.5599125,98.144009 q -0.055033,0.224366 -0.1566332,0.491066 -0.1015999,0.2667 -0.2074331,0.499533 H 8.7428799 q 0.059267,-0.249766 0.1185332,-0.533399 0.059267,-0.283633 0.0889,-0.503767 h 0.5799662 z" style="font-family:Roboto;-inkscape-font-specification:&quot;Roboto Bold&quot;;text-align:end;text-anchor:end;fill:var(--ion-color-dark);fill-opacity:1;stroke:none" id="path17612" fill="transparent" stroke="transparent"/>
      <path d="m 11.088144,96.65811 q 0.275166,0 0.491066,0.105833 0.2159,0.105834 0.338666,0.309034 0.127,0.203199 0.127,0.503766 0,0.491066 -0.304799,0.774699 -0.3048,0.2794 -0.9017,0.2794 -0.237066,0 -0.448733,-0.04233 -0.207433,-0.04233 -0.364066,-0.122767 v -0.550333 q 0.156633,0.08043 0.376766,0.1397 0.220133,0.05503 0.414867,0.05503 0.283633,0 0.431799,-0.1143 0.1524,-0.118533 0.1524,-0.364066 0,-0.4572 -0.605366,-0.4572 -0.118533,0 -0.245533,0.0254 -0.127,0.02117 -0.211667,0.04233 l -0.253999,-0.135467 0.114299,-1.540932 h 1.638299 v 0.541866 h -1.079499 l -0.05503,0.592667 q 0.07197,-0.0127 0.1524,-0.0254 0.08467,-0.01693 0.232833,-0.01693 z" style="font-family:Roboto;-inkscape-font-specification:&quot;Roboto Bold&quot;;text-align:end;text-anchor:end;fill:var(--ion-color-dark);fill-opacity:1;stroke:none" id="path17614" fill="transparent" stroke="transparent"/>
      <path d="m 16.384043,96.234777 q 0.393699,0 0.592666,0.2032 0.2032,0.198967 0.2032,0.643466 v 1.507066 h -0.630766 v -1.350433 q 0,-0.499533 -0.347133,-0.499533 -0.249767,0 -0.3556,0.1778 -0.105833,0.1778 -0.105833,0.512233 v 1.159933 H 15.10981 v -1.350433 q 0,-0.499533 -0.347133,-0.499533 -0.262466,0 -0.364066,0.198967 -0.09737,0.194733 -0.09737,0.563033 v 1.087966 h -0.630766 v -2.311398 h 0.4826 l 0.08467,0.296333 h 0.03387 q 0.105833,-0.1778 0.287867,-0.258233 0.186266,-0.08043 0.385233,-0.08043 0.253999,0 0.431799,0.08467 0.1778,0.08043 0.270933,0.254 h 0.05503 q 0.105833,-0.1778 0.292099,-0.258233 0.1905,-0.08043 0.389467,-0.08043 z" style="font-family:Roboto;-inkscape-font-specification:&quot;Roboto Bold&quot;;text-align:end;text-anchor:end;fill:var(--ion-color-dark);fill-opacity:1;stroke:none" id="path17616" fill="transparent" stroke="transparent"/>
      <path d="m 20.541174,96.234777 q 0.3937,0 0.592666,0.2032 0.2032,0.198967 0.2032,0.643466 v 1.507066 h -0.630766 v -1.350433 q 0,-0.499533 -0.347133,-0.499533 -0.249767,0 -0.3556,0.1778 -0.105833,0.1778 -0.105833,0.512233 v 1.159933 h -0.630766 v -1.350433 q 0,-0.499533 -0.347133,-0.499533 -0.262467,0 -0.364067,0.198967 -0.09737,0.194733 -0.09737,0.563033 v 1.087966 H 17.82761 v -2.311398 h 0.482599 l 0.08467,0.296333 h 0.03387 q 0.105834,-0.1778 0.287867,-0.258233 0.186266,-0.08043 0.385233,-0.08043 0.254,0 0.431799,0.08467 0.1778,0.08043 0.270934,0.254 h 0.05503 q 0.105833,-0.1778 0.2921,-0.258233 0.190499,-0.08043 0.389466,-0.08043 z" style="font-family:Roboto;-inkscape-font-specification:&quot;Roboto Bold&quot;;text-align:end;text-anchor:end;fill:var(--ion-color-dark);fill-opacity:1;stroke:none" id="path17618" fill="transparent" stroke="transparent"/>
      <path d="m 24.084471,97.428576 q 0,0.575733 -0.304799,0.889 -0.300567,0.313266 -0.821266,0.313266 -0.321733,0 -0.575733,-0.1397 -0.249767,-0.1397 -0.3937,-0.4064 -0.143933,-0.270933 -0.143933,-0.656166 0,-0.575733 0.300566,-0.884766 0.300567,-0.309033 0.8255,-0.309033 0.325966,0 0.575732,0.1397 0.249767,0.1397 0.3937,0.4064 0.143933,0.262466 0.143933,0.647699 z m -1.595965,0 q 0,0.3429 0.110067,0.5207 0.1143,0.173566 0.368299,0.173566 0.249767,0 0.359833,-0.173566 0.1143,-0.1778 0.1143,-0.5207 0,-0.342899 -0.1143,-0.512233 -0.110066,-0.173566 -0.364066,-0.173566 -0.249766,0 -0.364066,0.173566 -0.110067,0.169334 -0.110067,0.512233 z" style="font-family:Roboto;-inkscape-font-specification:&quot;Roboto Bold&quot;;text-align:end;text-anchor:end;fill:var(--ion-color-dark);fill-opacity:1;stroke:none" id="path17620" fill="transparent" stroke="transparent"/>
      <path d="M 25.235936,98.588509 H 24.60517 v -3.217331 h 0.630766 z" style="font-family:Roboto;-inkscape-font-specification:&quot;Roboto Bold&quot;;text-align:end;text-anchor:end;fill:var(--ion-color-dark);fill-opacity:1;stroke:none" id="path17622" fill="transparent" stroke="transparent"/>
      <path d="m 27.293335,95.565911 -1.126066,3.022598 H 25.59577 l 1.126065,-3.022598 z" style="font-family:Roboto;-inkscape-font-specification:&quot;Roboto Bold&quot;;text-align:end;text-anchor:end;fill:var(--ion-color-dark);fill-opacity:1;stroke:none" id="path17624" fill="transparent" stroke="transparent"/>
      <path d="m 28.275468,98.588509 h -0.630767 v -3.217331 h 0.630767 z" style="font-family:Roboto;-inkscape-font-specification:&quot;Roboto Bold&quot;;text-align:end;text-anchor:end;fill:var(--ion-color-dark);fill-opacity:1;stroke:none" id="path17626" fill="transparent" stroke="transparent"/>
    </g>
  </g>
</svg>
