<svg width="98mm" height="98mm" version="1.1" viewBox="0 0 98 98" xml:space="preserve" xmlns="http://www.w3.org/2000/svg" xmlns:xlink="http://www.w3.org/1999/xlink">
  <g stroke-linecap="round" stroke-linejoin="bevel" stroke-width=".8">
    <path d="m45.112 44.308c10.599-0.88007 21.198-1.7601 27.243-5.8351 6.0454-4.075 7.5376-11.345 8.016-16.262s-0.05734-7.4803-1.4156-10.12c-1.3583-2.6402-3.5392-5.3568-5.8158-6.9257-2.2766-1.5689-4.6489-1.9898-6.3325-3.2906-1.6837-1.3008-2.6786-3.4821-3.6735-5.6631l-24.22 2.0662c2.5636 3.5202 5.1274 7.0407 6.4474 9.8913 1.32 2.8506 1.3965 5.0315 0.72685 7.4803-0.66965 2.4488-2.0853 5.1653-3.501 7.8819" fill="#f7e2d1" stroke="#bea79c" style="paint-order:fill markers stroke"/>
    <path d="m55.911 102.97c-4.0788-27.424-8.1578-54.849-12.237-82.274 1.5254-3.5483 3.0508-7.0965 4.9909-9.6832 1.94-2.5867 4.2945-4.2116 6.5163-5.7868 2.2219-1.5752 4.311-3.1006 5.9194-3.996 1.6084-0.89538 2.7357-1.1606 3.8632-1.4259 0.66324 0.56375 1.3268 1.1277 2.1061 1.6915 0.77932 0.56373 1.6747 1.1275 2.1056 1.4425s0.39781 0.38121 0.36465 0.44753c-1.9897-0.099485-3.9791-0.19896-5.9192 0.2487-1.9401 0.44766-3.8302 1.4425-5.4718 3.5981-1.6416 2.1556-3.0344 5.4717-3.6478 9.2855-0.61346 3.8137-0.44765 8.1247 0.5639 11.557 1.0116 3.4323 2.8686 5.9857 4.9247 7.5773s4.3107 2.2216 6.5657 2.8517c5.9028 5.9028 11.806 11.806 15.238 16.15 3.4322 4.3442 4.3938 7.1298 5.9525 10.181s3.7141 6.367 5.5877 10.446 3.4653 8.9205 4.1617 14.525 0.49737 11.971 0.29841 18.338" fill="#3ae28a" stroke="#3ade13" style="paint-order:fill markers stroke"/>
  </g>
  <g stroke-linecap="round" stroke-width=".8">
    <path d="m27.09-1.9514c-0.2296 2.5256-0.45918 5.0509 0.93761 7.4233s4.4195 4.5915 7.2893 6.3899c2.8698 1.7983 5.5864 3.1758 8.303 6.6387s5.4332 9.0109 7.4037 14.942 3.1949 12.244 3.941 19.017c0.7461 6.7726 1.0139 14.004 1.2818 18.347 0.26787 4.3429 0.5357 5.7968 1.8941 8.5327 1.3584 2.7358 3.8072 6.7534 5.1463 10.561s1.5687 7.4035 1.7983 11c0 0-55.673 0.80352-55.673 0.80352 1.2244-6.1603 2.4488-12.32 3.348-18.041 0.89919-5.7203 1.4731-11.001 1.3584-16.09-0.11476-5.089-0.91826-9.9865-3.788-18.366-2.8697-8.3797-7.8057-20.241-12.742-32.103l9.5275-6.3134v-14.349" fill="#f7e2d1" stroke="#bea79c" stroke-linejoin="bevel" style="paint-order:fill markers stroke"/>
    <g fill="#ffe28a" stroke="#ffde13">
      <path d="m-2.448 39.345c1.2271 2.7859 2.4541 5.5714 5.2896 7.5445 2.8355 1.973 7.279 3.1337 12.668 1.4921 5.3888-1.6416 11.723-6.0852 17.922-8.6959 6.1998-2.6107 12.265-3.3885 18.331-4.1663-0.22836-1.0016-0.45665-2.0029-0.737-2.9239s-0.61286-1.7617-0.94524-2.602c-3.8136 0.49742-7.6269 0.99481-11.64 2.1223-4.0127 1.1275-8.2241 2.885-11.673 3.482-3.4488 0.59698-6.1352 0.03318-8.8213-0.53057l3.9794-16.415c0.6964-2.2882 1.3927-4.5761 4.045-5.4636 2.6523-0.88745 7.2597-0.37407 11.867 0.13936l-4.4717-3.2315c-3.5151 0-7.03 0-11.606 2.3545-4.5765 2.3545-10.214 7.0634-15.851 11.772" stroke-linejoin="round" style="paint-order:fill markers stroke"/>
      <path d="m9.3526 101.43c0.80821-4.3297 1.6165-8.6596 2.3574-13.394s1.4145-9.8723 2.088-15.01c7.1588 1.3663 14.318 2.7327 21.448 2.6845 7.1299-0.04817 14.231-1.5106 21.332-2.9732 0.19244 1.1354 0.38493 2.2711 0.84683 3.7529 0.4619 1.4818 1.1932 3.31 2.2612 5.3787s2.4729 4.378 3.4927 7.0048c1.0199 2.6268 1.6549 5.5711 1.9243 7.8996 0.26937 2.3285 0.17316 4.0412 0.07695 5.7537" stroke-linejoin="round" style="paint-order:fill markers stroke"/>
      <path d="m13.278 77.309c7.5632 1.4607 15.126 2.9213 22.468 2.8433 7.3416-0.07799 14.462-1.6945 21.582-3.3109" stroke-linejoin="bevel" style="paint-order:fill markers stroke"/>
    </g>
  </g>
  <g stroke-linecap="round" stroke-linejoin="bevel" stroke-width=".8">
    <path d="m11.729 54.816c-0.43438 0.39366-0.86878 0.78733-1.0249 1.6767s-0.03396 2.2736 0.08822 3.6583l2.362 2e-6" fill="#f7e2d1" stroke="#bea79c" style="paint-order:fill markers stroke"/>
    <path d="m80.008 16.07c2.3724 6.9642 4.7447 13.928 6.5622 20.643 1.8175 6.7152 3.0801 13.182 3.6732 17.199 0.59304 4.0176 0.51652 5.5863-1.2053 7.2889s-5.0889 3.5392-11.995 4.8401c-6.9065 1.301-17.352 2.0662-25.292 2.5828-7.9396 0.51656-13.373 0.78439-17.697 1.2627-4.3238 0.47828-7.5378 1.167-10.924 1.014-3.3862-0.153-6.9446-1.1478-8.8294-1.8169-1.8848-0.66909-2.0958-1.0126-2.1206-1.4108-0.02479-0.39816 0.1369-0.8509 0.29854-1.3035-0.61424-0.2263-1.2282-0.45248-1.4061-0.77579-0.17798-0.32331 0.08068-0.74364 0.33931-1.1639-0.54958-0.2694-1.0988-0.53865-1.2607-1.002-0.16182-0.46338 0.06452-1.1209 0.29082-1.7782-0.44182-0.2263-0.88332-0.45243-0.98049-0.89966-0.097168-0.44722 0.15068-1.1153 0.60882-1.4602 0.45815-0.34491 1.1263-0.36647 2.5864-0.41496 1.4602-0.04849 3.7123-0.12392 6.2663 0.3934 2.554 0.51733 5.4096 1.6272 8.3568 1.8319 2.9472 0.20465 5.986-0.49578 12.91-2.3655s17.732-4.9084 28.54-7.9473c-1.9828-5.485-3.9655-10.97-5.3341-15.253s-2.1229-7.3654-2.8773-10.448" fill="#f7e2d1" stroke="#bea79c" style="paint-order:fill markers stroke"/>
    <path d="m57.212 58.194 0.69278 5.2536 15.703-2.4825 0.34639 2.1361 7.4474-5.1381-9.1216-4.099 0.34639 2.367z" fill="#0420ff" stroke="#0420ff" style="paint-order:fill markers stroke"/>
  </g>
  <g fill="#f7e2d1" stroke="#bea79c" stroke-linecap="round" stroke-linejoin="bevel" stroke-width=".8">
    <path d="m-3.9028 27.664c2.5255-1.1479 5.0507-2.2958 7.5761-3.4437 0.38263-3.2523 0.76523-6.5045 1.7792-8.8386s2.6593-3.7499 3.7115-5.1655c1.0522-1.4157 1.5113-2.8314 2.6019-3.922 1.0906-1.0906 2.8124-1.8559 4.0942-2.4298s2.1236-0.95657 2.6018-1.6834c0.47822-0.72686 0.59303-1.7984 0.70782-2.8698-1.2244 0-2.4486 0-3.4435 0.26783-0.99495 0.26783-1.7602 0.8035-3.2235 1.4107-1.4633 0.60719-3.6248 1.2859-5.7862 1.9647l0.00881-4.1037-6.8401-0.34297s-2.2958 6.1986-2.2958 6.1986c-0.49742 4.8977-0.99486 9.7955-1.4923 14.693" style="paint-order:fill markers stroke"/>
    <path d="m33.059 30.534c-12.244 6.6577-24.488 13.315-36.732 19.973 0 0-1.8366-25.024-1.8366-25.024 3.5202-1.1862 7.0405-2.3724 10.58-3.9794 3.5393-1.6071 7.0977-3.635 10.082-5.1272 2.9846-1.4923 5.3951-2.4488 7.404-2.774 2.0089-0.32518 3.6159-0.01908 5.2227 0.28697" style="paint-order:fill markers stroke"/>
  </g>
</svg>
