<svg width="98mm" height="98mm" version="1.1" viewBox="0 0 98 98" xml:space="preserve" xmlns="http://www.w3.org/2000/svg" xmlns:xlink="http://www.w3.org/1999/xlink">
  <g stroke-linecap="round" stroke-linejoin="bevel">
    <path d="m100.69 102.08c-14.061-0.0579-28.123-0.11573-42.185-0.1736l2.7776-68.919-6.076-17.881c3.4141-4.745 6.8282-9.49 10.011-11.689 3.1828-2.1989 6.134-1.8517 8.5933-1.7071 2.4593 0.14464 4.4267 0.086779 6.0758-0.81014 1.6491-0.89692 2.98-2.6329 4.3109-4.3689l21.179-0.1736" fill="#f7e2d1" stroke="#bea79c" stroke-width=".8" style="paint-order:fill markers stroke"/>
    <path d="m65.039 15.534c1.9062-2.4752 3.8124-4.9504 5.4341-7.3403 1.6217-2.3899 2.9589-4.6944 4.2961-6.9989 0.62592 0.14225 1.2521 0.28458 1.8211 0.28452 0.56896-6.12e-5 1.0809-0.14226 1.593-0.28452-1.0242 1.7355-2.0485 3.4711-2.9874 5.3489-0.93889 1.8778-1.7924 3.8978-1.6927 5.8183 0.09971 1.9205 1.1524 3.7414 2.5323 4.8224 1.3799 1.081 3.087 1.4224 5.05 1.2374 1.9631-0.18499 4.1822-0.89625 6.5151-2.0343 2.3329-1.138 4.7797-2.7028 6.6432-4.2391s3.1438-3.0442 4.4241-4.5521c0 0 2.7313 95.68 2.7313 95.68l-37.214 0.93887 1.5363-76.988" fill="#3ae28a" stroke="#3ade13" stroke-width=".5" style="paint-order:fill markers stroke"/>
  </g>
  <g stroke-linecap="round" stroke-linejoin="bevel">
    <path d="m16.492 101.38c0.6365-5.6707 1.273-11.342 2.3146-15.45 1.0416-4.1086 2.4882-6.6547 3.4141-8.9693s1.3309-4.3978 0.0579-10.937c-1.273-6.539-4.2242-17.534-7.1754-28.528-3.1248 3.1248-6.2496 6.2496-9.2586 8.4774s-5.9024 3.5588-8.7957 4.8897l0.5208-19.617c3.877-1.8517 7.7542-3.7035 10.503-5.4684 2.7486-1.7649 4.3688-3.443 6.3075-4.6872 1.9386-1.2442 4.1952-2.0542 6.452-2.8644 0.32895-0.69142 0.65784-1.3827 0.85651-1.9424 0.19867-0.55971 0.26706-0.98801 0.33543-1.4161-2.249 0.71444-4.4979 1.4288-6.2011 0.97608s-2.8605-2.073-3.6707-3.78c-0.8102-1.7071-1.2732-3.5012-1.7361-5.2951-1.2152-0.40506-2.4301-0.81002-2.98-1.3597-0.54991-0.54968-0.43418-1.2441 0.2313-2.4015 0.66548-1.1574 1.8807-2.7777 3.0959-4.398 0 0 25.693-0.3472 25.693-0.3472 0.05787 1.5624 0.11574 3.1251 1.1574 5.8159s3.067 6.5099 4.6873 8.8246c1.6203 2.3146 2.8355 3.1247 6.0471 2.4591 3.2116-0.66561 8.4194-2.8066 11.718-3.5877s4.6873-0.20244 6.5679 0.8392c1.8807 1.0416 4.2532 2.5461 5.6418 5.4974 1.3887 2.9513 1.7937 7.349 1.8805 14.004 0.08678 6.6547-0.14468 15.566-1.0995 23.031-0.95483 7.4648-2.6329 13.483-3.6745 17.649-1.0416 4.1664-1.4466 6.481-1.0125 9.0562 0.4341 2.5751 1.7071 5.4105 2.7487 8.5643s1.8517 6.6257 2.6617 10.097" fill="#f7e2d1" stroke="#bea79c" stroke-width=".8" style="paint-order:fill markers stroke"/>
    <g fill="#ffe28a" stroke="#ffde13" stroke-width=".5">
      <path d="m18.436 18.863 3.0727-1.1096c-0.35289 8.9839-0.70578 17.968 1.3985 22.072 2.1043 4.1044 6.6653 3.3296 10.031 2.2628s5.5355-2.4255 7.2438-4.453c1.7082-2.0276 2.9547-4.724 4.0901-8.1776 1.1354-3.4536 2.1596-7.6643 2.6575-10.196 0.49792-2.5321 0.46946-3.3859 0.44101-4.2394 0 0 2.6459-0.51212 2.6459-0.51212 0.08535 2.6744 0.17071 5.349 0.3699 7.4118s0.51214 3.5137 1.195 7.1412c0.68282 3.6275 1.7354 9.4311 2.7881 15.235-3.5848 3.8409-7.1696 7.6817-10.74 8.7913s-7.1267-0.51196-10.271-1.3371c-3.1439-0.82516-5.8751-0.85361-8.4073-0.86784-2.5322-0.01423-4.8651-0.01423-6.8567-0.92453-1.9916-0.91031-3.6417-2.7311-4.6518-4.9076-1.0101-2.1765-1.38-4.7086-0.51224-7.6392 0.86773-2.9306 2.9731-6.2593 5.0785-9.5881l0.42676-8.962h-2e-6z" style="paint-order:fill markers stroke"/>
      <path d="m16.644 102c0.22759-4.2674 0.4552-8.535 1.266-12.618 0.81084-4.0828 2.2049-7.9805 3.1438-10.313 0.93889-2.333 1.4225-3.1012 1.5933-4.0684 0.17074-0.96723 0.02846-2.134-0.1138-3.3005 8.6573 2.4282 17.315 4.8565 25.125 5.2832 7.8099 0.4267 14.772-1.1479 21.734-2.7226-0.45521 1.6501-0.91048 3.3005-0.93886 5.0218-0.02839 1.7214 0.36992 3.5137 1.0954 5.8041 0.72553 2.2903 1.7782 5.0785 2.5463 7.6533 0.76815 2.5748 1.2518 4.9362 1.7354 7.2973" style="paint-order:fill markers stroke"/>
      <path d="m22.021 76.732c6.7147 2.0201 13.429 4.0401 20.48 4.7744 7.0509 0.7343 14.438 0.18303 18.791-0.2153 4.3531-0.39833 5.6717-0.64366 6.9901-0.88895" style="paint-order:fill markers stroke"/>
    </g>
  </g>
  <g fill="#f7e2d1" stroke="#bea79c" stroke-linecap="round" stroke-linejoin="bevel" stroke-width=".8">
    <path d="m100.51 11.458c-5.9603 9.2587-11.92 18.517-17.881 27.776-2.8933 0.23146-5.7864 0.46291-10.213 2.5172s-10.387 5.9313-16.347 9.8083l-0.868 9.3744c7.2333-1.0995 14.467-2.199 20.861-3.6746s11.949-3.3273 15.161-4.8029 4.0795-2.575 5.15-3.7613c1.0706-1.1863 2.3436-2.4593 3.6166-3.7324" style="paint-order:fill markers stroke"/>
    <path d="m18.191 50.116c-0.99054 1.3118-1.9811 2.6236-2.6571 3.8619-0.67599 1.2382-1.0374 2.4028-0.95699 3.728 0.0804 1.3253 0.60243 2.811 2.2021 3.8215 1.5997 1.0105 4.2768 1.5459 6.5389 1.6797 2.2621 0.13381 4.1091-0.13387 5.9563-0.40158 0 0 6.5054-8.0314 6.5054-8.0314-4.2534-0.0039-8.5065-0.0079-11.438-0.78409-2.9314-0.77624-4.5412-2.3253-6.1508-3.8741z" style="paint-order:fill markers stroke"/>
    <path d="m46.312 62.218c-2.2454 1.6217-4.4908 3.2434-6.5492 4.522s-3.9295 2.2142-4.8651 2.3391c-0.93566 0.1249-0.93566-0.5612-0.9512-0.95101-0.01554-0.38981-0.04683-0.48368-0.07802-0.57724-1.3098 0.49899-2.6195 0.99792-3.2434 0.85772-0.62382-0.1402-0.56142-0.9201-0.49905-1.6998 0.43661-0.24949 0.87332-0.49904 1.1384-0.65497 0.26508-0.15593 0.35857-0.21826 0.45213-0.28064-1.9336 0.77967-3.867 1.5593-4.7559 1.4658-0.88891-0.09343-0.73298-1.0602-0.37428-1.7309 0.3587-0.67065 0.91999-1.0448 1.4814-1.4191-1.341 0.87323-2.682 1.7464-3.5707 1.8869-0.88875 0.1405-1.3254-0.45203-1.1695-1.1695 0.15582-0.71744 0.90429-1.5595 2.0738-2.7134 1.1695-1.1539 2.76-2.6197 4.0699-3.5865 1.3099-0.96682 2.3389-1.4346 3.3681-1.9024-1.0915-0.37424-2.1828-0.74837-3.3056-0.79523-1.1228-0.04686-2.2767 0.23382-2.994 0.01569-0.71733-0.21813-0.998-0.93541-1.0448-1.3878-0.04684-0.45237 0.14028-0.63949 0.3274-0.82661 1.4658 0.15593 2.9318 0.3119 5.4268 0.37426 2.495 0.06236 6.019 0.03117 9.5428-1.4e-5" style="paint-order:fill markers stroke"/>
  </g>
  <g stroke="#bea79c" stroke-linecap="round" stroke-linejoin="bevel">
    <path d="m72.603 27.32c-1.3099 5.6138-2.6197 11.227-4.2415 16.295-1.6217 5.0679-3.5553 9.5898-5.0055 13.27-1.4502 3.6801-2.417 6.518-3.9139 8.5451-1.4969 2.027-3.524 3.2433-5.5511 3.602-2.027 0.3587-4.0541-0.14027-6.4712-2.3545-2.417-2.2142-5.2238-6.1436-9.0598-12.974-3.836-6.83-8.7011-16.56-11.336-21.909-2.6353-5.3485-3.0409-6.3156-3.4463-7.2824l8.1397-3.5553 16.092 19.18c0.31187-3.181 0.62371-6.3619 1.3098-9.4026 0.6861-3.0408 1.7464-5.9411 2.8068-8.8416" fill="#f7e2d1" stroke-width=".8" style="paint-order:fill markers stroke"/>
    <path d="m21.706 16.279c-0.12477 1.0606-0.24952 2.1209-1.0603 3.0564s-2.3077 1.7463-4.1946 2.9314c-1.8868 1.1851-4.1634 2.7444-7.3289 4.5845-3.1655 1.84-7.2198 3.9607-11.274 6.0814l0.65492 17.215c2.7444-1.6217 5.4889-3.2435 9.091-6.0815 3.6021-2.838 8.0617-6.8922 10.853-9.8549 2.7912-2.9627 3.9139-4.8339 5.5357-6.1594 1.6218-1.3255 3.7425-2.1052 6.0815-3.072 2.339-0.9668 4.8963-2.1207 6.9078-3.4149 2.0115-1.2942 3.4773-2.7288 4.5064-4.1633 1.0291-1.4345 1.6217-2.8691 1.9336-3.867 0.31189-0.99792 0.34307-1.5593 0.21845-1.8245-0.12463-0.26522-0.4053-0.23404-0.56134-0.40541-0.15604-0.17138-0.18723-0.54561-0.20283-0.85749-0.0156-0.31188-0.0156-0.56137-0.17144-0.65508-0.15583-0.093712-0.4677-0.03134-0.67048-0.2027-0.20278-0.17136-0.29634-0.57678-0.48338-0.76406-0.18704-0.18729-0.46772-0.1561-0.71727-0.42102-0.24955-0.26492-0.46785-0.82627-0.77976-0.96679s-0.71733 0.14016-1.6841 0.70152c-0.96679 0.56136-2.4949 1.4034-3.6021 2.1831-1.1072 0.7797-1.7933 1.497-3.0251 2.1363s-3.0094 1.2007-4.2726 1.7932c-1.2631 0.59257-2.0116 1.2163-2.7601 1.84" fill="#f7e2d1" stroke-width=".8" style="paint-order:fill markers stroke"/>
    <g fill="none">
      <path d="m32.742 14.616c1.6809-0.82911 3.3618-1.6582 4.6734-2.703 1.3117-1.0448 2.2543-2.3054 3.1969-3.566" stroke-width=".5" style="paint-order:fill markers stroke"/>
      <g stroke-width=".5">
        <path d="m34.65 16.558c1.7036-0.99946 3.4072-1.9989 4.6223-3.1686 1.2151-1.1697 1.942-2.5098 2.6688-3.85" style="paint-order:fill markers stroke"/>
        <path d="m36.013 18.773c1.6922-1.1925 3.3844-2.385 4.52-3.6512 1.1356-1.2662 1.7148-2.6063 2.2941-3.9466" style="paint-order:fill markers stroke"/>
        <path d="m22.195 14.814c-0.1599 0.0099-0.32008 0.01973-0.23489-0.06606 0.08518-0.08578 0.41566-0.26704 1.7544-0.78202 1.3388-0.51498 3.6838-1.3629 5.6346-2.7807s3.5067-3.4052 5.0626-5.3927" style="paint-order:fill markers stroke"/>
      </g>
    </g>
    <g fill="#3ae28a">
      <path d="m27.696 64.37c1.0542-0.69713 2.1083-1.3942 3.1624-2.0913" stroke-width=".8" style="paint-order:fill markers stroke"/>
      <path d="m31.267 66.002c0.83321-0.42511 1.6663-0.85016 2.2273-1.1817 0.56104-0.33153 0.85007-0.56955 1.1391-0.80756" stroke-width=".8" style="paint-order:fill markers stroke"/>
      <path d="m33.817 67.533c0.74823-0.30609 1.4963-0.61213 2.0488-0.91815 0.55252-0.30602 0.90956-0.61206 1.2666-0.91808" stroke-width=".8" style="paint-order:fill markers stroke"/>
    </g>
  </g>
</svg>
