<?xml version="1.0" encoding="UTF-8" standalone="no"?>
<svg
   width="98mm"
   height="98mm"
   version="1.1"
   viewBox="0 0 98 98"
   xml:space="preserve"
   id="svg577"
   sodipodi:docname="heimlich-st1.svg"
   inkscape:version="1.2.2 (b0a8486541, 2022-12-01)"
   xmlns:inkscape="http://www.inkscape.org/namespaces/inkscape"
   xmlns:sodipodi="http://sodipodi.sourceforge.net/DTD/sodipodi-0.dtd"
   xmlns="http://www.w3.org/2000/svg"
   xmlns:svg="http://www.w3.org/2000/svg"><defs
   id="defs581" /><sodipodi:namedview
   id="namedview579"
   pagecolor="#ffffff"
   bordercolor="#000000"
   borderopacity="0.25"
   inkscape:showpageshadow="2"
   inkscape:pageopacity="0.0"
   inkscape:pagecheckerboard="0"
   inkscape:deskcolor="#d1d1d1"
   inkscape:document-units="mm"
   showgrid="false"
   inkscape:zoom="2.1382653"
   inkscape:cx="184.96302"
   inkscape:cy="185.19685"
   inkscape:window-width="1920"
   inkscape:window-height="1001"
   inkscape:window-x="0"
   inkscape:window-y="0"
   inkscape:window-maximized="1"
   inkscape:current-layer="svg577" />
  <g
   fill-opacity=".5044"
   stroke-linecap="round"
   stroke-linejoin="bevel"
   id="g515">
    <path
   d="m19.553 99.336c2.9678-8.467 5.9357-16.934 7.0123-23.495 1.0766-6.5613 0.26193-11.217 0.34919-17.327 0.08726-6.1104 1.0765-13.675 3.0552-18.622 1.9786-4.9466 4.9464-7.2743 7.3324-10.286 2.3859-3.0115 4.1898-6.7066 6.0957-9.6891 1.9059-2.9825 3.9135-5.252 6.0523-6.3722 2.1388-1.1203 4.4082-1.0912 6.1541-0.69825 1.7459 0.39291 2.9679 1.1494 5.4848 1.7458 2.5169 0.59642 6.3284 1.0328 10.46 2.0222 4.1318 0.98935 8.5835 2.5314 11.333 3.5644 2.7497 1.033 3.7971 1.5567 4.0006 2.7351 0.2035 1.1784-0.43662 3.0115-0.71293 3.9134-0.27631 0.90189-0.18902 0.8728 1.0331 1.5276 1.2222 0.6548 3.5789 1.9932 4.9318 3.6518 1.3529 1.6586 1.702 3.6371 1.1637 5.4992-0.53834 1.8621-1.964 3.6079-2.6623 4.5246s-0.66916 1.004 1.4e-4 1.8623c0.6693 0.85836 1.9786 2.4877 1.6584 4.0879-0.32017 1.6002-2.2696 3.1714-3.2735 4.0735-1.0039 0.90211-1.0621 1.1349-0.85833 2.2697 0.20374 1.1349 0.66927 3.1715 0.4074 4.4662-0.26187 1.2947-1.2511 1.8475-2.0659 2.4585s-1.4549 1.2803-2.0658 1.6003c-0.6109 0.32007-1.1928 0.29098-1.5276 0.36377-0.33478 0.07279-0.42207 0.24737-0.74214 1.2513-0.32007 1.0039-0.87288 2.8369-2.5896 6.4013-1.7167 3.5644-4.5972 8.8598-7.3031 11.886-2.7059 3.026-5.2373 3.7825-7.1723 6.5614-1.9351 2.7789-3.2735 7.5798-4.6119 12.381"
   fill="#f7e2d1"
   stroke="#bea79c"
   stroke-width=".8"
   style="paint-order:fill markers stroke;fill:#f7e2d1;fill-opacity:1"
   id="path503" />
    <g
   fill="#eee7e3"
   stroke="#e0d3c8"
   stroke-width=".2"
   id="g513">
      <path
   d="m71.053 62.904c-0.10441-0.50117-0.20889-1.0027-0.15148-1.5408 0.0574-0.53813 0.2768-1.1127 0.35011-1.4105 0.07332-0.29778 1.89e-4 -0.31867-0.55879-0.32916-0.55898-0.01049-1.6037-0.01049-2.1732 0.04698-0.56953 0.05747-0.66356 0.1724-0.71056 0.44415-0.047 0.27176-0.047 0.7001 0.15686 1.1075 0.20386 0.40745 0.61131 0.794 1.0185 1.1803"
   style="paint-order:fill markers stroke"
   id="path505" />
      <path
   d="m70.113 59.519c-0.16706-0.50116-0.33422-1.0026-0.33952-1.5146-0.0053-0.51201 0.15141-1.0344 0.20897-1.3373 0.05756-0.30291 0.01578-0.38648-0.22448-0.40754-0.24026-0.02107-0.67904 0.02072-1.3111 0.0573-0.63207 0.03657-1.4574 0.06792-2.0842 0.03139-0.62682-0.03652-1.0552-0.141-1.3165-0.16195-0.26131-0.02095-0.35534 0.04173-0.45987 0.22988s-0.21946 0.50157-0.28734 0.88296c-0.06789 0.38139-0.08878 0.83062 0.0681 1.144 0.15688 0.31338 0.49119 0.49099 1.024 0.65287 0.53282 0.16188 1.2641 0.30815 1.9952 0.45435"
   style="paint-order:fill markers stroke"
   id="path507" />
      <path
   d="m71.43 55.884c-0.25058-0.50116-0.50132-1.0026-0.49098-1.6296 0.01034-0.62694 0.28197-1.3791 0.33437-1.8336 0.0524-0.45441-0.11476-0.61112-0.38641-0.67395-0.27166-0.06282-0.64776-0.03148-1.3007-0.02102s-1.5828 1.4e-5 -2.3664 0.14103c-0.78364 0.14102-1.4209 0.43354-1.912 0.7888-0.49111 0.35526-0.83587 0.77315-1.0448 1.1284s-0.2821 0.64782-0.2402 0.94564c0.0419 0.29782 0.19861 0.60079 0.4651 0.86714 0.26649 0.26635 0.64259 0.49619 1.259 0.61102 0.61639 0.11483 1.4731 0.11483 2.3295 0.11483"
   style="paint-order:fill markers stroke"
   id="path509" />
      <path
   d="m71.586 46.011c-0.46988-0.51165-0.94002-1.0236-1.3057-1.5355-0.36571-0.51191-0.62689-1.0238-0.91936-1.3008-0.29247-0.277-0.61633-0.31879-0.98728-0.28749-0.37094 0.0313-0.78884 0.13578-1.212 0.34996-0.4232 0.21418-0.85154 0.53805-1.3948 1.0291s-1.2015 1.1492-1.5672 1.5567-0.43882 0.56422-0.44399 0.85162c-0.0052 0.2874 0.05751 0.70529 0.19863 1.0919s0.36051 0.74177 0.71573 0.86697c0.35522 0.12519 0.84625 0.02072 1.5984-0.24048 0.7522-0.2612 1.7656-0.67909 2.7789-1.0969"
   style="paint-order:fill markers stroke"
   id="path511" />
    </g>
  </g>
  <g
   fill="none"
   stroke="#bea79c"
   stroke-linecap="round"
   stroke-linejoin="bevel"
   id="g569">
    <path
   d="m86.011 27.369c-1.6685 4.5525-3.337 9.1048-5.1314 11.861s-3.7147 3.7163-5.3151 4.5456-2.8806 1.5276-4.2045 2.255c-1.3239 0.72743-2.6914 1.4839-3.8262 1.9786-1.1347 0.49465-2.0367 0.72742-2.6186 0.66939-0.58192-0.05803-0.84378-0.40718-1.0039-1.0619-0.16014-0.65469-0.21833-1.6149-0.04378-2.6042 0.17455-0.98937 0.5819-2.0077 1.6294-3.4336 1.0475-1.4258 2.7351-3.2589 3.6516-4.2627s1.062-1.1784 1.2948-1.9058 0.55282-2.0076 0.65471-2.9677-0.0145-1.6003-0.29079-2.0222c-0.27629-0.42198-0.71273-0.62565-1.7457-0.94576-1.033-0.3201-2.6623-0.75654-3.7244-1.062s-1.5567-0.48008-2.1969-0.43652c-0.64022 0.04357-1.4258 0.30543-2.3133 0.61095s-1.8767 0.65467-2.546 0.98931c-0.6693 0.33464-1.0185 0.6547-1.4258 1.1057s-0.87292 1.0329-1.5712 1.6876c-0.6983 0.65465-1.6294 1.3821-2.5023 1.9494-0.87287 0.56738-1.6876 0.97472-2.284 1.2366-0.59646 0.26187-0.97471 0.37826-1.2803 0.65475-0.30563 0.2765-0.5384 0.71294-1.0766 1.0766-0.5382 0.36364-1.382 0.6546-2.1385 0.91647-0.75652 0.26187-1.4257 0.49464-2.284 0.34926-0.85828-0.14538-1.9057-0.66911-2.9535-1.193"
   stroke-width=".8"
   style="paint-order:fill markers stroke"
   id="path517" />
    <g
   stroke-width=".8"
   id="g545">
      <path
   d="m90.133 42.688c-4.0181 3.9759-8.0361 7.9517-10.933 10.144-2.8969 2.1923-4.6726 2.601-6.3636 2.9052s-3.297 0.50397-4.7359 0.58603c-1.4389 0.08206-2.7106 0.0464-3.4111-0.3909-0.70058-0.4373-0.82977-1.2765-0.91175-2.1716-0.08198-0.89509-0.1167-1.846 0.14279-2.6956 0.25949-0.84963 0.81321-1.5977 1.367-2.3458"
   style="paint-order:fill markers stroke"
   id="path519" />
      <path
   d="m88.207 52.878c-2.412 2.3058-4.824 4.6115-6.5995 5.7303-1.7755 1.1188-2.9147 1.0504-5.1018 1.0305-2.1871-0.01998-5.422 0.0084-7.4951-0.02053-2.0732-0.02892-2.9845-0.11516-3.6478-0.42456-0.66325-0.3094-1.0783-0.84219-1.1589-1.3644-0.08063-0.52226 0.1734-1.0337 0.42748-1.5453"
   style="paint-order:fill markers stroke"
   id="path521" />
      <path
   d="m82.321 63.422c-1.8159 0.14186-3.632 0.28375-5.0031 0.32222-1.3711 0.03847-2.2972-0.02651-3.4325-0.1695-1.1353-0.14298-2.4795-0.36399-3.6135-0.71976-1.134-0.35577-2.0575-0.84638-2.4264-1.3844-0.36891-0.53805-0.1828-1.1235 0.0034-1.7091"
   style="paint-order:fill markers stroke"
   id="path523" />
      <path
   d="m44.224 38.708c-0.66851 0.28203-1.3372 0.56411-2.5908 0.92978-1.2537 0.36567-3.0924 0.8149-4.9314 1.2642"
   style="paint-order:fill markers stroke"
   id="path525" />
      <path
   d="m49.803 35.824c-0.61617 0.07311-1.2326 0.14624-1.9586 0.09405-0.72607-0.05219-1.5619-0.2298-2.398-0.40747"
   style="paint-order:fill markers stroke"
   id="path527" />
      <path
   d="m57.451 30.151c-0.66832-0.35505-1.337-0.71026-1.9221-1.5669-0.58516-0.85663-1.0866-2.2148-1.5882-3.5733"
   style="paint-order:fill markers stroke"
   id="path529" />
      <path
   d="m63.563 27.832c-0.27152-0.72056-0.54315-1.4414-0.58502-2.1624-0.04187-0.72095 0.14618-1.4418 0.33428-2.1629"
   style="paint-order:fill markers stroke"
   id="path531" />
      <path
   d="m69.988 29.619c0.13577-0.57442 0.27159-1.149 0.7157-1.6193 0.4441-0.47026 1.1963-0.83592 1.9484-1.2015"
   style="paint-order:fill markers stroke"
   id="path533" />
      <path
   d="m71.147 31.248c0.17756-0.59534 0.35516-1.1908 0.90372-1.7969 0.54856-0.60607 1.4679-1.2225 2.3872-1.8388"
   style="paint-order:fill markers stroke"
   id="path535" />
      <path
   d="m70.458 35.856c0.6794 0.20905 1.3585 0.418 2.0373 0.62685"
   style="paint-order:fill markers stroke"
   id="path537" />
      <path
   d="m64.189 58.14c-0.49108 1.4942-0.98212 2.9881-2.4343 4.4246-1.4522 1.4364-3.8655 2.8155-6.2789 4.1946"
   style="paint-order:fill markers stroke"
   id="path539" />
      <path
   d="m65.38 59.237c-0.40713-0.14615-0.81458-0.29241-1.3789 0.45983-0.56436 0.75224-1.2852 2.4029-2.1158 4.4245s-1.7708 4.414-3.4267 6.305c-1.6559 1.8909-4.0274 3.2804-6.3991 4.67"
   style="paint-order:fill markers stroke"
   id="path541" />
      <path
   d="m59.488 69.142c-0.68959 1.7449-1.3791 3.4896-2.241 5.088-0.86192 1.5984-1.8962 3.0506-2.9305 4.5028"
   style="paint-order:fill markers stroke"
   id="path543" />
    </g>
    <path
   d="m82.901 63.186c-0.3759-0.54297-0.75201-1.0862-1.1283-1.6298"
   stroke-width=".5"
   style="paint-order:fill markers stroke"
   id="path547" />
    <g
   stroke-width=".5"
   id="g567">
      <path
   d="m81.522 63.374c-0.19828-0.27134-0.39679-0.54297-0.59551-0.81491"
   style="paint-order:fill markers stroke"
   id="path549" />
      <path
   d="m80.613 59.112c-0.37592-0.61609-0.75203-1.2325-1.1283-1.8492"
   style="paint-order:fill markers stroke"
   id="path551" />
      <path
   d="m79.359 59.488c-0.3968-0.60565-0.79381-1.2116-1.191-1.8179"
   style="paint-order:fill markers stroke"
   id="path553" />
      <path
   d="m76.194 54.787c-0.37594-0.72056-0.75205-1.4414-1.1283-2.1626"
   style="paint-order:fill markers stroke"
   id="path555" />
      <path
   d="m77.103 53.972c-0.25057-0.44893-0.50131-0.89817-0.75222-1.3477"
   style="paint-order:fill markers stroke"
   id="path557" />
      <path
   d="m79.767 40.494c-0.64743-0.3446-1.2952-0.68937-1.9432-1.0343"
   style="paint-order:fill markers stroke"
   id="path559" />
      <path
   d="m80.331 39.617c-0.5743-0.37591-1.1489-0.75202-1.7238-1.1283"
   style="paint-order:fill markers stroke"
   id="path561" />
      <path
   d="m93.213 37.204c-0.65787-0.31327-1.3161-0.6267-1.7915-0.95573-0.4754-0.32903-0.76793-0.67379-1.0607-1.0188"
   style="paint-order:fill markers stroke"
   id="path563" />
      <path
   d="m92.836 38.614c-0.45937-0.18792-0.91906-0.37598-1.3631-0.64234s-0.87238-0.61112-1.301-0.95612"
   style="paint-order:fill markers stroke"
   id="path565" />
    </g>
  </g>
  <g
   fill="#0420ff"
   stroke="#0420ff"
   stroke-linecap="round"
   id="g575">
    <ellipse
   cx="46.112"
   cy="45.516"
   rx="4.1258"
   ry="4.0765"
   fill-opacity=".18431"
   stroke-width=".68382"
   style="paint-order:stroke fill markers"
   id="ellipse571" />
    <path
   d="m11.892 9.5239 13.839 12.891 2.3152-2.6835 2.5257 12.207-12.102-3.2097 2.4204-1.6838-14.628-12.523"
   fill-opacity=".5044"
   stroke-linejoin="bevel"
   stroke-width=".2"
   style="paint-order:fill markers stroke"
   id="path573" />
  </g>
</svg>
