<svg width="98mm" height="98mm" version="1.1" viewBox="0 0 98 98" xml:space="preserve" id="svg655" xmlns="http://www.w3.org/2000/svg" xmlns:svg="http://www.w3.org/2000/svg">
  <g stroke="#bea79c" stroke-linecap="round" stroke-linejoin="bevel" id="g643">
    <path d="m18.591 100.18c0.6885-2.711 1.3771-5.4222 2.2762-8.1833 0.89916-2.7612 2.0089-5.5722 2.8704-7.9501 0.86154-2.378 1.4748-4.3226 2.2375-6.5891 0.76269-2.2664 1.6747-4.8543 1.6572-8.2059-0.01751-3.3516-0.9647-7.4668-1.4778-13.943-0.51309-6.4759-0.59198-15.312-0.59201-19.915-2.1e-5 -4.6023 0.07887-4.9705 0.14462-5.2993 0.06575-0.32873 0.11835-0.61802-0.94037 1.8369-1.0587 2.4549-3.2286 7.6539-5.81 13.381-2.5813 5.7267-5.5739 11.981-7.1543 15.865s-1.7485 5.3969-3.0767 8.8267c-1.3282 3.4298-3.8165 8.7761-5.8844 12.559-2.068 3.7828-3.7155 6.002-5.3632 8.2213v-29.355c1.614-1.8158 3.228-3.6315 5.38-8.2214 2.152-4.5899 4.842-11.954 7.0613-18.864 2.2193-6.9101 3.9678-13.366 7.381-16.611 3.4132-3.2449 8.4905-3.2786 12.626-4.2706 4.1359-0.99199 7.3302-2.9422 8.8937-5.7162 1.5635-2.774 1.4963-6.3721 1.429-9.97l18.662 0.10088c-0.23538 2.4546-0.47078 4.9095-0.48756 6.8935-0.01678 1.9839 0.18497 3.497 2.2363 5.0942 2.0513 1.5971 5.9518 3.2784 10.155 4.2535 4.2032 0.97508 8.7089 1.2441 12.66 7.2297s7.347 17.687 9.953 25.118c2.606 7.4312 4.4216 10.592 6.2373 13.752l-0.10088 28.951c-2.8582-5.1783-5.7161-10.356-7.5656-14.694-1.8494-4.3377-2.6901-7.8347-5.7836-14.829-3.0935-6.9942-8.44-17.485-13.786-27.976 0.63888 5.3464 1.2778 10.693 0.95831 16.888s-1.5972 13.237-2.0175 18.098c-0.42028 4.8615 0.01684 7.5417 0.82559 10.279 0.80875 2.737 1.989 5.5307 3.1508 8.3698 1.1618 2.8391 2.305 5.7233 3.0767 8.174 0.77167 2.4507 1.1717 4.4674 1.5718 6.4844" fill="#f7e2d1" fill-opacity=".5044" stroke-width=".8" style="paint-order:fill markers stroke;fill:#f7e2d1;fill-opacity:1" id="path633"/>
    <g fill="none" stroke-width=".8" id="g641">
      <path d="m25.365 30.95c0.26316-0.78949 0.52638-1.5791 0.78964-2.3689" style="paint-order:fill markers stroke" id="path635"/>
      <path d="m48.161 79.773c0.72259-0.35248 1.4451-0.70491 1.9826-0.64306 0.53752 0.06186 0.88994 0.53763 0.793 0.83702-0.09694 0.2994-0.64319 0.42274-1.1897 0.54614" style="paint-order:fill markers stroke" id="path637"/>
      <path d="m72.629 32.441c-0.23906-0.87779-0.4782-1.7559-0.71743-2.6343" style="paint-order:fill markers stroke" id="path639"/>
    </g>
  </g>
  <g stroke="#ffde13" stroke-linecap="round" stroke-linejoin="bevel" stroke-width=".8" id="g651">
    <path d="m18.241 100.74c1.0008-3.7532 2.0017-7.5065 3.1152-10.922 1.1135-3.4156 2.3396-6.4934 3.5657-9.5711 7.9571 1.7516 15.914 3.5032 24.047 3.5031s16.439-1.7516 24.747-3.5031c1.4263 3.403 2.8527 6.8064 3.9661 10.234 1.1135 3.4281 1.9142 6.8811 2.7148 10.334" fill="#ffe28a" style="paint-order:fill markers stroke" id="path645"/>
    <path d="m23.421 83.925c8.658 1.3262 17.316 2.6524 25.898 2.6398 8.5827-0.01256 17.09-1.3637 25.597-2.7149" fill="none" style="paint-order:fill markers stroke" id="path647"/>
    <path d="m27.915 13.574c-0.46062 5.0841-0.92125 10.168-2.0378 14.821-1.1165 4.6532-2.8888 8.8754-3.9052 12.107-1.0165 3.232-1.2771 5.4734-1.112 7.5064 0.16514 2.033 0.75589 3.8574 2.65 4.9172s5.0911 1.3552 8.8877 1.3117c3.7966-0.04346 8.1926-0.42572 12.71-0.39963 4.5178 0.02609 9.157 0.46048 13.388 0.83406 4.231 0.37358 8.0536 0.68634 10.973 0.51253 2.9191-0.1738 4.9346-0.83407 6.2638-1.9721 1.3291-1.138 1.972-2.7539 2.1545-4.6565 0.18249-1.9026-0.09551-4.0918-0.88606-6.3942-0.79054-2.3023-2.0937-4.7174-3.2492-7.3586-1.1555-2.6412-2.1633-5.5081-2.8497-9.1136-0.68639-3.6055-1.0513-7.9497-1.4162-12.294l-3.5968-1.0425c0.19113 2.8149 0.38228 5.63 0.33882 8.2972-0.04346 2.6672-0.32147 5.1866-1.4683 7.5844-1.1468 2.3978-3.1623 4.6739-5.786 6.1595-2.6237 1.4856-5.8554 2.1806-8.818 2.2328-2.9626 0.05218-5.6557-0.53858-8.3838-1.668-2.728-1.1294-5.4907-2.7974-7.211-5.2474-1.7203-2.45-2.398-5.6818-2.676-8.6618-0.27805-2.98-0.15641-5.7082-0.03478-8.4362 0 0-3.9351 0.95938-3.9351 0.95938z" fill="#ffe28a" style="paint-order:fill markers stroke" id="path649"/>
  </g>
  <ellipse cx="49.439" cy="67.139" rx="4.1258" ry="4.0765" fill="#0420ff" fill-opacity=".18431" stroke="#0420ff" stroke-linecap="round" stroke-width=".68382" style="paint-order:stroke fill markers" id="ellipse653"/>
</svg>
